<?xml version="1.0" standalone="no"?>
<!DOCTYPE svg PUBLIC "-//W3C//DTD SVG 1.1//EN" "http://www.w3.org/Graphics/SVG/1.1/DTD/svg11.dtd" >
<svg>
<metadata>
Created by FontForge 20120731 at Mon Dec 29 00:04:25 2014
 By Orthosie Webhosting
(c), 2007, Dalton Maag Ltd, BMW Group. All rights reserved.
</metadata>
<defs>
<font id="BMWTypeV2Regular" horiz-adv-x="485" vert-adv-y="2048" >
  <font-face 
    font-family="BMWType V2 Regular"
    font-weight="400"
    font-stretch="normal"
    units-per-em="2048"
    panose-1="0 0 0 0 0 0 0 0 0 0"
    ascent="1638"
    descent="-410"
    x-height="1081"
    cap-height="1544"
    bbox="-324 -965 6690 1950"
    underline-thickness="100"
    underline-position="-154"
    unicode-range="U+0020-FEFF"
  />
<missing-glyph vert-adv-y="1433" 
d="M49 0v1544h387v-1544h-387zM387 49v1446h-289v-1446h289z" />
    <glyph glyph-name="uniE815" unicode="&#x651;&#x64b;" vert-adv-y="1433" 
 />
    <glyph glyph-name="uniFC5E" unicode="&#x651;&#x64c;" vert-adv-y="1433" arabic-form="isolated" 
 />
    <glyph glyph-name="uniFC5F" unicode="&#x651;&#x64d;" vert-adv-y="1433" arabic-form="isolated" 
 />
    <glyph glyph-name="uniFC60" unicode="&#x651;&#x64e;" vert-adv-y="1433" arabic-form="isolated" 
 />
    <glyph glyph-name="uniFC61" unicode="&#x651;&#x64f;" vert-adv-y="1433" arabic-form="isolated" 
 />
    <glyph glyph-name="uniFC62" unicode="&#x651;&#x650;" vert-adv-y="1433" arabic-form="isolated" 
 />
    <glyph glyph-name="uniFDF2" unicode="&#xfedf;&#xfee0;&#x6c1;" vert-adv-y="1433" arabic-form="isolated" 
 />
    <glyph glyph-name="uniFEF5" unicode="&#xfedf;&#xfe82;" vert-adv-y="1433" arabic-form="isolated" 
 />
    <glyph glyph-name="uniFEF6" unicode="&#xfee0;&#xfe82;" vert-adv-y="1433" arabic-form="final" 
 />
    <glyph glyph-name="uniFEF7" unicode="&#xfedf;&#xfe84;" vert-adv-y="1433" arabic-form="isolated" 
 />
    <glyph glyph-name="uniFEF8" unicode="&#xfee0;&#xfe84;" vert-adv-y="1433" arabic-form="final" 
 />
    <glyph glyph-name="uniFEF9" unicode="&#xfedf;&#xfe88;" vert-adv-y="1433" arabic-form="isolated" 
 />
    <glyph glyph-name="uniFEFA" unicode="&#xfee0;&#xfe88;" vert-adv-y="1433" arabic-form="final" 
 />
    <glyph glyph-name="uniFEFB" unicode="&#xfedf;&#xfe8e;" vert-adv-y="1433" arabic-form="isolated" 
 />
    <glyph glyph-name="uniFEFC" unicode="&#xfee0;&#xfe8e;" vert-adv-y="1433" arabic-form="final" 
 />
    <glyph glyph-name="uniFB50" unicode="&#x671;" vert-adv-y="1433" arabic-form="isolated" 
 />
    <glyph glyph-name="uniFB51" unicode="&#x671;" vert-adv-y="1433" arabic-form="final" 
 />
    <glyph glyph-name="uniFB52" unicode="&#x67b;" vert-adv-y="1433" arabic-form="isolated" 
 />
    <glyph glyph-name="uniFB53" unicode="&#x67b;" vert-adv-y="1433" arabic-form="final" 
 />
    <glyph glyph-name="uniFB54" unicode="&#x67b;" vert-adv-y="1433" arabic-form="initial" 
 />
    <glyph glyph-name="uniFB55" unicode="&#x67b;" vert-adv-y="1433" arabic-form="medial" 
 />
    <glyph glyph-name="uniFB56" unicode="&#x67e;" vert-adv-y="1433" arabic-form="isolated" 
 />
    <glyph glyph-name="uniFB57" unicode="&#x67e;" vert-adv-y="1433" arabic-form="final" 
 />
    <glyph glyph-name="uniFB58" unicode="&#x67e;" vert-adv-y="1433" arabic-form="initial" 
 />
    <glyph glyph-name="uniFB59" unicode="&#x67e;" vert-adv-y="1433" arabic-form="medial" 
 />
    <glyph glyph-name="uniFB5A" unicode="&#x680;" vert-adv-y="1433" arabic-form="isolated" 
 />
    <glyph glyph-name="uniFB5B" unicode="&#x680;" vert-adv-y="1433" arabic-form="final" 
 />
    <glyph glyph-name="uniFB5C" unicode="&#x680;" vert-adv-y="1433" arabic-form="initial" 
 />
    <glyph glyph-name="uniFB5D" unicode="&#x680;" vert-adv-y="1433" arabic-form="medial" 
 />
    <glyph glyph-name="uniFB5E" unicode="&#x67a;" vert-adv-y="1433" arabic-form="isolated" 
 />
    <glyph glyph-name="uniFB5F" unicode="&#x67a;" vert-adv-y="1433" arabic-form="final" 
 />
    <glyph glyph-name="uniFB60" unicode="&#x67a;" vert-adv-y="1433" arabic-form="initial" 
 />
    <glyph glyph-name="uniFB61" unicode="&#x67a;" vert-adv-y="1433" arabic-form="medial" 
 />
    <glyph glyph-name="uniFB62" unicode="&#x67f;" vert-adv-y="1433" arabic-form="isolated" 
 />
    <glyph glyph-name="uniFB63" unicode="&#x67f;" vert-adv-y="1433" arabic-form="final" 
 />
    <glyph glyph-name="uniFB64" unicode="&#x67f;" vert-adv-y="1433" arabic-form="initial" 
 />
    <glyph glyph-name="uniFB65" unicode="&#x67f;" vert-adv-y="1433" arabic-form="medial" 
 />
    <glyph glyph-name="uniFB66" unicode="&#x679;" vert-adv-y="1433" arabic-form="isolated" 
 />
    <glyph glyph-name="uniFB67" unicode="&#x679;" vert-adv-y="1433" arabic-form="final" 
 />
    <glyph glyph-name="uniFB68" unicode="&#x679;" vert-adv-y="1433" arabic-form="initial" 
 />
    <glyph glyph-name="uniFB69" unicode="&#x679;" vert-adv-y="1433" arabic-form="medial" 
 />
    <glyph glyph-name="uniFB6A" unicode="&#x6a4;" vert-adv-y="1433" arabic-form="isolated" 
 />
    <glyph glyph-name="uniFB6B" unicode="&#x6a4;" vert-adv-y="1433" arabic-form="final" 
 />
    <glyph glyph-name="uniFB6C" unicode="&#x6a4;" vert-adv-y="1433" arabic-form="initial" 
 />
    <glyph glyph-name="uniFB6D" unicode="&#x6a4;" vert-adv-y="1433" arabic-form="medial" 
 />
    <glyph glyph-name="uniFB6E" unicode="&#x6a6;" vert-adv-y="1433" arabic-form="isolated" 
 />
    <glyph glyph-name="uniFB6F" unicode="&#x6a6;" vert-adv-y="1433" arabic-form="final" 
 />
    <glyph glyph-name="uniFB70" unicode="&#x6a6;" vert-adv-y="1433" arabic-form="initial" 
 />
    <glyph glyph-name="uniFB71" unicode="&#x6a6;" vert-adv-y="1433" arabic-form="medial" 
 />
    <glyph glyph-name="uniFB72" unicode="&#x684;" vert-adv-y="1433" arabic-form="isolated" 
 />
    <glyph glyph-name="uniFB73" unicode="&#x684;" vert-adv-y="1433" arabic-form="final" 
 />
    <glyph glyph-name="uniFB74" unicode="&#x684;" vert-adv-y="1433" arabic-form="initial" 
 />
    <glyph glyph-name="uniFB75" unicode="&#x684;" vert-adv-y="1433" arabic-form="medial" 
 />
    <glyph glyph-name="uniFB76" unicode="&#x683;" vert-adv-y="1433" arabic-form="isolated" 
 />
    <glyph glyph-name="uniFB77" unicode="&#x683;" vert-adv-y="1433" arabic-form="final" 
 />
    <glyph glyph-name="uniFB78" unicode="&#x683;" vert-adv-y="1433" arabic-form="initial" 
 />
    <glyph glyph-name="uniFB79" unicode="&#x683;" vert-adv-y="1433" arabic-form="medial" 
 />
    <glyph glyph-name="uniFB7A" unicode="&#x686;" vert-adv-y="1433" arabic-form="isolated" 
 />
    <glyph glyph-name="uniFB7B" unicode="&#x686;" vert-adv-y="1433" arabic-form="final" 
 />
    <glyph glyph-name="uniFB7C" unicode="&#x686;" vert-adv-y="1433" arabic-form="initial" 
 />
    <glyph glyph-name="uniFB7D" unicode="&#x686;" vert-adv-y="1433" arabic-form="medial" 
 />
    <glyph glyph-name="uniFB7E" unicode="&#x687;" vert-adv-y="1433" arabic-form="isolated" 
 />
    <glyph glyph-name="uniFB7F" unicode="&#x687;" vert-adv-y="1433" arabic-form="final" 
 />
    <glyph glyph-name="uniFB80" unicode="&#x687;" vert-adv-y="1433" arabic-form="initial" 
 />
    <glyph glyph-name="uniFB81" unicode="&#x687;" vert-adv-y="1433" arabic-form="medial" 
 />
    <glyph glyph-name="uniFB82" unicode="&#x68d;" vert-adv-y="1433" arabic-form="isolated" 
 />
    <glyph glyph-name="uniFB83" unicode="&#x68d;" vert-adv-y="1433" arabic-form="final" 
 />
    <glyph glyph-name="uniFB84" unicode="&#x68c;" vert-adv-y="1433" arabic-form="isolated" 
 />
    <glyph glyph-name="uniFB85" unicode="&#x68c;" vert-adv-y="1433" arabic-form="final" 
 />
    <glyph glyph-name="uniFB86" unicode="&#x68e;" vert-adv-y="1433" arabic-form="isolated" 
 />
    <glyph glyph-name="uniFB87" unicode="&#x68e;" vert-adv-y="1433" arabic-form="final" 
 />
    <glyph glyph-name="uniFB88" unicode="&#x688;" vert-adv-y="1433" arabic-form="isolated" 
 />
    <glyph glyph-name="uniFB89" unicode="&#x688;" vert-adv-y="1433" arabic-form="final" 
 />
    <glyph glyph-name="uniFB8A" unicode="&#x698;" vert-adv-y="1433" arabic-form="isolated" 
 />
    <glyph glyph-name="uniFB8B" unicode="&#x698;" vert-adv-y="1433" arabic-form="final" 
 />
    <glyph glyph-name="uniFB8C" unicode="&#x691;" vert-adv-y="1433" arabic-form="isolated" 
 />
    <glyph glyph-name="uniFB8D" unicode="&#x691;" vert-adv-y="1433" arabic-form="final" 
 />
    <glyph glyph-name="uniFB8E" unicode="&#x6a9;" vert-adv-y="1433" arabic-form="isolated" 
 />
    <glyph glyph-name="uniFB8F" unicode="&#x6a9;" vert-adv-y="1433" arabic-form="final" 
 />
    <glyph glyph-name="uniFB90" unicode="&#x6a9;" vert-adv-y="1433" arabic-form="initial" 
 />
    <glyph glyph-name="uniFB91" unicode="&#x6a9;" vert-adv-y="1433" arabic-form="medial" 
 />
    <glyph glyph-name="uniFB92" unicode="&#x6af;" vert-adv-y="1433" arabic-form="isolated" 
 />
    <glyph glyph-name="uniFB93" unicode="&#x6af;" vert-adv-y="1433" arabic-form="final" 
 />
    <glyph glyph-name="uniFB94" unicode="&#x6af;" vert-adv-y="1433" arabic-form="initial" 
 />
    <glyph glyph-name="uniFB95" unicode="&#x6af;" vert-adv-y="1433" arabic-form="medial" 
 />
    <glyph glyph-name="uniFB96" unicode="&#x6b3;" vert-adv-y="1433" arabic-form="isolated" 
 />
    <glyph glyph-name="uniFB97" unicode="&#x6b3;" vert-adv-y="1433" arabic-form="final" 
 />
    <glyph glyph-name="uniFB98" unicode="&#x6b3;" vert-adv-y="1433" arabic-form="initial" 
 />
    <glyph glyph-name="uniFB99" unicode="&#x6b3;" vert-adv-y="1433" arabic-form="medial" 
 />
    <glyph glyph-name="uniFB9A" unicode="&#x6b1;" vert-adv-y="1433" arabic-form="isolated" 
 />
    <glyph glyph-name="uniFB9B" unicode="&#x6b1;" vert-adv-y="1433" arabic-form="final" 
 />
    <glyph glyph-name="uniFB9C" unicode="&#x6b1;" vert-adv-y="1433" arabic-form="initial" 
 />
    <glyph glyph-name="uniFB9D" unicode="&#x6b1;" vert-adv-y="1433" arabic-form="medial" 
 />
    <glyph glyph-name="uniFB9E" unicode="&#x6ba;" vert-adv-y="1433" arabic-form="isolated" 
 />
    <glyph glyph-name="uniFB9F" unicode="&#x6ba;" vert-adv-y="1433" arabic-form="final" 
 />
    <glyph glyph-name="uniFBA0" unicode="&#x6bb;" vert-adv-y="1433" arabic-form="isolated" 
 />
    <glyph glyph-name="uniFBA1" unicode="&#x6bb;" vert-adv-y="1433" arabic-form="final" 
 />
    <glyph glyph-name="uniFBA2" unicode="&#x6bb;" vert-adv-y="1433" arabic-form="initial" 
 />
    <glyph glyph-name="uniFBA3" unicode="&#x6bb;" vert-adv-y="1433" arabic-form="medial" 
 />
    <glyph glyph-name="uniFBA4" unicode="&#x6c0;" vert-adv-y="1433" arabic-form="isolated" 
 />
    <glyph glyph-name="uniFBA5" unicode="&#x6c0;" vert-adv-y="1433" arabic-form="final" 
 />
    <glyph glyph-name="uniFBA6" unicode="&#x6c1;" vert-adv-y="1433" arabic-form="isolated" 
 />
    <glyph glyph-name="uniFBA7" unicode="&#x6c1;" vert-adv-y="1433" arabic-form="final" 
 />
    <glyph glyph-name="uniFBA8" unicode="&#x6c1;" vert-adv-y="1433" arabic-form="initial" 
 />
    <glyph glyph-name="uniFBA9" unicode="&#x6c1;" vert-adv-y="1433" arabic-form="medial" 
 />
    <glyph glyph-name="uniFBAA" unicode="&#x6be;" vert-adv-y="1433" arabic-form="isolated" 
 />
    <glyph glyph-name="uniFBAB" unicode="&#x6be;" vert-adv-y="1433" arabic-form="final" 
 />
    <glyph glyph-name="uniFBAC" unicode="&#x6be;" vert-adv-y="1433" arabic-form="initial" 
 />
    <glyph glyph-name="uniFBAD" unicode="&#x6be;" vert-adv-y="1433" arabic-form="medial" 
 />
    <glyph glyph-name="uniFBAE" unicode="&#x6d2;" vert-adv-y="1433" arabic-form="isolated" 
 />
    <glyph glyph-name="uniFBAF" unicode="&#x6d2;" vert-adv-y="1433" arabic-form="final" 
 />
    <glyph glyph-name="uniFBB0" unicode="&#x6d3;" vert-adv-y="1433" arabic-form="isolated" 
 />
    <glyph glyph-name="uniFBB1" unicode="&#x6d3;" vert-adv-y="1433" arabic-form="final" 
 />
    <glyph glyph-name="uniFBD3" unicode="&#x6ad;" vert-adv-y="1433" arabic-form="isolated" 
 />
    <glyph glyph-name="uniFBD4" unicode="&#x6ad;" vert-adv-y="1433" arabic-form="final" 
 />
    <glyph glyph-name="uniFBD5" unicode="&#x6ad;" vert-adv-y="1433" arabic-form="initial" 
 />
    <glyph glyph-name="uniFBD6" unicode="&#x6ad;" vert-adv-y="1433" arabic-form="medial" 
 />
    <glyph glyph-name="uniFBD7" unicode="&#x6c7;" vert-adv-y="1433" arabic-form="isolated" 
 />
    <glyph glyph-name="uniFBD8" unicode="&#x6c7;" vert-adv-y="1433" arabic-form="final" 
 />
    <glyph glyph-name="uniFBD9" unicode="&#x6c6;" vert-adv-y="1433" arabic-form="isolated" 
 />
    <glyph glyph-name="uniFBDA" unicode="&#x6c6;" vert-adv-y="1433" arabic-form="final" 
 />
    <glyph glyph-name="uniFBDB" unicode="&#x6c8;" vert-adv-y="1433" arabic-form="isolated" 
 />
    <glyph glyph-name="uniFBDC" unicode="&#x6c8;" vert-adv-y="1433" arabic-form="final" 
 />
    <glyph glyph-name="uniFBDD" unicode="&#x677;" vert-adv-y="1433" arabic-form="isolated" 
 />
    <glyph glyph-name="uniFBDE" unicode="&#x6cb;" vert-adv-y="1433" arabic-form="isolated" 
 />
    <glyph glyph-name="uniFBDF" unicode="&#x6cb;" vert-adv-y="1433" arabic-form="final" 
 />
    <glyph glyph-name="uniFBE0" unicode="&#x6c5;" vert-adv-y="1433" arabic-form="isolated" 
 />
    <glyph glyph-name="uniFBE1" unicode="&#x6c5;" vert-adv-y="1433" arabic-form="final" 
 />
    <glyph glyph-name="uniFBE2" unicode="&#x6c9;" vert-adv-y="1433" arabic-form="isolated" 
 />
    <glyph glyph-name="uniFBE3" unicode="&#x6c9;" vert-adv-y="1433" arabic-form="final" 
 />
    <glyph glyph-name="uniFBE4" unicode="&#x6d0;" vert-adv-y="1433" arabic-form="isolated" 
 />
    <glyph glyph-name="uniFBE5" unicode="&#x6d0;" vert-adv-y="1433" arabic-form="final" 
 />
    <glyph glyph-name="uniFBE6" unicode="&#x6d0;" vert-adv-y="1433" arabic-form="initial" 
 />
    <glyph glyph-name="uniFBE7" unicode="&#x6d0;" vert-adv-y="1433" arabic-form="medial" 
 />
    <glyph glyph-name="uniFBE8" unicode="&#x649;" vert-adv-y="1433" arabic-form="initial" 
 />
    <glyph glyph-name="uniFBE9" unicode="&#x649;" vert-adv-y="1433" arabic-form="medial" 
 />
    <glyph glyph-name="uniFBEA" unicode="&#xfbea;" vert-adv-y="1433" arabic-form="isolated" 
 />
    <glyph glyph-name="uniFBEB" unicode="&#xfbeb;" vert-adv-y="1433" arabic-form="final" 
 />
    <glyph glyph-name="uniFBEC" unicode="&#xfbec;" vert-adv-y="1433" arabic-form="isolated" 
 />
    <glyph glyph-name="uniFBED" unicode="&#xfbed;" vert-adv-y="1433" arabic-form="final" 
 />
    <glyph glyph-name="uniFBEE" unicode="&#xfbee;" vert-adv-y="1433" arabic-form="isolated" 
 />
    <glyph glyph-name="uniFBEF" unicode="&#xfbef;" vert-adv-y="1433" arabic-form="final" 
 />
    <glyph glyph-name="uniFBF0" unicode="&#xfbf0;" vert-adv-y="1433" arabic-form="isolated" 
 />
    <glyph glyph-name="uniFBF1" unicode="&#xfbf1;" vert-adv-y="1433" arabic-form="final" 
 />
    <glyph glyph-name="uniFBF2" unicode="&#xfbf2;" vert-adv-y="1433" arabic-form="isolated" 
 />
    <glyph glyph-name="uniFBF3" unicode="&#xfbf3;" vert-adv-y="1433" arabic-form="final" 
 />
    <glyph glyph-name="uniFBF4" unicode="&#xfbf4;" vert-adv-y="1433" arabic-form="isolated" 
 />
    <glyph glyph-name="uniFBF5" unicode="&#xfbf5;" vert-adv-y="1433" arabic-form="final" 
 />
    <glyph glyph-name="uniFBF6" unicode="&#xfbf6;" vert-adv-y="1433" arabic-form="isolated" 
 />
    <glyph glyph-name="uniFBF7" unicode="&#xfbf7;" vert-adv-y="1433" arabic-form="final" 
 />
    <glyph glyph-name="uniFBF8" unicode="&#xfbf8;" vert-adv-y="1433" arabic-form="initial" 
 />
    <glyph glyph-name="uniFBF9" unicode="&#xfbf9;" vert-adv-y="1433" arabic-form="isolated" 
 />
    <glyph glyph-name="uniFBFA" unicode="&#xfbfa;" vert-adv-y="1433" arabic-form="final" 
 />
    <glyph glyph-name="uniFBFB" unicode="&#xfbfb;" vert-adv-y="1433" arabic-form="initial" 
 />
    <glyph glyph-name="uniFBFC" unicode="&#x6cc;" vert-adv-y="1433" arabic-form="isolated" 
 />
    <glyph glyph-name="uniFBFD" unicode="&#x6cc;" vert-adv-y="1433" arabic-form="final" 
 />
    <glyph glyph-name="uniFBFE" unicode="&#x6cc;" vert-adv-y="1433" arabic-form="initial" 
 />
    <glyph glyph-name="uniFBFF" unicode="&#x6cc;" vert-adv-y="1433" arabic-form="medial" 
 />
    <glyph glyph-name="uniFE70" unicode="&#xfe70;" vert-adv-y="1433" arabic-form="isolated" 
 />
    <glyph glyph-name="uniFE72" unicode="&#xfe72;" vert-adv-y="1433" arabic-form="isolated" 
 />
    <glyph glyph-name="uniFE74" unicode="&#xfe74;" vert-adv-y="1433" arabic-form="isolated" 
 />
    <glyph glyph-name="uniFE76" unicode="&#xfe76;" vert-adv-y="1433" arabic-form="isolated" 
 />
    <glyph glyph-name="uniFE78" unicode="&#xfe78;" vert-adv-y="1433" arabic-form="isolated" 
 />
    <glyph glyph-name="uniFE7A" unicode="&#xfe7a;" vert-adv-y="1433" arabic-form="isolated" 
 />
    <glyph glyph-name="uniFE7B" unicode="&#xfe7b;" vert-adv-y="1433" arabic-form="medial" 
 />
    <glyph glyph-name="uniFE7C" unicode="&#xfe7c;" vert-adv-y="1433" arabic-form="isolated" 
 />
    <glyph glyph-name="uniFE7D" unicode="&#xfe7d;" vert-adv-y="1433" arabic-form="medial" 
 />
    <glyph glyph-name="uniFE7E" unicode="&#xfe7e;" vert-adv-y="1433" arabic-form="isolated" 
 />
    <glyph glyph-name="uniFE7F" unicode="&#xfe7f;" vert-adv-y="1433" arabic-form="medial" 
 />
    <glyph glyph-name="uniFE80" unicode="&#x621;" vert-adv-y="1433" arabic-form="isolated" 
 />
    <glyph glyph-name="uniFE81" unicode="&#x622;" vert-adv-y="1433" arabic-form="isolated" 
 />
    <glyph glyph-name="uniFE82" unicode="&#x622;" vert-adv-y="1433" arabic-form="final" 
 />
    <glyph glyph-name="uniFE83" unicode="&#x623;" vert-adv-y="1433" arabic-form="isolated" 
 />
    <glyph glyph-name="uniFE84" unicode="&#x623;" vert-adv-y="1433" arabic-form="final" 
 />
    <glyph glyph-name="uniFE85" unicode="&#x624;" vert-adv-y="1433" arabic-form="isolated" 
 />
    <glyph glyph-name="uniFE86" unicode="&#x624;" vert-adv-y="1433" arabic-form="final" 
 />
    <glyph glyph-name="uniFE87" unicode="&#x625;" vert-adv-y="1433" arabic-form="isolated" 
 />
    <glyph glyph-name="uniFE88" unicode="&#x625;" vert-adv-y="1433" arabic-form="final" 
 />
    <glyph glyph-name="uniFE89" unicode="&#x626;" vert-adv-y="1433" arabic-form="isolated" 
 />
    <glyph glyph-name="uniFE8A" unicode="&#x626;" vert-adv-y="1433" arabic-form="final" 
 />
    <glyph glyph-name="uniFE8B" unicode="&#x626;" vert-adv-y="1433" arabic-form="initial" 
 />
    <glyph glyph-name="uniFE8C" unicode="&#x626;" vert-adv-y="1433" arabic-form="medial" 
 />
    <glyph glyph-name="uniFE8D" unicode="&#x627;" vert-adv-y="1433" arabic-form="isolated" 
 />
    <glyph glyph-name="uniFE8E" unicode="&#x627;" vert-adv-y="1433" arabic-form="final" 
 />
    <glyph glyph-name="uniFE8F" unicode="&#x628;" vert-adv-y="1433" arabic-form="isolated" 
 />
    <glyph glyph-name="uniFE90" unicode="&#x628;" vert-adv-y="1433" arabic-form="final" 
 />
    <glyph glyph-name="uniFE91" unicode="&#x628;" vert-adv-y="1433" arabic-form="initial" 
 />
    <glyph glyph-name="uniFE92" unicode="&#x628;" vert-adv-y="1433" arabic-form="medial" 
 />
    <glyph glyph-name="uniFE93" unicode="&#x629;" vert-adv-y="1433" arabic-form="isolated" 
 />
    <glyph glyph-name="uniFE94" unicode="&#x629;" vert-adv-y="1433" arabic-form="final" 
 />
    <glyph glyph-name="uniFE95" unicode="&#x62a;" vert-adv-y="1433" arabic-form="isolated" 
 />
    <glyph glyph-name="uniFE96" unicode="&#x62a;" vert-adv-y="1433" arabic-form="final" 
 />
    <glyph glyph-name="uniFE97" unicode="&#x62a;" vert-adv-y="1433" arabic-form="initial" 
 />
    <glyph glyph-name="uniFE98" unicode="&#x62a;" vert-adv-y="1433" arabic-form="medial" 
 />
    <glyph glyph-name="uniFE99" unicode="&#x62b;" vert-adv-y="1433" arabic-form="isolated" 
 />
    <glyph glyph-name="uniFE9A" unicode="&#x62b;" vert-adv-y="1433" arabic-form="final" 
 />
    <glyph glyph-name="uniFE9B" unicode="&#x62b;" vert-adv-y="1433" arabic-form="initial" 
 />
    <glyph glyph-name="uniFE9C" unicode="&#x62b;" vert-adv-y="1433" arabic-form="medial" 
 />
    <glyph glyph-name="uniFE9D" unicode="&#x62c;" vert-adv-y="1433" arabic-form="isolated" 
 />
    <glyph glyph-name="uniFE9E" unicode="&#x62c;" vert-adv-y="1433" arabic-form="final" 
 />
    <glyph glyph-name="uniFE9F" unicode="&#x62c;" vert-adv-y="1433" arabic-form="initial" 
 />
    <glyph glyph-name="uniFEA0" unicode="&#x62c;" vert-adv-y="1433" arabic-form="medial" 
 />
    <glyph glyph-name="uniFEA1" unicode="&#x62d;" vert-adv-y="1433" arabic-form="isolated" 
 />
    <glyph glyph-name="uniFEA2" unicode="&#x62d;" vert-adv-y="1433" arabic-form="final" 
 />
    <glyph glyph-name="uniFEA3" unicode="&#x62d;" vert-adv-y="1433" arabic-form="initial" 
 />
    <glyph glyph-name="uniFEA4" unicode="&#x62d;" vert-adv-y="1433" arabic-form="medial" 
 />
    <glyph glyph-name="uniFEA5" unicode="&#x62e;" vert-adv-y="1433" arabic-form="isolated" 
 />
    <glyph glyph-name="uniFEA6" unicode="&#x62e;" vert-adv-y="1433" arabic-form="final" 
 />
    <glyph glyph-name="uniFEA7" unicode="&#x62e;" vert-adv-y="1433" arabic-form="initial" 
 />
    <glyph glyph-name="uniFEA8" unicode="&#x62e;" vert-adv-y="1433" arabic-form="medial" 
 />
    <glyph glyph-name="uniFEA9" unicode="&#x62f;" vert-adv-y="1433" arabic-form="isolated" 
 />
    <glyph glyph-name="uniFEAA" unicode="&#x62f;" vert-adv-y="1433" arabic-form="final" 
 />
    <glyph glyph-name="uniFEAB" unicode="&#x630;" vert-adv-y="1433" arabic-form="isolated" 
 />
    <glyph glyph-name="uniFEAC" unicode="&#x630;" vert-adv-y="1433" arabic-form="final" 
 />
    <glyph glyph-name="uniFEAD" unicode="&#x631;" vert-adv-y="1433" arabic-form="isolated" 
 />
    <glyph glyph-name="uniFEAE" unicode="&#x631;" vert-adv-y="1433" arabic-form="final" 
 />
    <glyph glyph-name="uniFEAF" unicode="&#x632;" vert-adv-y="1433" arabic-form="isolated" 
 />
    <glyph glyph-name="uniFEB0" unicode="&#x632;" vert-adv-y="1433" arabic-form="final" 
 />
    <glyph glyph-name="uniFEB1" unicode="&#x633;" vert-adv-y="1433" arabic-form="isolated" 
 />
    <glyph glyph-name="uniFEB2" unicode="&#x633;" vert-adv-y="1433" arabic-form="final" 
 />
    <glyph glyph-name="uniFEB3" unicode="&#x633;" vert-adv-y="1433" arabic-form="initial" 
 />
    <glyph glyph-name="uniFEB4" unicode="&#x633;" vert-adv-y="1433" arabic-form="medial" 
 />
    <glyph glyph-name="uniFEB5" unicode="&#x634;" vert-adv-y="1433" arabic-form="isolated" 
 />
    <glyph glyph-name="uniFEB6" unicode="&#x634;" vert-adv-y="1433" arabic-form="final" 
 />
    <glyph glyph-name="uniFEB7" unicode="&#x634;" vert-adv-y="1433" arabic-form="initial" 
 />
    <glyph glyph-name="uniFEB8" unicode="&#x634;" vert-adv-y="1433" arabic-form="medial" 
 />
    <glyph glyph-name="uniFEB9" unicode="&#x635;" vert-adv-y="1433" arabic-form="isolated" 
 />
    <glyph glyph-name="uniFEBA" unicode="&#x635;" vert-adv-y="1433" arabic-form="final" 
 />
    <glyph glyph-name="uniFEBB" unicode="&#x635;" vert-adv-y="1433" arabic-form="initial" 
 />
    <glyph glyph-name="uniFEBC" unicode="&#x635;" vert-adv-y="1433" arabic-form="medial" 
 />
    <glyph glyph-name="uniFEBD" unicode="&#x636;" vert-adv-y="1433" arabic-form="isolated" 
 />
    <glyph glyph-name="uniFEBE" unicode="&#x636;" vert-adv-y="1433" arabic-form="final" 
 />
    <glyph glyph-name="uniFEBF" unicode="&#x636;" vert-adv-y="1433" arabic-form="initial" 
 />
    <glyph glyph-name="uniFEC0" unicode="&#x636;" vert-adv-y="1433" arabic-form="medial" 
 />
    <glyph glyph-name="uniFEC1" unicode="&#x637;" vert-adv-y="1433" arabic-form="isolated" 
 />
    <glyph glyph-name="uniFEC2" unicode="&#x637;" vert-adv-y="1433" arabic-form="final" 
 />
    <glyph glyph-name="uniFEC3" unicode="&#x637;" vert-adv-y="1433" arabic-form="initial" 
 />
    <glyph glyph-name="uniFEC4" unicode="&#x637;" vert-adv-y="1433" arabic-form="medial" 
 />
    <glyph glyph-name="uniFEC5" unicode="&#x638;" vert-adv-y="1433" arabic-form="isolated" 
 />
    <glyph glyph-name="uniFEC6" unicode="&#x638;" vert-adv-y="1433" arabic-form="final" 
 />
    <glyph glyph-name="uniFEC7" unicode="&#x638;" vert-adv-y="1433" arabic-form="initial" 
 />
    <glyph glyph-name="uniFEC8" unicode="&#x638;" vert-adv-y="1433" arabic-form="medial" 
 />
    <glyph glyph-name="uniFEC9" unicode="&#x639;" vert-adv-y="1433" arabic-form="isolated" 
 />
    <glyph glyph-name="uniFECA" unicode="&#x639;" vert-adv-y="1433" arabic-form="final" 
 />
    <glyph glyph-name="uniFECB" unicode="&#x639;" vert-adv-y="1433" arabic-form="initial" 
 />
    <glyph glyph-name="uniFECC" unicode="&#x639;" vert-adv-y="1433" arabic-form="medial" 
 />
    <glyph glyph-name="uniFECD" unicode="&#x63a;" vert-adv-y="1433" arabic-form="isolated" 
 />
    <glyph glyph-name="uniFECE" unicode="&#x63a;" vert-adv-y="1433" arabic-form="final" 
 />
    <glyph glyph-name="uniFECF" unicode="&#x63a;" vert-adv-y="1433" arabic-form="initial" 
 />
    <glyph glyph-name="uniFED0" unicode="&#x63a;" vert-adv-y="1433" arabic-form="medial" 
 />
    <glyph glyph-name="uniFED1" unicode="&#x641;" vert-adv-y="1433" arabic-form="isolated" 
 />
    <glyph glyph-name="uniFED2" unicode="&#x641;" vert-adv-y="1433" arabic-form="final" 
 />
    <glyph glyph-name="uniFED3" unicode="&#x641;" vert-adv-y="1433" arabic-form="initial" 
 />
    <glyph glyph-name="uniFED4" unicode="&#x641;" vert-adv-y="1433" arabic-form="medial" 
 />
    <glyph glyph-name="uniFED5" unicode="&#x642;" vert-adv-y="1433" arabic-form="isolated" 
 />
    <glyph glyph-name="uniFED6" unicode="&#x642;" vert-adv-y="1433" arabic-form="final" 
 />
    <glyph glyph-name="uniFED7" unicode="&#x642;" vert-adv-y="1433" arabic-form="initial" 
 />
    <glyph glyph-name="uniFED8" unicode="&#x642;" vert-adv-y="1433" arabic-form="medial" 
 />
    <glyph glyph-name="uniFED9" unicode="&#x643;" vert-adv-y="1433" arabic-form="isolated" 
 />
    <glyph glyph-name="uniFEDA" unicode="&#x643;" vert-adv-y="1433" arabic-form="final" 
 />
    <glyph glyph-name="uniFEDB" unicode="&#x643;" vert-adv-y="1433" arabic-form="initial" 
 />
    <glyph glyph-name="uniFEDC" unicode="&#x643;" vert-adv-y="1433" arabic-form="medial" 
 />
    <glyph glyph-name="uniFEDD" unicode="&#x644;" vert-adv-y="1433" arabic-form="isolated" 
 />
    <glyph glyph-name="uniFEDE" unicode="&#x644;" vert-adv-y="1433" arabic-form="final" 
 />
    <glyph glyph-name="uniFEDF" unicode="&#x644;" vert-adv-y="1433" arabic-form="initial" 
 />
    <glyph glyph-name="uniFEE0" unicode="&#x644;" vert-adv-y="1433" arabic-form="medial" 
 />
    <glyph glyph-name="uniFEE1" unicode="&#x645;" vert-adv-y="1433" arabic-form="isolated" 
 />
    <glyph glyph-name="uniFEE2" unicode="&#x645;" vert-adv-y="1433" arabic-form="final" 
 />
    <glyph glyph-name="uniFEE3" unicode="&#x645;" vert-adv-y="1433" arabic-form="initial" 
 />
    <glyph glyph-name="uniFEE4" unicode="&#x645;" vert-adv-y="1433" arabic-form="medial" 
 />
    <glyph glyph-name="uniFEE5" unicode="&#x646;" vert-adv-y="1433" arabic-form="isolated" 
 />
    <glyph glyph-name="uniFEE6" unicode="&#x646;" vert-adv-y="1433" arabic-form="final" 
 />
    <glyph glyph-name="uniFEE7" unicode="&#x646;" vert-adv-y="1433" arabic-form="initial" 
 />
    <glyph glyph-name="uniFEE8" unicode="&#x646;" vert-adv-y="1433" arabic-form="medial" 
 />
    <glyph glyph-name="uniFEE9" unicode="&#x647;" vert-adv-y="1433" arabic-form="isolated" 
 />
    <glyph glyph-name="uniFEEA" unicode="&#x647;" vert-adv-y="1433" arabic-form="final" 
 />
    <glyph glyph-name="uniFEEB" unicode="&#x647;" vert-adv-y="1433" arabic-form="initial" 
 />
    <glyph glyph-name="uniFEEC" unicode="&#x647;" vert-adv-y="1433" arabic-form="medial" 
 />
    <glyph glyph-name="uniFEED" unicode="&#x648;" vert-adv-y="1433" arabic-form="isolated" 
 />
    <glyph glyph-name="uniFEEE" unicode="&#x648;" vert-adv-y="1433" arabic-form="final" 
 />
    <glyph glyph-name="uniFEEF" unicode="&#x649;" vert-adv-y="1433" arabic-form="isolated" 
 />
    <glyph glyph-name="uniFEF0" unicode="&#x649;" vert-adv-y="1433" arabic-form="final" 
 />
    <glyph glyph-name="uniFEF1" unicode="&#x64a;" vert-adv-y="1433" arabic-form="isolated" 
 />
    <glyph glyph-name="uniFEF2" unicode="&#x64a;" vert-adv-y="1433" arabic-form="final" 
 />
    <glyph glyph-name="uniFEF3" unicode="&#x64a;" vert-adv-y="1433" arabic-form="initial" 
 />
    <glyph glyph-name="uniFEF4" unicode="&#x64a;" vert-adv-y="1433" arabic-form="medial" 
 />
    <glyph glyph-name="uniFE77" unicode="&#xfe77;" vert-adv-y="1433" arabic-form="medial" 
 />
    <glyph glyph-name="uniFE79" unicode="&#xfe79;" vert-adv-y="1433" arabic-form="medial" 
 />
    <glyph glyph-name="space" unicode="&#xfe71;" vert-adv-y="1433" arabic-form="medial" 
 />
    <glyph glyph-name=".notdef" vert-adv-y="1433" 
d="M49 0v1544h387v-1544h-387zM387 49v1446h-289v-1446h289z" />
    <glyph glyph-name="glyph1" horiz-adv-x="0" vert-adv-y="0" 
 />
    <glyph glyph-name="glyph2" vert-adv-y="1433" 
 />
    <glyph glyph-name="space" unicode=" " vert-adv-y="1433" 
 />
    <glyph glyph-name="exclam" unicode="!" horiz-adv-x="608" vert-adv-y="1433" 
d="M188 0v276h230v-276h-230zM221 518l-28 723v303h223v-303l-29 -723h-166z" />
    <glyph glyph-name="quotedbl" unicode="&#x22;" horiz-adv-x="938" vert-adv-y="1433" 
d="M197 905l-50 457v182h230v-182l-47 -457h-133zM610 905l-49 457v182h230v-182l-50 -457h-131z" />
    <glyph glyph-name="numbersign" unicode="#" horiz-adv-x="1446" vert-adv-y="1433" 
d="M236 0l94 383h-217v154h254l94 389h-215v153h252l94 381h153l-92 -381h310l94 381h153l-92 -381h213v-153h-250l-94 -389h211v-154h-248l-94 -383h-156l95 383h-310l-94 -383h-155zM522 537h309l95 389h-310z" />
    <glyph glyph-name="dollar" unicode="$" horiz-adv-x="1372" vert-adv-y="1433" 
d="M629 -190v157q-250 16 -385 136q-110 97 -166 305l184 45q37 -136 101 -205q93 -102 266 -121v580l-103 20q-206 40 -314 160q-93 102 -93 259q0 210 161 326q131 94 349 107v123h131v-123q235 -23 358 -143q90 -88 135 -240l-174 -61q-51 142 -121 203q-74 65 -198 81
v-555l125 -24q195 -38 286 -133q105 -110 105 -293q0 -213 -150 -330q-129 -101 -366 -117v-157h-131zM760 127q317 29 317 271q0 217 -260 272l-57 12v-555zM629 891v530q-151 -10 -231 -73q-87 -69 -87 -190q0 -211 273 -259z" />
    <glyph glyph-name="percent" unicode="%" horiz-adv-x="2017" vert-adv-y="1433" 
d="M549 -37l743 1534h172l-743 -1534h-172zM1579 885q363 0 363 -466q0 -456 -362 -456q-361 0 -361 463q0 459 360 459zM1580 748q-191 0 -191 -323q0 -325 188 -325q195 0 195 323q0 325 -192 325zM433 1497q366 0 366 -467q0 -218 -89 -334q-93 -121 -272 -121
q-364 0 -364 460q0 462 359 462zM435 1360q-189 0 -189 -324q0 -323 187 -323q196 0 196 320q0 327 -194 327z" />
    <glyph glyph-name="ampersand" unicode="&#x26;" horiz-adv-x="1415" vert-adv-y="1433" 
d="M418 889q-97 114 -125 169q-41 81 -41 163q0 167 130 262q108 78 281 78q125 0 225 -54q169 -91 169 -277q0 -152 -131 -258q-83 -68 -232 -132l365 -432q79 96 194 299l144 -80q-96 -189 -234 -344l240 -283h-242l-131 156q-229 -193 -466 -193q-194 0 -330 105
q-166 128 -166 346q0 175 103 299q84 99 247 176zM928 279l-408 485q-139 -66 -203 -147q-61 -79 -61 -198q0 -126 94 -212q90 -82 224 -82q189 0 354 154zM588 952q110 44 178 89q117 79 117 191q0 89 -80 143q-63 42 -154 42q-99 0 -156 -52q-57 -51 -57 -136
q0 -73 58 -162q24 -36 58 -76t36 -39z" />
    <glyph glyph-name="quotesingle" unicode="'" horiz-adv-x="520" vert-adv-y="1433" 
d="M195 905l-50 457v182h230v-182l-49 -457h-131z" />
    <glyph glyph-name="parenleft" unicode="(" horiz-adv-x="604" vert-adv-y="1433" 
d="M424 -399q-344 403 -344 977q0 569 344 976l133 -81q-102 -147 -170 -330q-104 -280 -104 -564q0 -231 72 -473q70 -235 202 -421z" />
    <glyph glyph-name="parenright" unicode=")" horiz-adv-x="604" vert-adv-y="1433" 
d="M180 -399l-133 84q112 162 185 366q92 256 92 533q0 291 -114 581q-67 169 -163 308l133 81q344 -406 344 -974t-344 -979z" />
    <glyph glyph-name="asterisk" unicode="*" horiz-adv-x="1008" vert-adv-y="1433" 
d="M430 725l6 295l-254 -154l-71 123l256 146l-256 143l71 125l254 -154l-6 295h148l-7 -295l254 154l72 -125l-256 -143l256 -146l-72 -123l-254 154l7 -295h-148z" />
    <glyph glyph-name="plus" unicode="+" horiz-adv-x="1227" vert-adv-y="1433" 
d="M526 178v471h-460v164h460v471h174v-471h461v-164h-461v-471h-174z" />
    <glyph glyph-name="comma" unicode="," horiz-adv-x="520" vert-adv-y="1433" 
d="M180 -395l-82 82q70 73 99 123q47 78 47 163v27h-103v281h238v-267q0 -229 -199 -409z" />
    <glyph glyph-name="hyphen" unicode="-" horiz-adv-x="838" vert-adv-y="1433" 
d="M115 440v203h606v-203h-606z" />
    <glyph glyph-name="period" unicode="." horiz-adv-x="520" vert-adv-y="1433" 
d="M141 0v281h238v-281h-238z" />
    <glyph glyph-name="slash" unicode="/" horiz-adv-x="545" vert-adv-y="1433" 
d="M0 0l381 1544h164l-381 -1544h-164z" />
    <glyph glyph-name="zero" unicode="0" horiz-adv-x="1227" vert-adv-y="1433" 
d="M612 1544q535 0 535 -791q0 -790 -533 -790q-534 0 -534 790q0 791 532 791zM612 1382q-327 0 -327 -628q0 -629 325 -629q163 0 247 147q85 148 85 491q0 619 -330 619z" />
    <glyph glyph-name="one" unicode="1" horiz-adv-x="1227" vert-adv-y="1433" 
d="M629 0v1282q-153 -120 -338 -219l-80 145q253 143 432 299h181v-1507h-195z" />
    <glyph glyph-name="two" unicode="2" horiz-adv-x="1227" vert-adv-y="1433" 
d="M99 0v78q0 197 185 380q61 60 122 104q7 5 168 113q143 96 206 160q120 123 120 271q0 125 -76 201q-75 75 -210 75q-259 0 -326 -315l-191 35q44 179 134 284q138 158 397 158q283 0 410 -188q69 -102 69 -254q0 -218 -183 -384q-75 -69 -313 -229q-137 -92 -200 -159
q-71 -76 -93 -158h801v-172h-1020z" />
    <glyph glyph-name="three" unicode="3" horiz-adv-x="1227" vert-adv-y="1433" 
d="M85 416l192 22q14 -149 86 -227q79 -86 241 -86q146 0 231 64q98 74 98 215q0 181 -148 246q-87 38 -242 40v164q365 16 365 283q0 107 -57 170q-75 82 -232 82q-264 0 -313 -281l-189 27q76 409 512 409q251 0 377 -123q107 -104 107 -270q0 -267 -297 -375
q323 -48 323 -366q0 -191 -123 -314q-134 -133 -411 -133q-259 0 -393 135q-113 114 -127 318z" />
    <glyph glyph-name="four" unicode="4" horiz-adv-x="1227" vert-adv-y="1433" 
d="M783 0v334h-699v168l687 1005h202v-1018h170v-155h-170v-334h-190zM267 489h514v762z" />
    <glyph glyph-name="five" unicode="5" horiz-adv-x="1227" vert-adv-y="1433" 
d="M97 311l187 56q26 -109 86 -168q77 -76 222 -76q167 0 247 125q59 93 59 244q0 182 -94 278q-80 82 -211 82q-186 0 -289 -147l-160 24l131 778h779v-168h-635l-74 -434q118 101 301 101q180 0 304 -104q153 -128 153 -393q0 -253 -132 -397q-137 -149 -380 -149
q-191 0 -312 81q-79 52 -123 127q-31 53 -59 140z" />
    <glyph glyph-name="six" unicode="6" horiz-adv-x="1227" vert-adv-y="1433" 
d="M1105 1264l-180 -66q-33 88 -89 133q-69 55 -183 55q-163 0 -253 -138q-91 -141 -108 -466q119 199 384 199q206 0 329 -123q129 -129 129 -372q0 -236 -133 -375q-141 -148 -384 -148q-319 0 -448 250q-90 173 -90 488q0 447 174 661q148 182 410 182q228 0 344 -117
q62 -64 98 -163zM625 825q-156 0 -245 -106q-80 -96 -80 -253q0 -153 79 -249q85 -104 233 -104q132 0 217 81q102 98 102 280q0 164 -80 258q-80 93 -226 93z" />
    <glyph glyph-name="seven" unicode="7" horiz-adv-x="1227" vert-adv-y="1433" 
d="M322 0q76 381 222 692q135 289 396 639h-802v176h993v-196q-240 -315 -368 -592q-143 -306 -228 -719h-213z" />
    <glyph glyph-name="eight" unicode="8" horiz-adv-x="1227" vert-adv-y="1433" 
d="M319 782q-215 113 -215 345q0 184 124 295q136 122 384 122q250 0 386 -122q124 -111 124 -295q0 -232 -215 -345q264 -111 264 -380q0 -136 -78 -244q-75 -106 -208 -151q-127 -44 -274 -44q-246 0 -393 108q-163 119 -163 337q0 265 264 374zM607 705q-165 0 -257 -84
q-86 -78 -86 -210q0 -133 85 -210q91 -84 262 -84q158 0 249 69q103 78 103 226q0 147 -108 227q-89 66 -248 66zM608 1393q-149 0 -230 -78q-75 -71 -75 -195q0 -125 75 -196q81 -78 231 -78t235 72q80 69 80 206q0 133 -92 206q-80 63 -224 63z" />
    <glyph glyph-name="nine" unicode="9" horiz-adv-x="1227" vert-adv-y="1433" 
d="M128 227l174 72q68 -178 272 -178q132 0 217 89q127 131 144 517q-54 -89 -139 -140q-105 -63 -241 -63q-210 0 -333 127q-129 134 -129 370q0 235 131 374q141 149 388 149q303 0 436 -231q100 -173 100 -511q0 -438 -170 -655q-144 -184 -403 -184q-353 0 -447 264z
M611 1395q-146 0 -232 -99q-83 -98 -83 -263t79 -258q81 -95 223 -95q150 0 241 100q85 94 85 267t-101 271q-80 77 -212 77z" />
    <glyph glyph-name="colon" unicode=":" horiz-adv-x="520" vert-adv-y="1433" 
d="M141 0v281h238v-281h-238zM141 801v280h238v-280h-238z" />
    <glyph glyph-name="semicolon" unicode=";" horiz-adv-x="520" vert-adv-y="1433" 
d="M180 -395l-82 82q70 73 99 123q47 78 47 163v27h-103v281h238v-267q0 -229 -199 -409zM141 801v280h238v-280h-238z" />
    <glyph glyph-name="less" unicode="&#x3c;" horiz-adv-x="1227" vert-adv-y="1433" 
d="M1161 178l-1095 469v168l1095 469v-174l-878 -379l878 -379v-174z" />
    <glyph glyph-name="equal" unicode="=" horiz-adv-x="1227" vert-adv-y="1433" 
d="M66 412v168h1095v-168h-1095zM66 883v168h1095v-168h-1095z" />
    <glyph glyph-name="greater" unicode="&#x3e;" horiz-adv-x="1227" vert-adv-y="1433" 
d="M66 178v174l878 379l-878 379v174l1095 -469v-168z" />
    <glyph glyph-name="question" unicode="?" horiz-adv-x="1116" vert-adv-y="1433" 
d="M389 0v276h229v-276h-229zM410 502v143q0 69 28 116q8 15 12 18l4 4q3 4 4 4q1 1 2 3q10 13 29 26q7 5 15 13q18 17 116 79q101 65 142 123q49 69 49 159q0 235 -266 235q-181 0 -253 -127q-28 -51 -46 -131l-187 27q77 387 496 387q231 0 354 -114q107 -100 107 -270
q0 -180 -142 -311q-58 -53 -134 -100q-29 -18 -64 -47q-26 -20 -53 -52q-23 -27 -23 -85v-100h-190z" />
    <glyph glyph-name="at" unicode="@" horiz-adv-x="1909" vert-adv-y="1433" 
d="M1096 477q-52 -62 -106 -95q-84 -52 -207 -52q-153 0 -237 92q-79 87 -79 235q0 132 60 263q65 142 180 228q115 87 254 87q179 0 253 -133l23 102h172l-129 -569q-14 -62 -14 -96q0 -80 99 -80q147 0 231 129q71 109 71 276q0 233 -170 398q-209 202 -536 202
q-317 0 -517 -194t-200 -506q0 -380 280 -566q174 -116 461 -116q208 0 377 59l43 -129q-189 -65 -422 -65q-291 0 -485 103q-146 78 -244 208q-158 210 -158 507q0 314 189 540q244 292 680 292q370 0 622 -229q130 -119 188 -279q40 -110 40 -231q0 -236 -129 -381
q-132 -149 -363 -149q-118 0 -172 49q-41 37 -55 100zM975 1098q-131 0 -222 -120q-52 -70 -79 -169q-23 -81 -23 -145q0 -197 180 -197q94 0 167 57q88 69 132 208q27 85 27 154q0 109 -53 163q-48 49 -129 49z" />
    <glyph glyph-name="A" unicode="A" horiz-adv-x="1427" vert-adv-y="1433" 
d="M0 0l582 1544h264l581 -1544h-221l-137 379h-731l-139 -379h-199zM406 557h598l-297 815z" />
    <glyph glyph-name="B" unicode="B" horiz-adv-x="1442" vert-adv-y="1433" 
d="M152 0v1544h645q258 0 380 -108q107 -96 107 -270q0 -227 -197 -332q117 -40 180 -107q91 -99 91 -274q0 -453 -588 -453h-618zM356 172h402q183 0 275 60q106 69 106 222q0 176 -131 241q-76 38 -228 38h-424v-561zM356 905h389q322 0 322 235q0 133 -91 188
q-74 44 -216 44h-404v-467z" />
    <glyph glyph-name="C" unicode="C" horiz-adv-x="1505" vert-adv-y="1433" 
d="M1415 1110l-209 -51q-39 137 -99 210q-110 134 -317 134q-239 0 -365 -189q-112 -168 -112 -462q0 -282 119 -442q126 -169 355 -169q166 0 282 93q121 96 156 315l213 -31q-52 -238 -168 -366q-173 -189 -488 -189q-282 0 -458 163q-228 210 -228 632q0 387 185 605
t515 218q501 0 619 -471z" />
    <glyph glyph-name="D" unicode="D" horiz-adv-x="1499" vert-adv-y="1433" 
d="M152 0v1544h487q383 0 573 -189q191 -191 191 -586q0 -203 -66 -378q-67 -180 -235 -284q-92 -56 -233 -85q-111 -22 -230 -22h-487zM360 178h289q277 0 414 171q121 150 121 429q0 276 -119 422q-135 166 -412 166h-293v-1188z" />
    <glyph glyph-name="E" unicode="E" horiz-adv-x="1337" vert-adv-y="1433" 
d="M152 0v1544h1073v-184h-865v-481h820v-185h-820v-510h900v-184h-1108z" />
    <glyph glyph-name="F" unicode="F" horiz-adv-x="1274" vert-adv-y="1433" 
d="M152 0v1544h1071v-184h-863v-475h775v-185h-775v-700h-208z" />
    <glyph glyph-name="G" unicode="G" horiz-adv-x="1528" vert-adv-y="1433" 
d="M1411 1139l-203 -52q-38 120 -88 181q-111 135 -332 135q-233 0 -360 -189q-115 -169 -115 -461q0 -282 119 -442q125 -168 354 -168q180 0 296 86q126 92 126 244v133h-250v172h457v-778h-135l-39 162q-172 -199 -469 -199q-275 0 -449 161q-227 210 -227 633
q0 386 187 606q187 218 518 218q490 0 610 -442z" />
    <glyph glyph-name="H" unicode="H" horiz-adv-x="1528" vert-adv-y="1433" 
d="M152 0v1544h208v-633h807v633h209v-1544h-209v723h-807v-723h-208z" />
    <glyph glyph-name="I" unicode="I" horiz-adv-x="510" vert-adv-y="1433" 
d="M152 0v1544h208v-1544h-208z" />
    <glyph glyph-name="J" unicode="J" horiz-adv-x="1178" vert-adv-y="1433" 
d="M55 444l201 23q34 -332 284 -332q154 0 223 93q66 89 66 261v1055h209v-1050q0 -531 -488 -531q-450 0 -495 481z" />
    <glyph glyph-name="K" unicode="K" horiz-adv-x="1407" vert-adv-y="1433" 
d="M152 0v1544h208v-715l717 715h256l-594 -596l676 -948h-270l-553 799l-232 -232v-567h-208z" />
    <glyph glyph-name="L" unicode="L" horiz-adv-x="1229" vert-adv-y="1433" 
d="M152 0v1544h208v-1360h830v-184h-1038z" />
    <glyph glyph-name="M" unicode="M" horiz-adv-x="1855" vert-adv-y="1433" 
d="M152 0v1544h319l453 -1321l471 1321h309v-1544h-199v1341l-481 -1341h-213l-461 1341v-1341h-198z" />
    <glyph glyph-name="N" unicode="N" horiz-adv-x="1511" vert-adv-y="1433" 
d="M152 0v1544h241l764 -1261v1261h203v-1544h-242l-764 1264v-1264h-202z" />
    <glyph glyph-name="O" unicode="O" horiz-adv-x="1636" vert-adv-y="1433" 
d="M817 1581q338 0 530 -213q193 -215 193 -596q0 -380 -193 -595q-193 -214 -525 -214q-306 0 -494 174q-232 216 -232 636q0 380 193 595q192 213 528 213zM817 1407q-240 0 -377 -182q-127 -170 -127 -453q0 -282 127 -453q137 -182 372 -182q222 0 356 150
q155 173 155 485q0 283 -128 453q-138 182 -378 182z" />
    <glyph glyph-name="P" unicode="P" horiz-adv-x="1358" vert-adv-y="1433" 
d="M152 0v1544h657q262 0 390 -157q97 -119 97 -315q0 -215 -143 -343q-143 -127 -385 -127h-412v-602h-204zM356 774h414q138 0 222 76q93 83 93 226q0 159 -103 236q-79 60 -206 60h-420v-598z" />
    <glyph glyph-name="Q" unicode="Q" horiz-adv-x="1636" vert-adv-y="1433" 
d="M1264 -250l-164 260q-133 -47 -282 -47q-336 0 -529 214q-193 215 -193 596q0 380 193 595q192 213 528 213q338 0 530 -213q193 -215 193 -596q0 -460 -287 -680l158 -248zM999 170l-180 285l146 96l182 -287q176 180 176 507q0 283 -128 454q-137 182 -378 182
q-240 0 -377 -182q-127 -170 -127 -453q0 -282 127 -453q137 -182 376 -182q94 0 183 33z" />
    <glyph glyph-name="R" unicode="R" horiz-adv-x="1434" vert-adv-y="1433" 
d="M152 0v1544h665q277 0 403 -149q50 -60 75 -153q20 -76 20 -149q0 -153 -81 -267q-73 -105 -202 -156l334 -670h-240l-301 635q-10 -2 -23 -2h-13h-13h-420v-633h-204zM356 805h420q150 0 231 66q91 73 91 221q0 280 -322 280h-420v-567z" />
    <glyph glyph-name="S" unicode="S" horiz-adv-x="1391" vert-adv-y="1433" 
d="M59 420l205 51q37 -144 102 -214q110 -118 333 -118q185 0 284 72q92 69 92 195q0 123 -76 183q-67 54 -206 79l-244 45q-449 83 -449 432q0 199 152 317q153 119 423 119q327 0 475 -163q82 -90 126 -236l-195 -64q-45 131 -116 196q-103 93 -296 93q-172 0 -264 -68
q-90 -66 -90 -184q0 -101 66 -162q69 -63 219 -90l279 -51q224 -41 325 -151q94 -104 94 -279q0 -210 -145 -329q-158 -130 -461 -130q-277 0 -433 119q-141 108 -200 338z" />
    <glyph glyph-name="T" unicode="T" horiz-adv-x="1391" vert-adv-y="1433" 
d="M590 0v1360h-547v184h1303v-184h-547v-1360h-209z" />
    <glyph glyph-name="U" unicode="U" horiz-adv-x="1485" vert-adv-y="1433" 
d="M139 1544h209v-956q0 -238 108 -348q96 -97 288 -97q207 0 303 119q88 109 88 326v956h208v-956q0 -286 -129 -441q-153 -184 -469 -184q-606 0 -606 625v956z" />
    <glyph glyph-name="V" unicode="V" horiz-adv-x="1343" vert-adv-y="1433" 
d="M541 0l-541 1544h219l457 -1349l454 1349h213l-544 -1544h-258z" />
    <glyph glyph-name="W" unicode="W" horiz-adv-x="1946" vert-adv-y="1433" 
d="M375 0l-375 1544h221l303 -1335l334 1335h227l324 -1335l320 1335h217l-398 -1544h-254l-325 1278l-340 -1278h-254z" />
    <glyph glyph-name="X" unicode="X" horiz-adv-x="1300" vert-adv-y="1433" 
d="M0 0l537 795l-498 749h233l381 -581l387 581h217l-493 -737l536 -807h-237l-418 639l-422 -639h-223z" />
    <glyph glyph-name="Y" unicode="Y" horiz-adv-x="1292" vert-adv-y="1433" 
d="M541 0v602l-541 942h225l430 -758l422 758h215l-540 -942v-602h-211z" />
    <glyph glyph-name="Z" unicode="Z" horiz-adv-x="1296" vert-adv-y="1433" 
d="M74 0v180l901 1180h-871v184h1108v-180l-901 -1180h918v-184h-1155z" />
    <glyph glyph-name="bracketleft" unicode="[" horiz-adv-x="655" vert-adv-y="1433" 
d="M152 -393v1937h440v-145h-250v-1647h250v-145h-440z" />
    <glyph glyph-name="backslash" unicode="\" horiz-adv-x="545" vert-adv-y="1433" 
d="M381 0l-381 1544h164l381 -1544h-164z" />
    <glyph glyph-name="bracketright" unicode="]" horiz-adv-x="655" vert-adv-y="1433" 
d="M66 -393v145h247v1647h-247v145h438v-1937h-438z" />
    <glyph glyph-name="asciicircum" unicode="^" horiz-adv-x="1245" vert-adv-y="1433" 
d="M119 797l418 747h172l417 -747h-190l-313 571l-314 -571h-190z" />
    <glyph glyph-name="underscore" unicode="_" horiz-adv-x="1024" vert-adv-y="1433" 
d="M0 -266v123h1024v-123h-1024z" />
    <glyph glyph-name="grave" unicode="`" horiz-adv-x="856" vert-adv-y="1433" 
d="M455 1272l-234 272h221l189 -272h-176z" />
    <glyph glyph-name="a" unicode="a" horiz-adv-x="1077" vert-adv-y="1433" 
d="M778 690v74q0 205 -237 205q-141 0 -207 -82q-31 -39 -53 -103l-172 45q31 110 105 178q121 111 336 111q419 0 419 -350v-567q0 -95 35 -201h-185q-21 62 -22 139q-75 -94 -160 -135q-83 -41 -214 -41q-153 0 -248 78q-103 85 -103 239q0 183 123 275q83 61 251 86z
M778 549l-291 -45q-129 -20 -184 -84q-41 -47 -41 -134q0 -85 55 -131q51 -44 140 -44q114 0 201 56q120 79 120 222v160z" />
    <glyph glyph-name="b" unicode="b" horiz-adv-x="1214" vert-adv-y="1433" 
d="M322 145l-5 -145h-186v1544h195v-622q120 196 362 196q208 0 327 -149q120 -150 120 -412q0 -263 -111 -417q-127 -177 -364 -177q-218 0 -338 182zM631 961q-151 0 -236 -130q-76 -115 -76 -301q0 -179 73 -288q83 -123 231 -123q119 0 195 69q114 104 114 355
q0 223 -94 334q-72 84 -207 84z" />
    <glyph glyph-name="c" unicode="c" horiz-adv-x="1094" vert-adv-y="1433" 
d="M1032 780l-188 -49q-30 112 -82 164q-64 66 -184 66q-145 0 -225 -119q-74 -109 -74 -302q0 -192 71 -298q78 -119 230 -119q222 0 278 250l186 -49q-103 -361 -462 -361q-230 0 -360 137q-142 149 -142 438q0 257 122 410q134 170 383 170q362 0 447 -338z" />
    <glyph glyph-name="d" unicode="d" horiz-adv-x="1212" vert-adv-y="1433" 
d="M887 940v604h194v-1544h-184l-4 160q-122 -197 -365 -197q-188 0 -304 120q-144 148 -144 437q0 265 109 420q125 178 359 178q212 0 339 -178zM587 961q-145 0 -224 -105q-82 -111 -82 -317q0 -198 72 -305q77 -115 228 -115q140 0 223 106q89 116 89 320q0 183 -72 292
q-82 124 -234 124z" />
    <glyph glyph-name="e" unicode="e" horiz-adv-x="1151" vert-adv-y="1433" 
d="M1079 496h-800q7 -127 40 -205q73 -170 279 -170q219 0 287 211l172 -64q-104 -305 -468 -305q-225 0 -358 135q-151 153 -151 440q0 259 125 413q136 167 385 167q266 0 392 -174q54 -73 79 -187q18 -84 18 -165v-96zM281 641h602q-16 328 -293 328q-161 0 -244 -125
q-50 -76 -65 -203z" />
    <glyph glyph-name="f" unicode="f" horiz-adv-x="637" vert-adv-y="1433" 
d="M193 0v928h-158v153h158v168q0 142 69 226q74 90 230 90q72 0 172 -17l-15 -159q-66 8 -103 8q-81 0 -120 -41q-39 -42 -39 -139v-136h248v-153h-248v-928h-194z" />
    <glyph glyph-name="g" unicode="g" horiz-adv-x="1214" vert-adv-y="1433" 
d="M129 -215l156 96q44 -71 105 -103q74 -38 196 -38q172 0 248 92q55 67 55 236v122q-123 -194 -363 -194q-210 0 -326 137q-120 141 -120 401q0 262 109 412q124 172 361 172q227 0 341 -184l4 147h188v-1038q0 -467 -491 -467q-253 0 -380 105q-57 47 -83 104zM582 961
q-157 0 -236 -120q-65 -100 -65 -294q0 -393 297 -393q151 0 234 105q81 103 81 307q0 202 -94 307q-80 88 -217 88z" />
    <glyph glyph-name="h" unicode="h" horiz-adv-x="1182" vert-adv-y="1433" 
d="M131 0v1544h195v-626q123 200 364 200q178 0 276 -109q85 -96 85 -259v-750h-195v698q0 260 -228 260q-145 0 -228 -128q-74 -115 -74 -285v-545h-195z" />
    <glyph glyph-name="i" unicode="i" horiz-adv-x="477" vert-adv-y="1433" 
d="M141 0v1081h195v-1081h-195zM141 1315v229h195v-229h-195z" />
    <glyph glyph-name="j" unicode="j" horiz-adv-x="489" vert-adv-y="1433" 
d="M-121 -401l21 159q56 -14 118 -14q78 0 108 38q28 35 28 107v1192h194v-1231q0 -274 -264 -274h-16q-101 0 -189 23zM154 1317v227h194v-227h-194z" />
    <glyph glyph-name="k" unicode="k" horiz-adv-x="1071" vert-adv-y="1433" 
d="M131 0v1544h195v-895l456 432h234l-393 -370l450 -711h-227l-365 580l-155 -146v-434h-195z" />
    <glyph glyph-name="l" unicode="l" horiz-adv-x="477" vert-adv-y="1433" 
d="M141 0v1544h195v-1544h-195z" />
    <glyph glyph-name="m" unicode="m" horiz-adv-x="1796" vert-adv-y="1433" 
d="M131 0v1081h191l2 -172q108 209 338 209q125 0 209 -67q67 -54 98 -150q109 217 354 217q167 0 259 -104q83 -95 83 -256v-758h-195v698q0 135 -59 201q-53 59 -143 59q-129 0 -205 -128q-68 -115 -68 -285v-545h-194v698q0 132 -60 201q-52 59 -143 59q-128 0 -204 -128
q-68 -115 -68 -285v-545h-195z" />
    <glyph glyph-name="n" unicode="n" horiz-adv-x="1184" vert-adv-y="1433" 
d="M131 0v1081h191l4 -176q55 97 131 150q92 63 234 63q179 0 277 -109q85 -96 85 -259v-750h-195v698q0 260 -227 260q-146 0 -230 -128q-75 -115 -75 -285v-545h-195z" />
    <glyph glyph-name="o" unicode="o" horiz-adv-x="1192" vert-adv-y="1433" 
d="M596 1118q252 0 390 -166q126 -152 126 -411q0 -258 -126 -411q-138 -167 -386 -167q-233 0 -369 138q-151 155 -151 440q0 259 125 411q138 166 391 166zM592 961q-154 0 -238 -121q-75 -110 -75 -299q0 -192 75 -300q84 -120 239 -120q151 0 236 108q84 106 84 318
q0 213 -101 325q-80 89 -220 89z" />
    <glyph glyph-name="p" unicode="p" horiz-adv-x="1214" vert-adv-y="1433" 
d="M131 -393v1474h186l5 -161q124 198 367 198q149 0 260 -84q186 -141 186 -480q0 -258 -111 -413q-127 -178 -360 -178q-214 0 -338 178v-534h-195zM630 961q-152 0 -236 -129q-75 -115 -75 -300q0 -179 73 -289q81 -122 229 -122q118 0 195 69q116 103 116 356
q0 415 -302 415z" />
    <glyph glyph-name="q" unicode="q" horiz-adv-x="1214" vert-adv-y="1433" 
d="M889 -393v549q-125 -193 -363 -193q-207 0 -326 148q-120 149 -120 411q0 266 109 419q126 177 358 177q222 0 344 -184l4 147h188v-1474h-194zM583 961q-141 0 -220 -105q-82 -109 -82 -316q0 -199 72 -304q77 -115 226 -115q142 0 225 106q89 115 89 322q0 211 -95 320
q-80 92 -215 92z" />
    <glyph glyph-name="r" unicode="r" horiz-adv-x="711" vert-adv-y="1433" 
d="M131 0v1081h188l7 -190q90 203 274 203q57 0 111 -13l-19 -166q-43 13 -96 13q-141 0 -209 -109q-61 -98 -61 -272v-547h-195z" />
    <glyph glyph-name="s" unicode="s" horiz-adv-x="1053" vert-adv-y="1433" 
d="M45 287l182 49q22 -99 72 -149q73 -74 218 -74q121 0 187 45q64 44 64 126q0 72 -44 109q-47 41 -136 58l-176 34q-328 63 -328 315q0 155 129 242q113 76 302 76q349 0 443 -282l-174 -56q-35 101 -105 149q-62 42 -177 42q-122 0 -184 -55q-42 -38 -42 -108
q0 -65 43 -103q43 -37 146 -58l215 -43q289 -58 289 -315q0 -145 -111 -232q-120 -94 -334 -94q-215 0 -337 94q-101 77 -142 230z" />
    <glyph glyph-name="t" unicode="t" horiz-adv-x="694" vert-adv-y="1433" 
d="M199 928h-144v153h144v308h194v-308h234v-153h-234v-639q0 -94 40 -125q25 -19 88 -19q37 0 114 9l14 -158q-91 -16 -203 -16q-247 0 -247 268v680z" />
    <glyph glyph-name="u" unicode="u" horiz-adv-x="1182" vert-adv-y="1433" 
d="M131 1081h195v-710q0 -246 225 -246q146 0 229 127q76 115 76 283v546h195v-1081h-189l-6 178q-56 -99 -127 -151q-88 -64 -231 -64q-146 0 -241 74q-126 98 -126 297v747z" />
    <glyph glyph-name="v" unicode="v" horiz-adv-x="1014" vert-adv-y="1433" 
d="M381 0l-381 1081h205l305 -917l307 917h197l-383 -1081h-250z" />
    <glyph glyph-name="w" unicode="w" horiz-adv-x="1559" vert-adv-y="1433" 
d="M309 0l-309 1081h203l235 -927l238 927h217l235 -927l240 927h191l-310 -1081h-248l-221 879l-221 -879h-250z" />
    <glyph glyph-name="x" unicode="x" horiz-adv-x="969" vert-adv-y="1433" 
d="M0 0l379 555l-354 526h215l247 -376l252 376h201l-352 -516l381 -565h-217l-273 414l-276 -414h-203z" />
    <glyph glyph-name="y" unicode="y" horiz-adv-x="1063" vert-adv-y="1433" 
d="M74 -395l32 157q66 -22 128 -22q71 0 112 34q38 33 64 99l49 127l-459 1081h209l344 -848l313 848h197l-477 -1265q-40 -106 -92 -158q-82 -82 -224 -82h-11q-85 0 -185 29z" />
    <glyph glyph-name="z" unicode="z" horiz-adv-x="975" vert-adv-y="1433" 
d="M59 0v145l611 783h-582v153h807v-145l-614 -782h637v-154h-859z" />
    <glyph glyph-name="braceleft" unicode="{" horiz-adv-x="895" vert-adv-y="1433" 
d="M117 500v151q99 14 139 38q72 43 72 136v465q0 153 82 213q57 41 163 41h205v-145h-131q-81 0 -112 -50q-21 -34 -21 -114v-444q0 -141 -94 -190q-34 -17 -92 -26q186 -25 186 -217v-442q0 -94 31 -129t102 -35h131v-145h-205q-245 0 -245 254v463q0 117 -113 155
q-28 10 -98 21z" />
    <glyph glyph-name="bar" unicode="|" horiz-adv-x="489" vert-adv-y="1433" 
d="M184 0v1544h162v-1544h-162z" />
    <glyph glyph-name="braceright" unicode="}" horiz-adv-x="895" vert-adv-y="1433" 
d="M119 -393v145h129q89 0 116 55q17 34 17 109v442q0 138 90 187q39 22 98 30q-188 28 -188 216v444q0 91 -29 125q-33 39 -104 39h-129v145h205q132 0 191 -68q54 -61 54 -186v-465q0 -105 95 -147q39 -18 116 -27v-151q-82 -10 -123 -30q-88 -44 -88 -146v-463
q0 -254 -245 -254h-205z" />
    <glyph glyph-name="asciitilde" unicode="~" horiz-adv-x="1468" vert-adv-y="1433" 
d="M672 584v0q-4 2 -17 16l-6 7l-5 5q-3 4 -12 13q-3 3 -4 3q-6 5 -7 7v0q-4 1 -11 10q-14 19 -59 50q-41 28 -93 28q-88 0 -135 -102q-28 -61 -51 -181l-149 39q31 177 93 269q90 133 245 133q118 0 231 -84q69 -51 99 -83q46 -49 61 -59q47 -43 74 -59q37 -21 83 -21
q97 0 144 112q26 62 43 169l152 -39q-31 -175 -92 -267q-89 -134 -243 -134q-99 0 -186 46q-73 38 -155 122z" />
    <glyph glyph-name="Adieresis" unicode="&#xc4;" horiz-adv-x="1427" vert-adv-y="1433" 
d="M0 0l582 1544h264l581 -1544h-221l-137 379h-731l-139 -379h-199zM406 557h598l-297 815zM430 1678v229h183v-229h-183zM826 1678v229h182v-229h-182z" />
    <glyph glyph-name="Aring" unicode="&#xc5;" horiz-adv-x="1427" vert-adv-y="1433" 
d="M574 1523q-114 58 -114 197q0 109 76 170q66 52 178 52q132 0 198 -80q48 -58 48 -146q0 -133 -107 -190l574 -1526h-221l-137 379h-731l-139 -379h-199zM406 557h598l-297 815zM708 1850q-76 0 -114 -48q-27 -33 -27 -84q0 -55 36 -91q38 -39 106 -39q66 0 106 36
q38 35 38 97q0 61 -46 98q-38 31 -99 31z" />
    <glyph glyph-name="Ccedilla" unicode="&#xc7;" horiz-adv-x="1505" vert-adv-y="1433" 
d="M1415 1110l-209 -51q-39 137 -99 210q-110 134 -317 134q-239 0 -365 -189q-112 -168 -112 -462q0 -282 119 -442q126 -169 355 -169q166 0 282 93q121 96 156 315l213 -31q-52 -238 -168 -366q-173 -189 -488 -189q-282 0 -458 163q-228 210 -228 632q0 387 185 605
t515 218q501 0 619 -471zM492 -393q120 178 202 272h166l-159 -272h-209z" />
    <glyph glyph-name="Eacute" unicode="&#xc9;" horiz-adv-x="1337" vert-adv-y="1433" 
d="M152 0v1544h1073v-184h-865v-481h820v-185h-820v-510h900v-184h-1108zM560 1659l189 272h221l-234 -272h-176z" />
    <glyph glyph-name="Ntilde" unicode="&#xd1;" horiz-adv-x="1511" vert-adv-y="1433" 
d="M152 0v1544h241l764 -1261v1261h203v-1544h-242l-764 1264v-1264h-202zM505 1683l-127 31q46 207 214 207q70 0 165 -49l68 -35q60 -31 98 -31q64 0 90 101l129 -31q-22 -94 -71 -148q-57 -61 -140 -61h-7q-43 0 -85 14q-25 8 -84 39l-59 31q-59 31 -95 31q-66 0 -96 -99
z" />
    <glyph glyph-name="Odieresis" unicode="&#xd6;" horiz-adv-x="1636" vert-adv-y="1433" 
d="M817 1581q338 0 530 -213q193 -215 193 -596q0 -380 -193 -595q-193 -214 -525 -214q-306 0 -494 174q-232 216 -232 636q0 380 193 595q192 213 528 213zM817 1407q-240 0 -377 -182q-127 -170 -127 -453q0 -282 127 -453q137 -182 372 -182q222 0 356 150
q155 173 155 485q0 283 -128 453q-138 182 -378 182zM530 1678v229h183v-229h-183zM926 1678v229h182v-229h-182z" />
    <glyph glyph-name="Udieresis" unicode="&#xdc;" horiz-adv-x="1485" vert-adv-y="1433" 
d="M139 1544h209v-956q0 -238 108 -348q96 -97 288 -97q207 0 303 119q88 109 88 326v956h208v-956q0 -286 -129 -441q-153 -184 -469 -184q-606 0 -606 625v956zM451 1678v229h183v-229h-183zM847 1678v229h182v-229h-182z" />
    <glyph glyph-name="aacute" unicode="&#xe1;" horiz-adv-x="1077" vert-adv-y="1433" 
d="M778 690v74q0 205 -237 205q-141 0 -207 -82q-31 -39 -53 -103l-172 45q31 110 105 178q121 111 336 111q419 0 419 -350v-567q0 -95 35 -201h-185q-21 62 -22 139q-75 -94 -160 -135q-83 -41 -214 -41q-153 0 -248 78q-103 85 -103 239q0 183 123 275q83 61 251 86z
M778 549l-291 -45q-129 -20 -184 -84q-41 -47 -41 -134q0 -85 55 -131q51 -44 140 -44q114 0 201 56q120 79 120 222v160zM430 1272l189 272h221l-234 -272h-176z" />
    <glyph glyph-name="agrave" unicode="&#xe0;" horiz-adv-x="1077" vert-adv-y="1433" 
d="M778 690v74q0 205 -237 205q-141 0 -207 -82q-31 -39 -53 -103l-172 45q31 110 105 178q121 111 336 111q419 0 419 -350v-567q0 -95 35 -201h-185q-21 62 -22 139q-75 -94 -160 -135q-83 -41 -214 -41q-153 0 -248 78q-103 85 -103 239q0 183 123 275q83 61 251 86z
M778 549l-291 -45q-129 -20 -184 -84q-41 -47 -41 -134q0 -85 55 -131q51 -44 140 -44q114 0 201 56q120 79 120 222v160zM549 1272l-234 272h221l189 -272h-176z" />
    <glyph glyph-name="acircumflex" unicode="&#xe2;" horiz-adv-x="1077" vert-adv-y="1433" 
d="M778 690v74q0 205 -237 205q-141 0 -207 -82q-31 -39 -53 -103l-172 45q31 110 105 178q121 111 336 111q419 0 419 -350v-567q0 -95 35 -201h-185q-21 62 -22 139q-75 -94 -160 -135q-83 -41 -214 -41q-153 0 -248 78q-103 85 -103 239q0 183 123 275q83 61 251 86z
M778 549l-291 -45q-129 -20 -184 -84q-41 -47 -41 -134q0 -85 55 -131q51 -44 140 -44q114 0 201 56q120 79 120 222v160zM212 1272l248 272h200l248 -272h-184l-164 160l-164 -160h-184z" />
    <glyph glyph-name="adieresis" unicode="&#xe4;" horiz-adv-x="1077" vert-adv-y="1433" 
d="M778 690v74q0 205 -237 205q-141 0 -207 -82q-31 -39 -53 -103l-172 45q31 110 105 178q121 111 336 111q419 0 419 -350v-567q0 -95 35 -201h-185q-21 62 -22 139q-75 -94 -160 -135q-83 -41 -214 -41q-153 0 -248 78q-103 85 -103 239q0 183 123 275q83 61 251 86z
M778 549l-291 -45q-129 -20 -184 -84q-41 -47 -41 -134q0 -85 55 -131q51 -44 140 -44q114 0 201 56q120 79 120 222v160zM261 1295v229h183v-229h-183zM657 1295v229h182v-229h-182z" />
    <glyph glyph-name="atilde" unicode="&#xe3;" horiz-adv-x="1077" vert-adv-y="1433" 
d="M778 690v74q0 205 -237 205q-141 0 -207 -82q-31 -39 -53 -103l-172 45q31 110 105 178q121 111 336 111q419 0 419 -350v-567q0 -95 35 -201h-185q-21 62 -22 139q-75 -94 -160 -135q-83 -41 -214 -41q-153 0 -248 78q-103 85 -103 239q0 183 123 275q83 61 251 86z
M778 549l-291 -45q-129 -20 -184 -84q-41 -47 -41 -134q0 -85 55 -131q51 -44 140 -44q114 0 201 56q120 79 120 222v160zM296 1300l-127 31q46 207 213 207q71 0 166 -49l68 -35q60 -31 98 -31q63 0 90 101l129 -31q-22 -94 -72 -148q-57 -61 -138 -61q-42 0 -81 10
q-31 8 -96 43l-59 31q-59 31 -95 31q-65 0 -96 -99z" />
    <glyph glyph-name="aring" unicode="&#xe5;" horiz-adv-x="1077" vert-adv-y="1433" 
d="M778 690v74q0 205 -237 205q-141 0 -207 -82q-31 -39 -53 -103l-172 45q31 110 105 178q121 111 336 111q419 0 419 -350v-567q0 -95 35 -201h-185q-21 62 -22 139q-75 -94 -160 -135q-83 -41 -214 -41q-153 0 -248 78q-103 85 -103 239q0 183 123 275q83 61 251 86z
M778 549l-291 -45q-129 -20 -184 -84q-41 -47 -41 -134q0 -85 55 -131q51 -44 140 -44q114 0 201 56q120 79 120 222v160zM558 1621q126 0 189 -76q45 -55 45 -137q0 -92 -59 -150q-63 -62 -177 -62q-106 0 -168 52q-71 58 -71 162q0 103 73 161q62 50 168 50zM553 1529
q-69 0 -105 -44q-24 -30 -24 -77q0 -50 32 -83q36 -35 97 -35t97 33q35 32 35 88t-42 90q-35 28 -90 28z" />
    <glyph glyph-name="ccedilla" unicode="&#xe7;" horiz-adv-x="1094" vert-adv-y="1433" 
d="M1032 780l-188 -49q-30 112 -82 164q-64 66 -184 66q-145 0 -225 -119q-74 -109 -74 -302q0 -192 71 -298q78 -119 230 -119q222 0 278 250l186 -49q-103 -361 -462 -361q-230 0 -360 137q-142 149 -142 438q0 257 122 410q134 170 383 170q362 0 447 -338zM318 -393l4 6
q123 181 198 266h166l-159 -272h-209z" />
    <glyph glyph-name="eacute" unicode="&#xe9;" horiz-adv-x="1151" vert-adv-y="1433" 
d="M1079 496h-800q7 -127 40 -205q73 -170 279 -170q219 0 287 211l172 -64q-104 -305 -468 -305q-225 0 -358 135q-151 153 -151 440q0 259 125 413q136 167 385 167q266 0 392 -174q54 -73 79 -187q18 -84 18 -165v-96zM281 641h602q-16 328 -293 328q-161 0 -244 -125
q-50 -76 -65 -203zM475 1272l189 272h221l-234 -272h-176z" />
    <glyph glyph-name="egrave" unicode="&#xe8;" horiz-adv-x="1151" vert-adv-y="1433" 
d="M1079 496h-800q7 -127 40 -205q73 -170 279 -170q219 0 287 211l172 -64q-104 -305 -468 -305q-225 0 -358 135q-151 153 -151 440q0 259 125 413q136 167 385 167q266 0 392 -174q54 -73 79 -187q18 -84 18 -165v-96zM281 641h602q-16 328 -293 328q-161 0 -244 -125
q-50 -76 -65 -203zM587 1272l-234 272h221l189 -272h-176z" />
    <glyph glyph-name="ecircumflex" unicode="&#xea;" horiz-adv-x="1151" vert-adv-y="1433" 
d="M1079 496h-800q7 -127 40 -205q73 -170 279 -170q219 0 287 211l172 -64q-104 -305 -468 -305q-225 0 -358 135q-151 153 -151 440q0 259 125 413q136 167 385 167q266 0 392 -174q54 -73 79 -187q18 -84 18 -165v-96zM281 641h602q-16 328 -293 328q-161 0 -244 -125
q-50 -76 -65 -203zM246 1272l248 272h200l248 -272h-184l-164 160l-164 -160h-184z" />
    <glyph glyph-name="edieresis" unicode="&#xeb;" horiz-adv-x="1151" vert-adv-y="1433" 
d="M1079 496h-800q7 -127 40 -205q73 -170 279 -170q219 0 287 211l172 -64q-104 -305 -468 -305q-225 0 -358 135q-151 153 -151 440q0 259 125 413q136 167 385 167q266 0 392 -174q54 -73 79 -187q18 -84 18 -165v-96zM281 641h602q-16 328 -293 328q-161 0 -244 -125
q-50 -76 -65 -203zM291 1295v229h183v-229h-183zM687 1295v229h182v-229h-182z" />
    <glyph glyph-name="iacute" unicode="&#xed;" horiz-adv-x="477" vert-adv-y="1433" 
d="M141 0v1081h195v-1081h-195zM153 1272l189 272h221l-234 -272h-176z" />
    <glyph glyph-name="igrave" unicode="&#xec;" horiz-adv-x="477" vert-adv-y="1433" 
d="M141 0v1081h195v-1081h-195zM161 1272l-234 272h221l189 -272h-176z" />
    <glyph glyph-name="icircumflex" unicode="&#xee;" horiz-adv-x="477" vert-adv-y="1433" 
d="M141 0v1081h195v-1081h-195zM-112 1272l248 272h200l248 -272h-184l-164 160l-164 -160h-184z" />
    <glyph glyph-name="idieresis" unicode="&#xef;" horiz-adv-x="477" vert-adv-y="1433" 
d="M141 0v1081h195v-1081h-195zM-47 1295v229h183v-229h-183zM349 1295v229h182v-229h-182z" />
    <glyph glyph-name="ntilde" unicode="&#xf1;" horiz-adv-x="1184" vert-adv-y="1433" 
d="M131 0v1081h191l4 -176q55 97 131 150q92 63 234 63q179 0 277 -109q85 -96 85 -259v-750h-195v698q0 260 -227 260q-146 0 -230 -128q-75 -115 -75 -285v-545h-195zM346 1300l-127 31q46 207 213 207q71 0 166 -49l68 -35q60 -31 98 -31q63 0 90 101l129 -31
q-22 -94 -72 -148q-57 -61 -138 -61q-42 0 -81 10q-31 8 -96 43l-59 31q-59 31 -95 31q-65 0 -96 -99z" />
    <glyph glyph-name="oacute" unicode="&#xf3;" horiz-adv-x="1192" vert-adv-y="1433" 
d="M596 1118q252 0 390 -166q126 -152 126 -411q0 -258 -126 -411q-138 -167 -386 -167q-233 0 -369 138q-151 155 -151 440q0 259 125 411q138 166 391 166zM592 961q-154 0 -238 -121q-75 -110 -75 -299q0 -192 75 -300q84 -120 239 -120q151 0 236 108q84 106 84 318
q0 213 -101 325q-80 89 -220 89zM472 1272l189 272h221l-234 -272h-176z" />
    <glyph glyph-name="ograve" unicode="&#xf2;" horiz-adv-x="1192" vert-adv-y="1433" 
d="M596 1118q252 0 390 -166q126 -152 126 -411q0 -258 -126 -411q-138 -167 -386 -167q-233 0 -369 138q-151 155 -151 440q0 259 125 411q138 166 391 166zM592 961q-154 0 -238 -121q-75 -110 -75 -299q0 -192 75 -300q84 -120 239 -120q151 0 236 108q84 106 84 318
q0 213 -101 325q-80 89 -220 89zM575 1272l-234 272h221l189 -272h-176z" />
    <glyph glyph-name="ocircumflex" unicode="&#xf4;" horiz-adv-x="1192" vert-adv-y="1433" 
d="M596 1118q252 0 390 -166q126 -152 126 -411q0 -258 -126 -411q-138 -167 -386 -167q-233 0 -369 138q-151 155 -151 440q0 259 125 411q138 166 391 166zM592 961q-154 0 -238 -121q-75 -110 -75 -299q0 -192 75 -300q84 -120 239 -120q151 0 236 108q84 106 84 318
q0 213 -101 325q-80 89 -220 89zM246 1272l248 272h200l248 -272h-184l-164 160l-164 -160h-184z" />
    <glyph glyph-name="odieresis" unicode="&#xf6;" horiz-adv-x="1192" vert-adv-y="1433" 
d="M596 1118q252 0 390 -166q126 -152 126 -411q0 -258 -126 -411q-138 -167 -386 -167q-233 0 -369 138q-151 155 -151 440q0 259 125 411q138 166 391 166zM592 961q-154 0 -238 -121q-75 -110 -75 -299q0 -192 75 -300q84 -120 239 -120q151 0 236 108q84 106 84 318
q0 213 -101 325q-80 89 -220 89zM311 1295v229h183v-229h-183zM707 1295v229h182v-229h-182z" />
    <glyph glyph-name="otilde" unicode="&#xf5;" horiz-adv-x="1192" vert-adv-y="1433" 
d="M596 1118q252 0 390 -166q126 -152 126 -411q0 -258 -126 -411q-138 -167 -386 -167q-233 0 -369 138q-151 155 -151 440q0 259 125 411q138 166 391 166zM592 961q-154 0 -238 -121q-75 -110 -75 -299q0 -192 75 -300q84 -120 239 -120q151 0 236 108q84 106 84 318
q0 213 -101 325q-80 89 -220 89zM350 1300l-127 31q46 207 213 207q71 0 166 -49l68 -35q60 -31 98 -31q63 0 90 101l129 -31q-22 -94 -72 -148q-57 -61 -138 -61q-42 0 -81 10q-31 8 -96 43l-59 31q-59 31 -95 31q-65 0 -96 -99z" />
    <glyph glyph-name="uacute" unicode="&#xfa;" horiz-adv-x="1182" vert-adv-y="1433" 
d="M131 1081h195v-710q0 -246 225 -246q146 0 229 127q76 115 76 283v546h195v-1081h-189l-6 178q-56 -99 -127 -151q-88 -64 -231 -64q-146 0 -241 74q-126 98 -126 297v747zM467 1272l189 272h221l-234 -272h-176z" />
    <glyph glyph-name="ugrave" unicode="&#xf9;" horiz-adv-x="1182" vert-adv-y="1433" 
d="M131 1081h195v-710q0 -246 225 -246q146 0 229 127q76 115 76 283v546h195v-1081h-189l-6 178q-56 -99 -127 -151q-88 -64 -231 -64q-146 0 -241 74q-126 98 -126 297v747zM562 1272l-234 272h221l189 -272h-176z" />
    <glyph glyph-name="ucircumflex" unicode="&#xfb;" horiz-adv-x="1182" vert-adv-y="1433" 
d="M131 1081h195v-710q0 -246 225 -246q146 0 229 127q76 115 76 283v546h195v-1081h-189l-6 178q-56 -99 -127 -151q-88 -64 -231 -64q-146 0 -241 74q-126 98 -126 297v747zM241 1272l248 272h200l248 -272h-184l-164 160l-164 -160h-184z" />
    <glyph glyph-name="udieresis" unicode="&#xfc;" horiz-adv-x="1182" vert-adv-y="1433" 
d="M131 1081h195v-710q0 -246 225 -246q146 0 229 127q76 115 76 283v546h195v-1081h-189l-6 178q-56 -99 -127 -151q-88 -64 -231 -64q-146 0 -241 74q-126 98 -126 297v747zM302 1295v229h183v-229h-183zM698 1295v229h182v-229h-182z" />
    <glyph glyph-name="dagger" unicode="&#x2020;" horiz-adv-x="1143" vert-adv-y="1433" 
d="M479 -197v1123h-360v172h358v446h187v-446h360v-172h-358v-1123h-187z" />
    <glyph glyph-name="degree" unicode="&#xb0;" horiz-adv-x="881" vert-adv-y="1433" 
d="M441 1565q148 0 253 -105t105 -254t-105 -252q-106 -104 -252 -104q-134 0 -235 86q-125 105 -125 270q0 149 104 254q105 105 255 105zM438 1434q-102 0 -166 -85q-47 -60 -47 -145q0 -91 64 -159q62 -66 150 -66q86 0 150 61q68 67 68 169q0 105 -81 174
q-60 51 -138 51z" />
    <glyph glyph-name="cent" unicode="&#xa2;" horiz-adv-x="1094" vert-adv-y="1433" 
d="M518 -37v193q-200 19 -313 153q-125 149 -125 419q0 280 141 435q111 122 297 142v192h125v-190q166 -18 259 -102q91 -81 130 -234l-182 -45q-33 116 -83 165q-46 47 -124 62v-842q94 18 147 80q51 61 74 168l180 -45q-92 -323 -401 -358v-193h-125zM518 311v842
q-246 -54 -246 -427q0 -198 78 -308q61 -86 168 -107z" />
    <glyph glyph-name="sterling" unicode="&#xa3;" horiz-adv-x="1231" vert-adv-y="1433" 
d="M76 0v164q153 71 244 169q104 113 104 253v20h-270v142h227q-15 26 -34 52q-6 9 -21 30q-9 12 -21 29q-5 7 -12 18q-12 17 -37 51q-90 122 -90 258q0 162 106 268q127 127 366 127q244 0 373 -115q89 -81 136 -233l-180 -55q-33 108 -98 169q-81 76 -228 76
q-126 0 -200 -59q-79 -65 -79 -175q0 -113 126 -260q75 -88 108 -181h365v-142h-347q-5 -129 -65 -231q-59 -101 -193 -205h815v-170h-1095z" />
    <glyph glyph-name="section" unicode="&#xa7;" horiz-adv-x="1137" vert-adv-y="1433" 
d="M74 90l180 60q44 -101 107 -151q78 -62 215 -62q260 0 260 176q0 76 -60 124q-47 37 -145 62l-203 51q-184 46 -266 123q-76 73 -76 189q0 195 219 292q-108 40 -161 101q-58 67 -58 179q0 167 135 256q114 75 316 75q238 0 363 -113q70 -63 110 -178l-174 -64
q-32 85 -83 133q-77 72 -221 72q-116 0 -183 -43q-68 -43 -68 -131q0 -69 54 -107q42 -30 142 -55l256 -65q187 -47 257 -144q44 -62 44 -160q0 -196 -221 -292q119 -48 174 -116t55 -183q0 -168 -141 -259q-120 -77 -333 -77q-385 0 -494 307zM618 479q84 10 145 53
q85 59 85 148q0 138 -197 184l-143 33q-94 -11 -161 -62q-73 -55 -73 -144q0 -72 48 -114t151 -65z" />
    <glyph glyph-name="bullet" unicode="&#x2022;" horiz-adv-x="928" vert-adv-y="1433" 
d="M465 1157q163 0 266 -123q80 -97 80 -226q0 -139 -102 -241t-242 -102q-131 0 -228 84q-120 103 -120 262q0 145 100 245q101 101 246 101z" />
    <glyph glyph-name="paragraph" unicode="&#xb6;" horiz-adv-x="1454" vert-adv-y="1433" 
d="M678 -393v952h-82q-232 0 -375 133q-147 135 -147 364q0 226 128 356q129 132 353 132h842v-145h-137v-1792h-150v1792h-283v-1792h-149z" />
    <glyph glyph-name="germandbls" unicode="&#xdf;" horiz-adv-x="1214" vert-adv-y="1433" 
d="M506 -2l14 162q53 -13 106 -13q149 0 228 83q78 82 78 230q0 167 -100 238q-96 70 -300 70h-22v168h22q181 0 264 100q54 64 54 169q0 113 -81 168q-64 42 -174 42q-269 0 -269 -352v-1063h-195v1063q0 291 148 404q127 98 331 98q208 0 333 -106q104 -89 104 -242
q0 -248 -250 -349q338 -41 338 -413q0 -207 -122 -339q-125 -134 -335 -134q-98 0 -172 16z" />
    <glyph glyph-name="registered" unicode="&#xae;" horiz-adv-x="1808" vert-adv-y="1433" 
d="M586 350v848h368q146 0 220 -67q73 -67 73 -183q0 -170 -155 -237l188 -361h-170l-164 334h-14h-199v-334h-147zM733 807h193q164 0 164 136q0 132 -164 132h-193v-268zM905 1581q219 0 408 -111q182 -106 290 -290q109 -187 109 -408q0 -220 -109 -408
q-108 -185 -290 -291q-190 -110 -406 -110q-313 0 -544 208q-125 114 -195 267q-72 160 -72 334q0 220 110 408q108 184 291 290q190 111 408 111zM905 1442q-266 0 -456 -196q-191 -197 -191 -474t191 -474q89 -92 206 -143q118 -53 247 -53q256 0 443 182q109 106 159 242
q46 123 46 250q0 177 -89 335q-85 150 -232 239q-152 92 -324 92z" />
    <glyph glyph-name="copyright" unicode="&#xa9;" horiz-adv-x="1808" vert-adv-y="1433" 
d="M1237 948l-152 -39q-20 73 -55 113q-51 57 -145 57q-128 0 -189 -108q-43 -75 -43 -208q0 -132 58 -210q61 -82 171 -82q177 0 212 199l157 -23v2q-31 -138 -98 -211q-98 -106 -274 -106q-157 0 -257 90q-128 115 -128 346q0 210 103 329q105 120 289 120q286 0 351 -269
zM905 1581q219 0 408 -111q182 -106 290 -290q109 -187 109 -408q0 -220 -109 -408q-108 -185 -290 -291q-190 -110 -406 -110q-313 0 -544 208q-125 114 -195 267q-72 160 -72 334q0 220 110 408q108 184 291 290q190 111 408 111zM905 1442q-266 0 -456 -196
q-191 -197 -191 -474t191 -474q89 -92 206 -143q118 -53 247 -53q256 0 443 182q109 106 159 242q46 123 46 250q0 177 -89 335q-85 150 -232 239q-152 92 -324 92z" />
    <glyph glyph-name="trademark" unicode="&#x2122;" horiz-adv-x="1923" vert-adv-y="1433" 
d="M326 694v721h-291v129h735v-129h-291v-721h-153zM903 694v850h201l244 -676l258 676h188v-850h-147v613l-232 -613h-141l-223 621v-621h-148z" />
    <glyph glyph-name="acute" unicode="&#xb4;" horiz-adv-x="856" vert-adv-y="1433" 
d="M223 1272l189 272h221l-234 -272h-176z" />
    <glyph glyph-name="dieresis" unicode="&#xa8;" horiz-adv-x="856" vert-adv-y="1433" 
d="M139 1295v229h183v-229h-183zM535 1295v229h182v-229h-182z" />
    <glyph glyph-name="notequal" unicode="&#x2260;" horiz-adv-x="1227" vert-adv-y="1433" 
d="M207 147l145 265h-286v166h374l172 307h-546v166h634l146 264h174l-146 -264h287v-166h-375l-172 -307h547v-166h-635l-145 -265h-174z" />
    <glyph glyph-name="AE" unicode="&#xc6;" horiz-adv-x="2318" vert-adv-y="1433" 
d="M-20 0l1001 1544h1225v-184h-863v-481h818v-185h-818v-510h898v-184h-1106v389h-680l-252 -389h-223zM569 565h566v797h-48z" />
    <glyph glyph-name="Oslash" unicode="&#xd8;" horiz-adv-x="1636" vert-adv-y="1433" 
d="M297 -156l-123 84l143 219q-221 223 -221 624q0 382 193 597q192 213 528 213q216 0 385 -94l139 213l123 -86l-143 -219q219 -226 219 -623q0 -380 -193 -595q-193 -214 -529 -214q-209 0 -382 94zM1206 1223l-665 -1008q114 -82 277 -82q218 0 355 151q158 175 158 488
q0 270 -125 451zM432 319l664 1010q-120 82 -278 82q-244 0 -384 -184q-129 -170 -129 -455q0 -276 127 -453z" />
    <glyph glyph-name="glyph146" vert-adv-y="1433" 
 />
    <glyph glyph-name="plusminus" unicode="&#xb1;" horiz-adv-x="1227" vert-adv-y="1433" 
d="M66 0v164h460v444h-460v164h460v471h174v-471h461v-164h-461v-444h461v-164h-1095z" />
    <glyph glyph-name="lessequal" unicode="&#x2264;" horiz-adv-x="1227" vert-adv-y="1433" 
d="M66 0v168h1095v-168h-1095zM1161 262l-1095 426v168l1095 426v-172l-878 -338l878 -336v-174z" />
    <glyph glyph-name="greaterequal" unicode="&#x2265;" horiz-adv-x="1227" vert-adv-y="1433" 
d="M66 0v168h1095v-168h-1095zM66 262v174l878 336l-878 338v172l1095 -426v-168z" />
    <glyph glyph-name="yen" unicode="&#xa5;" horiz-adv-x="1292" vert-adv-y="1433" 
d="M545 0v301h-312v125h312v176h-312v125h236l-469 817h213l440 -776l432 776h207l-469 -817h236v-125h-311v-176h311v-125h-311v-301h-203z" />
    <glyph glyph-name="mu" unicode="&#xb5;" horiz-adv-x="1182" vert-adv-y="1433" 
d="M131 -393v1474h195v-710q0 -246 225 -246q146 0 229 127q76 115 76 283v546h195v-1081h-189l-6 178q-48 -93 -108 -143q-86 -72 -215 -72q-79 0 -145 33q-40 20 -62 51v-440h-195z" />
    <glyph glyph-name="glyph152" vert-adv-y="1433" 
 />
    <glyph glyph-name="glyph153" vert-adv-y="1433" 
 />
    <glyph glyph-name="glyph154" vert-adv-y="1433" 
 />
    <glyph glyph-name="pi" unicode="&#x3c0;" horiz-adv-x="1243" vert-adv-y="1433" 
d="M1212 1081v-171h-151v-910h-195v910h-489v-910h-195v910h-150v171h1180z" />
    <glyph glyph-name="glyph156" vert-adv-y="1433" 
 />
    <glyph glyph-name="ordfeminine" unicode="&#xaa;" horiz-adv-x="862" vert-adv-y="1433" 
d="M582 1296v29q0 125 -158 125q-103 0 -149 -50q-17 -19 -35 -54l-131 30q62 189 320 189q302 0 302 -228v-358q0 -84 23 -141h-142q-12 22 -16 86q-44 -54 -104 -81q-61 -28 -162 -28q-111 0 -175 51q-71 56 -71 157q0 111 66 169q65 57 196 74zM582 1188l-203 -31
q-69 -11 -108 -39q-40 -27 -40 -86q0 -104 135 -104q88 0 150 43q66 46 66 133v84z" />
    <glyph glyph-name="ordmasculine" unicode="&#xba;" horiz-adv-x="938" vert-adv-y="1433" 
d="M469 1565q202 0 300 -132q71 -96 71 -247q0 -163 -91 -262q-99 -109 -278 -109q-166 0 -265 90q-108 99 -108 285q0 169 90 267q100 108 281 108zM465 1440q-118 0 -173 -88q-38 -60 -38 -165q0 -111 50 -176q56 -73 163 -73q105 0 161 67q54 63 54 188q0 127 -67 194
q-53 53 -150 53z" />
    <glyph glyph-name="glyph159" vert-adv-y="1433" 
 />
    <glyph glyph-name="ae" unicode="&#xe6;" horiz-adv-x="1837" vert-adv-y="1433" 
d="M778 690v74q0 205 -236 205q-146 0 -210 -83q-28 -37 -51 -102l-172 45q84 289 437 289q154 0 247 -53q76 -43 120 -127q118 180 368 180q261 0 387 -174q54 -73 79 -187q18 -84 18 -165v-96h-800q7 -128 40 -205q73 -170 279 -170q219 0 287 211l172 -64
q-104 -305 -469 -305q-294 0 -410 215q-151 -215 -438 -215q-153 0 -248 78q-106 86 -106 240q0 182 123 274q83 61 251 86zM778 549l-291 -45q-129 -20 -184 -84q-41 -47 -41 -134q0 -85 55 -131q51 -44 140 -44q114 0 201 56q120 79 120 222v160zM967 641h602
q-16 328 -293 328q-161 0 -244 -125q-50 -76 -65 -203z" />
    <glyph glyph-name="oslash" unicode="&#xf8;" horiz-adv-x="1192" vert-adv-y="1433" 
d="M221 -127l-106 68l112 165q-147 158 -147 434q0 260 125 412q138 166 390 166q159 0 273 -65l105 153l106 -67l-112 -166q145 -160 145 -432q0 -258 -126 -411q-138 -167 -390 -167q-152 0 -270 66zM860 813l-440 -647q76 -49 177 -49q145 0 228 99q95 114 95 325
q0 164 -60 272zM334 262l440 649q-74 54 -178 54q-161 0 -246 -122q-78 -111 -78 -303q0 -163 62 -278z" />
    <glyph glyph-name="questiondown" unicode="&#xbf;" horiz-adv-x="1116" vert-adv-y="1433" 
d="M414 392q3 4 8 8q3 2 6 7q18 13 42 39.5t30 38.5q16 24 16 61v100h191v-143q0 -80 -39 -133q-6 -4 -11 -11l-2 -1q-29 -34 -141 -107q-110 -72 -151 -120q-60 -72 -60 -173q0 -235 268 -235q178 0 251 125q29 50 48 133l187 -27q-77 -387 -496 -387q-210 0 -332 96
q-129 101 -129 287q0 170 141 301q52 49 105 87q37 26 51 40q9 9 17 14zM498 872v276h229v-276h-229z" />
    <glyph glyph-name="exclamdown" unicode="&#xa1;" horiz-adv-x="608" vert-adv-y="1433" 
d="M193 -396v303l28 723h166l29 -723v-303h-223zM188 872v276h230v-276h-230z" />
    <glyph glyph-name="logicalnot" unicode="&#xac;" horiz-adv-x="1227" vert-adv-y="1433" 
d="M991 412v471h-925v168h1095v-639h-170z" />
    <glyph glyph-name="glyph165" vert-adv-y="1433" 
 />
    <glyph glyph-name="florin" unicode="&#x192;" horiz-adv-x="887" vert-adv-y="1433" 
d="M-186 -403l28 155q47 -14 107 -14q152 0 182 164l160 876h-133v154h161l64 344q54 289 335 289q70 0 163 -15l-29 -159q-66 8 -107 8q-92 0 -140 -72q-32 -48 -42 -104l-53 -291h221v-154h-248l-166 -907q-21 -116 -66 -178q-83 -117 -267 -117h-12q-74 0 -158 21z" />
    <glyph glyph-name="glyph167" vert-adv-y="1433" 
 />
    <glyph glyph-name="glyph168" vert-adv-y="1433" 
 />
    <glyph glyph-name="guillemotleft" unicode="&#xab;" horiz-adv-x="940" vert-adv-y="1433" 
d="M281 174l-246 361l246 360h200l-243 -360l243 -361h-200zM705 174l-244 361l244 360h200l-243 -360l243 -361h-200z" />
    <glyph glyph-name="guillemotright" unicode="&#xbb;" horiz-adv-x="940" vert-adv-y="1433" 
d="M35 174l244 361l-244 360h201l245 -360l-245 -361h-201zM461 174l244 361l-244 360h201l243 -360l-243 -361h-201z" />
    <glyph glyph-name="ellipsis" unicode="&#x2026;" horiz-adv-x="2048" vert-adv-y="1433" 
d="M223 0v281h236v-281h-236zM905 0v281h236v-281h-236zM1589 0v281h236v-281h-236z" />
    <glyph glyph-name="glyph172" horiz-adv-x="1227" vert-adv-y="1227" 
 />
    <glyph glyph-name="Agrave" unicode="&#xc0;" horiz-adv-x="1427" vert-adv-y="1433" 
d="M0 0l582 1544h264l581 -1544h-221l-137 379h-731l-139 -379h-199zM406 557h598l-297 815zM639 1659l-234 272h221l189 -272h-176z" />
    <glyph glyph-name="Atilde" unicode="&#xc3;" horiz-adv-x="1427" vert-adv-y="1433" 
d="M0 0l582 1544h264l581 -1544h-221l-137 379h-731l-139 -379h-199zM406 557h598l-297 815zM446 1683l-127 31q46 207 214 207q70 0 165 -49l68 -35q60 -31 98 -31q64 0 90 101l129 -31q-22 -94 -71 -148q-57 -61 -140 -61h-7q-43 0 -85 14q-25 8 -84 39l-59 31
q-59 31 -95 31q-66 0 -96 -99z" />
    <glyph glyph-name="Otilde" unicode="&#xd5;" horiz-adv-x="1636" vert-adv-y="1433" 
d="M817 1581q338 0 530 -213q193 -215 193 -596q0 -380 -193 -595q-193 -214 -525 -214q-306 0 -494 174q-232 216 -232 636q0 380 193 595q192 213 528 213zM817 1407q-240 0 -377 -182q-127 -170 -127 -453q0 -282 127 -453q137 -182 372 -182q222 0 356 150
q155 173 155 485q0 283 -128 453q-138 182 -378 182zM562 1683l-127 31q46 207 214 207q70 0 165 -49l68 -35q60 -31 98 -31q64 0 90 101l129 -31q-22 -94 -71 -148q-57 -61 -140 -61h-7q-43 0 -85 14q-25 8 -84 39l-59 31q-59 31 -95 31q-66 0 -96 -99z" />
    <glyph glyph-name="OE" unicode="&#x152;" horiz-adv-x="2499" vert-adv-y="1433" 
d="M1317 1346v198h1069v-184h-866v-481h821v-185h-821v-510h899v-184h-1102v209q-77 -101 -169 -158q-143 -88 -348 -88q-291 0 -475 175q-229 217 -229 632q0 381 192 598q188 213 516 213q347 0 513 -235zM817 1407q-240 0 -377 -182q-127 -170 -127 -453q0 -282 127 -453
q137 -182 372 -182q221 0 357 150q156 173 156 485q0 283 -129 453q-139 182 -379 182z" />
    <glyph glyph-name="oe" unicode="&#x153;" horiz-adv-x="1976" vert-adv-y="1433" 
d="M1008 889q129 229 411 229q235 0 363 -144q123 -137 123 -382v-96h-801q7 -126 41 -205q73 -170 279 -170q144 0 223 92q44 51 63 119l172 -64q-105 -305 -469 -305q-283 0 -407 225q-133 -225 -409 -225q-230 0 -366 138q-151 155 -151 440q0 259 125 411
q138 166 388 166q283 0 415 -229zM592 961q-154 0 -238 -121q-75 -110 -75 -299q0 -192 75 -300q84 -120 239 -120q151 0 236 108q84 106 84 318q0 213 -101 325q-80 89 -220 89zM1106 641h602q-20 328 -292 328q-163 0 -245 -125q-52 -79 -65 -203z" />
    <glyph glyph-name="endash" unicode="&#x2013;" horiz-adv-x="1024" vert-adv-y="1433" 
d="M0 500v166h1024v-166h-1024z" />
    <glyph glyph-name="emdash" unicode="&#x2014;" horiz-adv-x="2048" vert-adv-y="1433" 
d="M0 500v166h2048v-166h-2048z" />
    <glyph glyph-name="quotedblleft" unicode="&#x201c;" horiz-adv-x="938" vert-adv-y="1433" 
d="M141 911v256q0 141 68 251q39 64 129 145l78 -84q-67 -64 -99 -114q-41 -65 -41 -146v-27h103v-281h-238zM559 911v256q0 142 69 251q43 68 130 145l76 -84q-68 -65 -100 -117q-40 -64 -40 -143v-27h103v-281h-238z" />
    <glyph glyph-name="quotedblright" unicode="&#x201d;" horiz-adv-x="938" vert-adv-y="1433" 
d="M180 893l-76 84q71 71 98 117q42 68 42 143v27h-103v280h238v-256q0 -114 -41 -200q-47 -98 -158 -195zM600 893l-78 84q72 73 101 118q39 63 39 142v27h-103v280h238v-256q0 -142 -67 -248q-42 -68 -130 -147z" />
    <glyph glyph-name="quoteleft" unicode="&#x2018;" horiz-adv-x="520" vert-adv-y="1433" 
d="M141 911v256q0 141 68 251q39 64 129 145l78 -84q-67 -64 -99 -114q-41 -65 -41 -146v-27h103v-281h-238z" />
    <glyph glyph-name="quoteright" unicode="&#x2019;" horiz-adv-x="520" vert-adv-y="1433" 
d="M180 893l-76 84q71 71 98 117q42 68 42 143v27h-103v280h238v-256q0 -114 -41 -200q-47 -98 -158 -195z" />
    <glyph glyph-name="divide" unicode="&#xf7;" horiz-adv-x="1227" vert-adv-y="1433" 
d="M506 209v246h215v-246h-215zM66 647v168h1095v-168h-1095zM506 1008v245h215v-245h-215z" />
    <glyph glyph-name="glyph185" vert-adv-y="1433" 
 />
    <glyph glyph-name="ydieresis" unicode="&#xff;" horiz-adv-x="1063" vert-adv-y="1433" 
d="M74 -395l32 157q66 -22 128 -22q71 0 112 34q38 33 64 99l49 127l-459 1081h209l344 -848l313 848h197l-477 -1265q-40 -106 -92 -158q-82 -82 -224 -82h-11q-85 0 -185 29zM243 1295v229h183v-229h-183zM639 1295v229h182v-229h-182z" />
    <glyph glyph-name="Ydieresis" unicode="&#x178;" horiz-adv-x="1292" vert-adv-y="1433" 
d="M541 0v602l-541 942h225l430 -758l422 758h215l-540 -942v-602h-211zM365 1678v229h183v-229h-183zM761 1678v229h182v-229h-182z" />
    <glyph glyph-name="fraction" unicode="&#x2044;" horiz-adv-x="268" vert-adv-y="1433" 
d="M-324 -37l750 1534h164l-750 -1534h-164z" />
    <glyph glyph-name="Euro" unicode="&#x20ac;" horiz-adv-x="1291" vert-adv-y="1433" 
d="M194 551h-153l53 127h88q-2 34 -2 60v20q0 43 4 108h-143l53 127h105q44 256 172 402q165 186 441 186q256 0 416 -158l-77 -184q-100 103 -158 135q-76 43 -181 43q-330 0 -407 -424h644l-52 -127h-606q-4 -65 -4 -108q0 -36 2 -80h530l-53 -127h-465q76 -422 406 -422
q88 0 153 29q67 30 191 129v-218q-91 -62 -163 -84t-184 -22q-261 0 -422 166q-143 148 -188 422z" />
    <glyph glyph-name="guilsinglleft" unicode="&#x2039;" horiz-adv-x="516" vert-adv-y="1433" 
d="M281 174l-246 361l246 360h200l-243 -360l243 -361h-200z" />
    <glyph glyph-name="guilsinglright" unicode="&#x203a;" horiz-adv-x="516" vert-adv-y="1433" 
d="M35 174l244 361l-244 360h201l245 -360l-245 -361h-201z" />
    <glyph glyph-name="uniF001" unicode="&#xf001;" horiz-adv-x="1114" vert-adv-y="1433" 
d="M193 0v928h-158v153h158v168q0 142 69 226q74 90 230 90q72 0 172 -17l-15 -159q-66 8 -103 8q-81 0 -120 -41q-39 -42 -39 -139v-136h248v-153h-248v-928h-194zM778 0v1081h195v-1081h-195zM778 1315v229h195v-229h-195z" />
    <glyph glyph-name="uniF002" unicode="&#xf002;" horiz-adv-x="1114" vert-adv-y="1433" 
d="M193 0v928h-158v153h158v168q0 142 69 226q74 90 230 90q72 0 172 -17l-15 -159q-66 8 -103 8q-81 0 -120 -41q-39 -42 -39 -139v-136h248v-153h-248v-928h-194zM778 0v1544h195v-1544h-195z" />
    <glyph glyph-name="daggerdbl" unicode="&#x2021;" horiz-adv-x="1163" vert-adv-y="1433" 
d="M487 -197v447h-358v172h358v504h-358v172h358v446h187v-446h360v-172h-358v-504h358v-172h-358v-447h-189z" />
    <glyph glyph-name="periodcentered" unicode="&#xb7;" horiz-adv-x="520" vert-adv-y="1433" 
d="M141 590v280h238v-280h-238z" />
    <glyph glyph-name="quotesinglbase" unicode="&#x201a;" horiz-adv-x="520" vert-adv-y="1433" 
d="M180 -371l-76 84q68 66 96 114q44 71 44 146v27h-103v281h238v-256q0 -142 -69 -251q-43 -68 -130 -145z" />
    <glyph glyph-name="quotedblbase" unicode="&#x201e;" horiz-adv-x="938" vert-adv-y="1433" 
d="M180 -371l-76 84q68 66 96 114q44 71 44 146v27h-103v281h238v-256q0 -142 -69 -251q-43 -68 -130 -145zM600 -371l-78 84q71 71 99 115q41 66 41 145v27h-103v281h238v-256q0 -143 -68 -251q-38 -62 -129 -145z" />
    <glyph glyph-name="perthousand" unicode="&#x2030;" horiz-adv-x="2757" vert-adv-y="1433" 
d="M496 -37l745 1534h170l-743 -1534h-172zM1482 885q192 0 281 -142q72 -115 72 -323q0 -220 -87 -336q-91 -121 -270 -121q-354 0 -354 464q0 257 112 373q83 85 246 85zM1478 752q-188 0 -188 -325q0 -329 186 -329q191 0 191 326q0 328 -189 328zM2327 885
q356 0 356 -465q0 -221 -86 -336q-90 -121 -269 -121q-354 0 -354 463q0 459 353 459zM2327 752q-187 0 -187 -325q0 -329 185 -329q192 0 192 326q0 328 -190 328zM427 1497q357 0 357 -469q0 -252 -116 -368q-85 -85 -238 -85q-356 0 -356 460q0 462 353 462zM426 1364
q-104 0 -147 -97q-35 -80 -35 -235q0 -153 41 -237q42 -84 141 -84q95 0 143 76q47 74 47 255q0 185 -60 265q-43 57 -130 57z" />
    <glyph glyph-name="Acircumflex" unicode="&#xc2;" horiz-adv-x="1427" vert-adv-y="1433" 
d="M0 0l582 1544h264l581 -1544h-221l-137 379h-731l-139 -379h-199zM406 557h598l-297 815zM363 1659l248 272h200l248 -272h-184l-164 160l-164 -160h-184z" />
    <glyph glyph-name="Ecircumflex" unicode="&#xca;" horiz-adv-x="1337" vert-adv-y="1433" 
d="M152 0v1544h1073v-184h-865v-481h820v-185h-820v-510h900v-184h-1108zM348 1659l248 272h200l248 -272h-184l-164 160l-164 -160h-184z" />
    <glyph glyph-name="Aacute" unicode="&#xc1;" horiz-adv-x="1427" vert-adv-y="1433" 
d="M0 0l582 1544h264l581 -1544h-221l-137 379h-731l-139 -379h-199zM406 557h598l-297 815zM620 1659l189 272h221l-234 -272h-176z" />
    <glyph glyph-name="Edieresis" unicode="&#xcb;" horiz-adv-x="1337" vert-adv-y="1433" 
d="M152 0v1544h1073v-184h-865v-481h820v-185h-820v-510h900v-184h-1108zM406 1678v229h183v-229h-183zM802 1678v229h182v-229h-182z" />
    <glyph glyph-name="Egrave" unicode="&#xc8;" horiz-adv-x="1337" vert-adv-y="1433" 
d="M152 0v1544h1073v-184h-865v-481h820v-185h-820v-510h900v-184h-1108zM672 1659l-234 272h221l189 -272h-176z" />
    <glyph glyph-name="Iacute" unicode="&#xcd;" horiz-adv-x="510" vert-adv-y="1433" 
d="M152 0v1544h208v-1544h-208zM168 1659l189 272h221l-234 -272h-176z" />
    <glyph glyph-name="Icircumflex" unicode="&#xce;" horiz-adv-x="510" vert-adv-y="1433" 
d="M152 0v1544h208v-1544h-208zM-91 1659l248 272h200l248 -272h-184l-164 160l-164 -160h-184z" />
    <glyph glyph-name="Idieresis" unicode="&#xcf;" horiz-adv-x="510" vert-adv-y="1433" 
d="M152 0v1544h208v-1544h-208zM-30 1678v229h183v-229h-183zM366 1678v229h182v-229h-182z" />
    <glyph glyph-name="Igrave" unicode="&#xcc;" horiz-adv-x="510" vert-adv-y="1433" 
d="M152 0v1544h208v-1544h-208zM178 1659l-234 272h221l189 -272h-176z" />
    <glyph glyph-name="Oacute" unicode="&#xd3;" horiz-adv-x="1636" vert-adv-y="1433" 
d="M817 1581q338 0 530 -213q193 -215 193 -596q0 -380 -193 -595q-193 -214 -525 -214q-306 0 -494 174q-232 216 -232 636q0 380 193 595q192 213 528 213zM817 1407q-240 0 -377 -182q-127 -170 -127 -453q0 -282 127 -453q137 -182 372 -182q222 0 356 150
q155 173 155 485q0 283 -128 453q-138 182 -378 182zM724 1659l189 272h221l-234 -272h-176z" />
    <glyph glyph-name="Ocircumflex" unicode="&#xd4;" horiz-adv-x="1636" vert-adv-y="1433" 
d="M817 1581q338 0 530 -213q193 -215 193 -596q0 -380 -193 -595q-193 -214 -525 -214q-306 0 -494 174q-232 216 -232 636q0 380 193 595q192 213 528 213zM817 1407q-240 0 -377 -182q-127 -170 -127 -453q0 -282 127 -453q137 -182 372 -182q222 0 356 150
q155 173 155 485q0 283 -128 453q-138 182 -378 182zM468 1659l248 272h200l248 -272h-184l-164 160l-164 -160h-184z" />
    <glyph glyph-name="glyph210" vert-adv-y="1433" 
 />
    <glyph glyph-name="Ograve" unicode="&#xd2;" horiz-adv-x="1636" vert-adv-y="1433" 
d="M817 1581q338 0 530 -213q193 -215 193 -596q0 -380 -193 -595q-193 -214 -525 -214q-306 0 -494 174q-232 216 -232 636q0 380 193 595q192 213 528 213zM817 1407q-240 0 -377 -182q-127 -170 -127 -453q0 -282 127 -453q137 -182 372 -182q222 0 356 150
q155 173 155 485q0 283 -128 453q-138 182 -378 182zM780 1659l-234 272h221l189 -272h-176z" />
    <glyph glyph-name="Uacute" unicode="&#xda;" horiz-adv-x="1485" vert-adv-y="1433" 
d="M139 1544h209v-956q0 -238 108 -348q96 -97 288 -97q207 0 303 119q88 109 88 326v956h208v-956q0 -286 -129 -441q-153 -184 -469 -184q-606 0 -606 625v956zM619 1659l189 272h221l-234 -272h-176z" />
    <glyph glyph-name="Ucircumflex" unicode="&#xdb;" horiz-adv-x="1485" vert-adv-y="1433" 
d="M139 1544h209v-956q0 -238 108 -348q96 -97 288 -97q207 0 303 119q88 109 88 326v956h208v-956q0 -286 -129 -441q-153 -184 -469 -184q-606 0 -606 625v956zM390 1659l248 272h200l248 -272h-184l-164 160l-164 -160h-184z" />
    <glyph glyph-name="Ugrave" unicode="&#xd9;" horiz-adv-x="1485" vert-adv-y="1433" 
d="M139 1544h209v-956q0 -238 108 -348q96 -97 288 -97q207 0 303 119q88 109 88 326v956h208v-956q0 -286 -129 -441q-153 -184 -469 -184q-606 0 -606 625v956zM709 1659l-234 272h221l189 -272h-176z" />
    <glyph glyph-name="dotlessi" unicode="&#x131;" horiz-adv-x="477" vert-adv-y="1433" 
d="M141 0v1081h195v-1081h-195z" />
    <glyph glyph-name="circumflex" unicode="&#x2c6;" horiz-adv-x="856" vert-adv-y="1433" 
d="M78 1272l248 272h200l248 -272h-184l-164 160l-164 -160h-184z" />
    <glyph glyph-name="tilde" unicode="&#x2dc;" horiz-adv-x="856" vert-adv-y="1433" 
d="M174 1300l-127 31q46 207 213 207q71 0 166 -49l68 -35q60 -31 98 -31q63 0 90 101l129 -31q-22 -94 -72 -148q-57 -61 -138 -61q-42 0 -81 10q-31 8 -96 43l-59 31q-59 31 -95 31q-65 0 -96 -99z" />
    <glyph glyph-name="uni02C9" unicode="&#x2c9;" horiz-adv-x="856" vert-adv-y="1433" 
d="M150 1327v146h555v-146h-555z" />
    <glyph glyph-name="breve" unicode="&#x2d8;" horiz-adv-x="856" vert-adv-y="1433" 
d="M94 1528h154q45 -109 183 -109q143 0 179 109h154q-44 -240 -336 -240q-149 0 -237 68q-81 63 -97 172z" />
    <glyph glyph-name="dotaccent" unicode="&#x2d9;" horiz-adv-x="856" vert-adv-y="1433" 
d="M336 1293v235h182v-235h-182z" />
    <glyph glyph-name="ring" unicode="&#x2da;" horiz-adv-x="856" vert-adv-y="1433" 
d="M428 1621q126 0 189 -76q45 -55 45 -137q0 -92 -59 -150q-63 -62 -177 -62q-106 0 -168 52q-71 58 -71 162q0 103 73 161q62 50 168 50zM423 1529q-69 0 -105 -44q-24 -30 -24 -77q0 -50 32 -83q36 -35 97 -35t97 33q35 32 35 88t-42 90q-35 28 -90 28z" />
    <glyph glyph-name="cedilla" unicode="&#xb8;" horiz-adv-x="856" vert-adv-y="1433" 
d="M242 -393l4 6q123 181 198 266h166l-159 -272h-209z" />
    <glyph glyph-name="hungarumlaut" unicode="&#x2dd;" horiz-adv-x="856" vert-adv-y="1433" 
d="M131 1272l113 272h178l-154 -272h-137zM428 1272l115 272h178l-154 -272h-139z" />
    <glyph glyph-name="ogonek" unicode="&#x2db;" horiz-adv-x="856" vert-adv-y="1433" 
d="M704 0h106q-94 -74 -94 -156q0 -75 79 -75q44 0 101 43v-126q-65 -44 -135 -44q-88 0 -142 54q-41 42 -41 109q0 114 126 195z" />
    <glyph glyph-name="caron" unicode="&#x2c7;" horiz-adv-x="856" vert-adv-y="1433" 
d="M328 1272l-248 272h184l164 -160l164 160h184l-248 -272h-200z" />
    <glyph glyph-name="uni00A0" unicode="&#xa0;" vert-adv-y="1433" 
 />
    <glyph glyph-name="currency" unicode="&#xa4;" horiz-adv-x="1286" vert-adv-y="1433" 
d="M211 231l-109 109l117 117q-106 142 -106 317q0 176 106 318l-117 116l109 109l117 -117q142 105 314 105q174 0 316 -105l115 117l111 -109l-117 -116q107 -143 107 -318q0 -174 -107 -317l117 -117l-109 -109l-117 117q-144 -104 -315 -104t-315 104zM639 1149
q-148 0 -254 -110t-106 -265t106 -265t255 -110q147 0 254 104q60 58 89 143q23 66 23 132q0 107 -59 201q-56 89 -144 131q-82 39 -164 39z" />
    <glyph glyph-name="brokenbar" unicode="&#xa6;" horiz-adv-x="489" vert-adv-y="1433" 
d="M184 0v514h162v-514h-162zM184 1030v514h162v-514h-162z" />
    <glyph glyph-name="uni00AD" unicode="&#xad;" horiz-adv-x="838" vert-adv-y="1433" 
d="M115 440v203h606v-203h-606z" />
    <glyph glyph-name="macron" unicode="&#xaf;" horiz-adv-x="856" vert-adv-y="1433" 
d="M82 1335v146h692v-146h-692z" />
    <glyph glyph-name="twosuperior" unicode="&#xb2;" horiz-adv-x="877" vert-adv-y="1433" 
d="M92 596v53q0 188 317 370q73 42 118 79q71 60 71 131q0 135 -163 135q-92 0 -138 -57q-30 -37 -47 -105l-162 27q30 110 91 173q92 95 274 95q184 0 267 -97q54 -64 54 -173q0 -114 -88 -196q-42 -39 -121 -87q-179 -109 -229 -159q-24 -24 -39 -52h483v-137h-688z" />
    <glyph glyph-name="threesuperior" unicode="&#xb3;" horiz-adv-x="877" vert-adv-y="1433" 
d="M72 850l166 20q16 -159 186 -159q188 0 188 133q0 85 -82 117q-50 19 -147 20v135q107 4 152 30q65 36 65 103q0 61 -54 94q-43 25 -109 25q-154 0 -181 -139l-166 20q23 98 80 156q89 92 273 92q134 0 216 -45q113 -63 113 -192q0 -151 -154 -211q173 -40 173 -209
q0 -130 -106 -202q-92 -63 -250 -63q-349 0 -363 275z" />
    <glyph glyph-name="onesuperior" unicode="&#xb9;" horiz-adv-x="877" vert-adv-y="1433" 
d="M406 596v696q-83 -53 -201 -102l-58 119q168 77 279 168h139v-881h-159z" />
    <glyph glyph-name="onequarter" unicode="&#xbc;" horiz-adv-x="2017" vert-adv-y="1433" 
d="M549 -37l743 1534h172l-743 -1534h-172zM1667 -16v172h-475v133l453 575h174v-579h90v-129h-90v-172h-152zM1350 285h315v405zM401 596v696q-82 -53 -200 -102l-58 119q168 77 279 168h139v-881h-160z" />
    <glyph glyph-name="onehalf" unicode="&#xbd;" horiz-adv-x="2017" vert-adv-y="1433" 
d="M537 -37l743 1534h172l-743 -1534h-172zM1243 -16v53q0 180 270 341q118 70 163 105q73 58 73 132q0 137 -163 137q-64 0 -107 -29q-52 -34 -78 -133l-162 26q31 114 92 175q92 94 271 94q186 0 269 -97q54 -64 54 -174q0 -113 -88 -195q-44 -41 -121 -87
q-88 -52 -177 -116q-63 -45 -91 -95h483v-137h-688zM401 596v696q-82 -53 -200 -102l-58 119q168 77 279 168h139v-881h-160z" />
    <glyph glyph-name="threequarters" unicode="&#xbe;" horiz-adv-x="2017" vert-adv-y="1433" 
d="M604 -37l748 1534h168l-748 -1534h-168zM1667 -16v172h-475v133l453 575h174v-579h90v-129h-90v-172h-152zM1350 285h315v405zM78 850l166 20q16 -159 186 -159q188 0 188 133q0 85 -82 117q-50 19 -147 20v135q107 4 152 30q65 36 65 103q0 61 -54 94q-43 25 -109 25
q-154 0 -181 -139l-166 20q23 99 80 157q89 91 273 91q133 0 216 -45q113 -61 113 -192q0 -151 -153 -211q172 -39 172 -209q0 -130 -106 -202q-92 -63 -250 -63q-349 0 -363 275z" />
    <glyph glyph-name="Eth" unicode="&#xd0;" horiz-adv-x="1499" vert-adv-y="1433" 
d="M152 0v711h-152v149h152v684h487q383 0 573 -189q191 -191 191 -587q0 -376 -191 -572t-573 -196h-487zM360 178h289q277 0 414 171q121 150 121 429q0 276 -119 422q-135 166 -412 166h-293v-506h351v-149h-351v-533z" />
    <glyph glyph-name="multiply" unicode="&#xd7;" horiz-adv-x="1227" vert-adv-y="1433" 
d="M285 246l-123 112l340 373l-340 373l123 113l329 -363l332 363l123 -113l-340 -373l340 -373l-123 -112l-332 362z" />
    <glyph glyph-name="Yacute" unicode="&#xdd;" horiz-adv-x="1292" vert-adv-y="1433" 
d="M541 0v602l-541 942h225l430 -758l422 758h215l-540 -942v-602h-211zM531 1659l189 272h221l-234 -272h-176z" />
    <glyph glyph-name="Thorn" unicode="&#xde;" horiz-adv-x="1354" vert-adv-y="1433" 
d="M152 0v1544h204v-282h437q261 0 389 -156q98 -120 98 -316q0 -215 -144 -344q-143 -127 -384 -127h-396v-319h-204zM356 492h398q138 0 223 76q92 83 92 225q0 160 -103 237q-79 60 -206 60h-404v-598z" />
    <glyph glyph-name="eth" unicode="&#xf0;" horiz-adv-x="1194" vert-adv-y="1433" 
d="M850 907q-63 193 -203 344l-203 -143l-65 100l178 127q-99 85 -182 133l88 113q126 -61 235 -149l191 133l67 -99l-165 -116q323 -344 323 -780q0 -292 -127 -446q-133 -161 -392 -161q-229 0 -364 125q-151 139 -151 395q0 231 121 373q129 152 356 152q187 0 293 -101z
M590 850q-154 0 -236 -107q-75 -97 -75 -262q0 -164 75 -257q84 -103 239 -103q152 0 237 96q83 92 83 273q0 184 -100 281q-81 79 -223 79z" />
    <glyph glyph-name="yacute" unicode="&#xfd;" horiz-adv-x="1063" vert-adv-y="1433" 
d="M74 -395l32 157q66 -22 128 -22q71 0 112 34q38 33 64 99l49 127l-459 1081h209l344 -848l313 848h197l-477 -1265q-40 -106 -92 -158q-82 -82 -224 -82h-11q-85 0 -185 29zM451 1272l189 272h221l-234 -272h-176z" />
    <glyph glyph-name="thorn" unicode="&#xfe;" horiz-adv-x="1214" vert-adv-y="1433" 
d="M131 -393v1937h195v-618q125 192 363 192q150 0 260 -84q186 -141 186 -480q0 -258 -111 -413q-127 -178 -360 -178q-214 0 -338 178v-534h-195zM630 961q-152 0 -236 -129q-75 -115 -75 -300q0 -179 73 -289q81 -122 229 -122q118 0 195 69q116 103 116 356
q0 415 -302 415z" />
    <glyph glyph-name="Amacron" unicode="&#x100;" horiz-adv-x="1427" vert-adv-y="1433" 
d="M0 0l582 1544h264l581 -1544h-221l-137 379h-731l-139 -379h-199zM406 557h598l-297 815zM361 1710v146h692v-146h-692z" />
    <glyph glyph-name="amacron" unicode="&#x101;" horiz-adv-x="1077" vert-adv-y="1433" 
d="M778 690v74q0 205 -237 205q-141 0 -207 -82q-31 -39 -53 -103l-172 45q31 110 105 178q121 111 336 111q419 0 419 -350v-567q0 -95 35 -201h-185q-21 62 -22 139q-75 -94 -160 -135q-83 -41 -214 -41q-153 0 -248 78q-103 85 -103 239q0 183 123 275q83 61 251 86z
M778 549l-291 -45q-129 -20 -184 -84q-41 -47 -41 -134q0 -85 55 -131q51 -44 140 -44q114 0 201 56q120 79 120 222v160zM280 1327v146h555v-146h-555z" />
    <glyph glyph-name="Abreve" unicode="&#x102;" horiz-adv-x="1427" vert-adv-y="1433" 
d="M0 0l582 1544h264l581 -1544h-221l-137 379h-731l-139 -379h-199zM406 557h598l-297 815zM381 1911h154q49 -109 183 -109q143 0 179 109h154q-44 -240 -336 -240q-150 0 -238 68q-80 63 -96 172z" />
    <glyph glyph-name="abreve" unicode="&#x103;" horiz-adv-x="1077" vert-adv-y="1433" 
d="M778 690v74q0 205 -237 205q-141 0 -207 -82q-31 -39 -53 -103l-172 45q31 110 105 178q121 111 336 111q419 0 419 -350v-567q0 -95 35 -201h-185q-21 62 -22 139q-75 -94 -160 -135q-83 -41 -214 -41q-153 0 -248 78q-103 85 -103 239q0 183 123 275q83 61 251 86z
M778 549l-291 -45q-129 -20 -184 -84q-41 -47 -41 -134q0 -85 55 -131q51 -44 140 -44q114 0 201 56q120 79 120 222v160zM208 1528h154q45 -109 183 -109q143 0 179 109h154q-44 -240 -336 -240q-149 0 -237 68q-81 63 -97 172z" />
    <glyph glyph-name="Aogonek" unicode="&#x104;" horiz-adv-x="1427" vert-adv-y="1433" 
d="M1362 0q-5 -5 -11 -9q-82 -63 -82 -147q0 -75 79 -75q44 0 101 43v-126q-65 -44 -136 -44q-87 0 -141 54q-41 42 -41 109q0 115 126 195h-51l-137 379h-731l-139 -379h-199l582 1544h264l581 -1544h-65zM406 557h598l-297 815z" />
    <glyph glyph-name="aogonek" unicode="&#x105;" horiz-adv-x="1077" vert-adv-y="1433" 
d="M953 0q-6 -4 -12 -9q-82 -65 -82 -147q0 -75 79 -75q44 0 101 43v-126q-65 -44 -136 -44q-87 0 -141 54q-41 42 -41 109q0 115 126 195h-28q-21 62 -22 139q-75 -94 -160 -135q-83 -41 -214 -41q-153 0 -248 78q-103 85 -103 239q0 183 123 275q83 61 251 86l332 49v74
q0 205 -237 205q-141 0 -207 -82q-31 -39 -53 -103l-172 45q31 110 105 178q121 111 336 111q419 0 419 -350v-567q0 -94 35 -201h-51zM778 549l-291 -45q-129 -20 -184 -84q-41 -47 -41 -134q0 -85 55 -131q51 -44 140 -44q114 0 201 56q120 79 120 222v160z" />
    <glyph glyph-name="Cacute" unicode="&#x106;" horiz-adv-x="1505" vert-adv-y="1433" 
d="M1415 1110l-209 -51q-39 137 -99 210q-110 134 -317 134q-239 0 -365 -189q-112 -168 -112 -462q0 -282 119 -442q126 -169 355 -169q166 0 282 93q121 96 156 315l213 -31q-52 -238 -168 -366q-173 -189 -488 -189q-282 0 -458 163q-228 210 -228 632q0 387 185 605
t515 218q501 0 619 -471zM641 1659l189 272h221l-234 -272h-176z" />
    <glyph glyph-name="cacute" unicode="&#x107;" horiz-adv-x="1094" vert-adv-y="1433" 
d="M1032 780l-188 -49q-30 112 -82 164q-64 66 -184 66q-145 0 -225 -119q-74 -109 -74 -302q0 -192 71 -298q78 -119 230 -119q222 0 278 250l186 -49q-103 -361 -462 -361q-230 0 -360 137q-142 149 -142 438q0 257 122 410q134 170 383 170q362 0 447 -338zM430 1272
l189 272h221l-234 -272h-176z" />
    <glyph glyph-name="Ccircumflex" unicode="&#x108;" horiz-adv-x="1505" vert-adv-y="1433" 
d="M1415 1110l-209 -51q-39 137 -99 210q-110 134 -317 134q-239 0 -365 -189q-112 -168 -112 -462q0 -282 119 -442q126 -169 355 -169q166 0 282 93q121 96 156 315l213 -31q-52 -238 -168 -366q-173 -189 -488 -189q-282 0 -458 163q-228 210 -228 632q0 387 185 605
t515 218q501 0 619 -471zM430 1654l248 272h200l248 -272h-184l-164 160l-164 -160h-184z" />
    <glyph glyph-name="ccircumflex" unicode="&#x109;" horiz-adv-x="1094" vert-adv-y="1433" 
d="M1032 780l-188 -49q-30 112 -82 164q-64 66 -184 66q-145 0 -225 -119q-74 -109 -74 -302q0 -192 71 -298q78 -119 230 -119q222 0 278 250l186 -49q-103 -361 -462 -361q-230 0 -360 137q-142 149 -142 438q0 257 122 410q134 170 383 170q362 0 447 -338zM232 1272
l248 272h200l248 -272h-184l-164 160l-164 -160h-184z" />
    <glyph glyph-name="Cdotaccent" unicode="&#x10a;" horiz-adv-x="1505" vert-adv-y="1433" 
d="M1415 1110l-209 -51q-39 137 -99 210q-110 134 -317 134q-239 0 -365 -189q-112 -168 -112 -462q0 -282 119 -442q126 -169 355 -169q166 0 282 93q121 96 156 315l213 -31q-52 -238 -168 -366q-173 -189 -488 -189q-282 0 -458 163q-228 210 -228 632q0 387 185 605
t515 218q501 0 619 -471zM691 1676v235h182v-235h-182z" />
    <glyph glyph-name="cdotaccent" unicode="&#x10b;" horiz-adv-x="1094" vert-adv-y="1433" 
d="M1032 780l-188 -49q-30 112 -82 164q-64 66 -184 66q-145 0 -225 -119q-74 -109 -74 -302q0 -192 71 -298q78 -119 230 -119q222 0 278 250l186 -49q-103 -361 -462 -361q-230 0 -360 137q-142 149 -142 438q0 257 122 410q134 170 383 170q362 0 447 -338zM486 1292v235
h182v-235h-182z" />
    <glyph glyph-name="Ccaron" unicode="&#x10c;" horiz-adv-x="1505" vert-adv-y="1433" 
d="M1415 1110l-209 -51q-39 137 -99 210q-110 134 -317 134q-239 0 -365 -189q-112 -168 -112 -462q0 -282 119 -442q126 -169 355 -169q166 0 282 93q121 96 156 315l213 -31q-52 -238 -168 -366q-173 -189 -488 -189q-282 0 -458 163q-228 210 -228 632q0 387 185 605
t515 218q501 0 619 -471zM694 1659l-248 272h184l164 -160l164 160h184l-248 -272h-200z" />
    <glyph glyph-name="ccaron" unicode="&#x10d;" horiz-adv-x="1094" vert-adv-y="1433" 
d="M1032 780l-188 -49q-30 112 -82 164q-64 66 -184 66q-145 0 -225 -119q-74 -109 -74 -302q0 -192 71 -298q78 -119 230 -119q222 0 278 250l186 -49q-103 -361 -462 -361q-230 0 -360 137q-142 149 -142 438q0 257 122 410q134 170 383 170q362 0 447 -338zM470 1272
l-248 272h184l164 -160l164 160h184l-248 -272h-200z" />
    <glyph glyph-name="Dcaron" unicode="&#x10e;" horiz-adv-x="1499" vert-adv-y="1433" 
d="M152 0v1544h487q383 0 573 -189q191 -191 191 -586q0 -203 -66 -378q-67 -180 -235 -284q-92 -56 -233 -85q-111 -22 -230 -22h-487zM360 178h289q277 0 414 171q121 150 121 429q0 276 -119 422q-135 166 -412 166h-293v-1188zM587 1659l-248 272h184l164 -160l164 160
h184l-248 -272h-200z" />
    <glyph glyph-name="dcaron" unicode="&#x10f;" horiz-adv-x="1370" vert-adv-y="1433" 
d="M887 940v604h194v-1544h-184l-4 160q-122 -197 -365 -197q-188 0 -304 120q-144 148 -144 437q0 265 109 420q125 178 359 178q212 0 339 -178zM587 961q-145 0 -224 -105q-82 -111 -82 -317q0 -198 72 -305q77 -115 228 -115q140 0 223 106q89 116 89 320q0 183 -72 292
q-82 124 -234 124zM1207 1200v344h195l-45 -344h-150z" />
    <glyph glyph-name="Dcroat" unicode="&#x110;" horiz-adv-x="1499" vert-adv-y="1433" 
d="M152 0v711h-152v149h152v684h487q383 0 573 -189q191 -191 191 -587q0 -376 -191 -572t-573 -196h-487zM360 178h289q277 0 414 171q121 150 121 429q0 276 -119 422q-135 166 -412 166h-293v-506h351v-149h-351v-533z" />
    <glyph glyph-name="dcroat" unicode="&#x111;" horiz-adv-x="1212" vert-adv-y="1433" 
d="M520 1247v146h367v151h194v-151h131v-146h-131v-1247h-184l-4 160q-122 -197 -365 -197q-209 0 -328 146q-120 148 -120 411q0 265 109 420q125 178 359 178q212 0 339 -178v307h-367zM587 961q-145 0 -224 -105q-82 -111 -82 -317q0 -198 72 -305q77 -115 228 -115
q140 0 223 106q89 116 89 320q0 183 -72 292q-82 124 -234 124z" />
    <glyph glyph-name="Emacron" unicode="&#x112;" horiz-adv-x="1337" vert-adv-y="1433" 
d="M152 0v1544h1073v-184h-865v-481h820v-185h-820v-510h900v-184h-1108zM343 1710v146h692v-146h-692z" />
    <glyph glyph-name="emacron" unicode="&#x113;" horiz-adv-x="1151" vert-adv-y="1433" 
d="M1079 496h-800q7 -127 40 -205q73 -170 279 -170q219 0 287 211l172 -64q-104 -305 -468 -305q-225 0 -358 135q-151 153 -151 440q0 259 125 413q136 167 385 167q266 0 392 -174q54 -73 79 -187q18 -84 18 -165v-96zM281 641h602q-16 328 -293 328q-161 0 -244 -125
q-50 -76 -65 -203zM314 1327v146h555v-146h-555z" />
    <glyph glyph-name="Edotaccent" unicode="&#x116;" horiz-adv-x="1337" vert-adv-y="1433" 
d="M152 0v1544h1073v-184h-865v-481h820v-185h-820v-510h900v-184h-1108zM618 1675v235h182v-235h-182z" />
    <glyph glyph-name="edotaccent" unicode="&#x117;" horiz-adv-x="1151" vert-adv-y="1433" 
d="M1079 496h-800q7 -127 40 -205q73 -170 279 -170q219 0 287 211l172 -64q-104 -305 -468 -305q-225 0 -358 135q-151 153 -151 440q0 259 125 413q136 167 385 167q266 0 392 -174q54 -73 79 -187q18 -84 18 -165v-96zM281 641h602q-16 328 -293 328q-161 0 -244 -125
q-50 -76 -65 -203zM500 1291v235h182v-235h-182z" />
    <glyph glyph-name="Eogonek" unicode="&#x118;" horiz-adv-x="1337" vert-adv-y="1433" 
d="M1172 0q-6 -4 -12 -9q-82 -65 -82 -147q0 -75 79 -75q44 0 101 43v-126q-65 -44 -136 -44q-86 0 -141 54q-41 42 -41 109q0 115 126 195h-914v1544h1073v-184h-865v-481h820v-185h-820v-510h900v-184h-88z" />
    <glyph glyph-name="eogonek" unicode="&#x119;" horiz-adv-x="1151" vert-adv-y="1433" 
d="M679 -31q-58 -57 -58 -125q0 -75 79 -75q44 0 101 43v-126q-65 -44 -136 -44q-87 0 -141 54q-41 42 -41 108q0 89 78 160q-206 7 -330 134q-151 153 -151 440q0 259 125 413q136 167 385 167q265 0 392 -174q54 -73 79 -187q18 -84 18 -165v-96h-800q7 -127 40 -205
q72 -170 279 -170q219 0 287 211l172 -64q-91 -266 -378 -299zM281 641h602q-17 328 -293 328q-162 0 -244 -125q-50 -76 -65 -203z" />
    <glyph glyph-name="Ecaron" unicode="&#x11a;" horiz-adv-x="1337" vert-adv-y="1433" 
d="M152 0v1544h1073v-184h-865v-481h820v-185h-820v-510h900v-184h-1108zM596 1659l-248 272h184l164 -160l164 160h184l-248 -272h-200z" />
    <glyph glyph-name="ecaron" unicode="&#x11b;" horiz-adv-x="1151" vert-adv-y="1433" 
d="M1079 496h-800q7 -127 40 -205q73 -170 279 -170q219 0 287 211l172 -64q-104 -305 -468 -305q-225 0 -358 135q-151 153 -151 440q0 259 125 413q136 167 385 167q266 0 392 -174q54 -73 79 -187q18 -84 18 -165v-96zM281 641h602q-16 328 -293 328q-161 0 -244 -125
q-50 -76 -65 -203zM484 1272l-248 272h184l164 -160l164 160h184l-248 -272h-200z" />
    <glyph glyph-name="Gbreve" unicode="&#x11e;" horiz-adv-x="1528" vert-adv-y="1433" 
d="M1411 1139l-203 -52q-38 120 -88 181q-111 135 -332 135q-233 0 -360 -189q-115 -169 -115 -461q0 -282 119 -442q125 -168 354 -168q180 0 296 86q126 92 126 244v133h-250v172h457v-778h-135l-39 162q-172 -199 -469 -199q-275 0 -449 161q-227 210 -227 633
q0 386 187 606q187 218 518 218q490 0 610 -442zM455 1911h154q49 -109 183 -109q143 0 179 109h154q-44 -240 -336 -240q-150 0 -238 68q-80 63 -96 172z" />
    <glyph glyph-name="gbreve" unicode="&#x11f;" horiz-adv-x="1214" vert-adv-y="1433" 
d="M129 -215l156 96q44 -71 105 -103q74 -38 196 -38q172 0 248 92q55 67 55 236v122q-123 -194 -363 -194q-210 0 -326 137q-120 141 -120 401q0 262 109 412q124 172 361 172q227 0 341 -184l4 147h188v-1038q0 -467 -491 -467q-253 0 -380 105q-57 47 -83 104zM582 961
q-157 0 -236 -120q-65 -100 -65 -294q0 -393 297 -393q151 0 234 105q81 103 81 307q0 202 -94 307q-80 88 -217 88zM248 1528h154q45 -109 183 -109q143 0 179 109h154q-44 -240 -336 -240q-149 0 -237 68q-81 63 -97 172z" />
    <glyph glyph-name="Gdotaccent" unicode="&#x120;" horiz-adv-x="1528" vert-adv-y="1433" 
d="M1411 1139l-203 -52q-38 120 -88 181q-111 135 -332 135q-233 0 -360 -189q-115 -169 -115 -461q0 -282 119 -442q125 -168 354 -168q180 0 296 86q126 92 126 244v133h-250v172h457v-778h-135l-39 162q-172 -199 -469 -199q-275 0 -449 161q-227 210 -227 633
q0 386 187 606q187 218 518 218q490 0 610 -442zM716 1675v235h182v-235h-182z" />
    <glyph glyph-name="gdotaccent" unicode="&#x121;" horiz-adv-x="1214" vert-adv-y="1433" 
d="M129 -215l156 96q44 -71 105 -103q74 -38 196 -38q172 0 248 92q55 67 55 236v122q-123 -194 -363 -194q-210 0 -326 137q-120 141 -120 401q0 262 109 412q124 172 361 172q227 0 341 -184l4 147h188v-1038q0 -467 -491 -467q-253 0 -380 105q-57 47 -83 104zM582 961
q-157 0 -236 -120q-65 -100 -65 -294q0 -393 297 -393q151 0 234 105q81 103 81 307q0 202 -94 307q-80 88 -217 88zM510 1293v235h182v-235h-182z" />
    <glyph glyph-name="Gcommaaccent" unicode="&#x122;" horiz-adv-x="1528" vert-adv-y="1433" 
d="M1411 1139l-203 -52q-38 120 -88 181q-111 135 -332 135q-233 0 -360 -189q-115 -169 -115 -461q0 -282 119 -442q125 -168 354 -168q180 0 296 86q126 92 126 244v133h-250v172h457v-778h-135l-39 162q-172 -199 -469 -199q-275 0 -449 161q-227 210 -227 633
q0 386 187 606q187 218 518 218q490 0 610 -442zM579 -393l4 6q118 175 198 266h166l-159 -272h-209z" />
    <glyph glyph-name="gcommaaccent" unicode="&#x123;" horiz-adv-x="1214" vert-adv-y="1433" 
d="M129 -215l156 96q44 -71 105 -103q74 -38 196 -38q172 0 248 92q55 67 55 236v122q-123 -194 -363 -194q-210 0 -326 137q-120 141 -120 401q0 262 109 412q124 172 361 172q227 0 341 -184l4 147h188v-1038q0 -467 -491 -467q-253 0 -380 105q-57 47 -83 104zM582 961
q-157 0 -236 -120q-65 -100 -65 -294q0 -393 297 -393q151 0 234 105q81 103 81 307q0 202 -94 307q-80 88 -217 88zM439 1272q107 164 202 272h166l-159 -272h-209z" />
    <glyph glyph-name="Hbar" unicode="&#x126;" horiz-adv-x="1528" vert-adv-y="1433" 
d="M152 1215h-127v146h127v183h208v-183h807v183h209v-183h134v-146h-134v-1215h-209v723h-807v-723h-208v1215zM360 1215v-304h807v304h-807z" />
    <glyph glyph-name="hbar" unicode="&#x127;" horiz-adv-x="1182" vert-adv-y="1433" 
d="M130 1262h-119v146h119v136h195v-136h301v-146h-301v-344q123 200 364 200q178 0 276 -109q85 -96 85 -259v-750h-195v698q0 260 -228 260q-145 0 -228 -128q-74 -115 -74 -285v-545h-195v1262z" />
    <glyph glyph-name="Imacron" unicode="&#x12a;" horiz-adv-x="510" vert-adv-y="1433" 
d="M152 0v1544h208v-1544h-208zM-97 1710v146h692v-146h-692z" />
    <glyph glyph-name="imacron" unicode="&#x12b;" horiz-adv-x="477" vert-adv-y="1433" 
d="M141 0v1081h195v-1081h-195zM-39 1327v146h555v-146h-555z" />
    <glyph glyph-name="Iogonek" unicode="&#x12e;" horiz-adv-x="510" vert-adv-y="1433" 
d="M333 0q-5 -4 -11 -9q-82 -64 -82 -147q0 -75 79 -75q44 0 101 43v-126q-66 -44 -136 -44q-87 0 -141 54q-41 42 -41 109q0 114 125 195h-75v1544h208v-1544h-27z" />
    <glyph glyph-name="iogonek" unicode="&#x12f;" horiz-adv-x="477" vert-adv-y="1433" 
d="M141 0v1081h195v-1081h-195zM141 1315v229h195v-229h-195zM221 0h106q-94 -74 -94 -156q0 -75 79 -75q44 0 101 43v-126q-65 -44 -135 -44q-88 0 -142 54q-41 42 -41 109q0 114 126 195z" />
    <glyph glyph-name="Idotaccent" unicode="&#x130;" horiz-adv-x="510" vert-adv-y="1433" 
d="M152 0v1544h208v-1544h-208zM165 1675v235h182v-235h-182z" />
    <glyph glyph-name="Kcommaaccent" unicode="&#x136;" horiz-adv-x="1407" vert-adv-y="1433" 
d="M152 0v1544h208v-715l717 715h256l-594 -596l676 -948h-270l-553 799l-232 -232v-567h-208zM482 -393l4 6q118 175 198 266h166l-159 -272h-209z" />
    <glyph glyph-name="kcommaaccent" unicode="&#x137;" horiz-adv-x="1071" vert-adv-y="1433" 
d="M131 0v1544h195v-895l456 432h234l-393 -370l450 -711h-227l-365 580l-155 -146v-434h-195zM333 -393l4 6q122 179 198 266h166l-159 -272h-209z" />
    <glyph glyph-name="Lacute" unicode="&#x139;" horiz-adv-x="1229" vert-adv-y="1433" 
d="M152 0v1544h208v-1360h830v-184h-1038zM171 1659l189 272h221l-234 -272h-176z" />
    <glyph glyph-name="lacute" unicode="&#x13a;" horiz-adv-x="477" vert-adv-y="1433" 
d="M141 0v1544h195v-1544h-195zM145 1659l189 272h221l-234 -272h-176z" />
    <glyph glyph-name="Lcommaaccent" unicode="&#x13b;" horiz-adv-x="1229" vert-adv-y="1433" 
d="M152 0v1544h208v-1360h830v-184h-1038zM414 -393l4 6q118 175 198 266h166l-159 -272h-209z" />
    <glyph glyph-name="lcommaaccent" unicode="&#x13c;" horiz-adv-x="477" vert-adv-y="1433" 
d="M141 0v1544h195v-1544h-195zM-41 -393l4 6q122 179 198 266h166l-159 -272h-209z" />
    <glyph glyph-name="Lcaron" unicode="&#x13d;" horiz-adv-x="1229" vert-adv-y="1433" 
d="M152 0v1544h208v-1360h830v-184h-1038zM720 1200v344h195l-45 -344h-150z" />
    <glyph glyph-name="lcaron" unicode="&#x13e;" horiz-adv-x="659" vert-adv-y="1433" 
d="M141 0v1544h195v-1544h-195zM483 1200v344h195l-45 -344h-150z" />
    <glyph glyph-name="Lslash" unicode="&#x141;" horiz-adv-x="1233" vert-adv-y="1433" 
d="M152 0v580l-152 -111v184l152 111v780h208v-626l330 241v-184l-330 -242v-549h830v-184h-1038z" />
    <glyph glyph-name="lslash" unicode="&#x142;" horiz-adv-x="477" vert-adv-y="1433" 
d="M141 0v639l-141 -104v155l141 105v749h195v-606l141 104v-153l-141 -105v-784h-195z" />
    <glyph glyph-name="Nacute" unicode="&#x143;" horiz-adv-x="1511" vert-adv-y="1433" 
d="M152 0v1544h241l764 -1261v1261h203v-1544h-242l-764 1264v-1264h-202zM606 1659l189 272h221l-234 -272h-176z" />
    <glyph glyph-name="nacute" unicode="&#x144;" horiz-adv-x="1184" vert-adv-y="1433" 
d="M131 0v1081h191l4 -176q55 97 131 150q92 63 234 63q179 0 277 -109q85 -96 85 -259v-750h-195v698q0 260 -227 260q-146 0 -230 -128q-75 -115 -75 -285v-545h-195zM464 1272l189 272h221l-234 -272h-176z" />
    <glyph glyph-name="Ncommaaccent" unicode="&#x145;" horiz-adv-x="1511" vert-adv-y="1433" 
d="M152 0v1544h241l764 -1261v1261h203v-1544h-242l-764 1264v-1264h-202zM523 -393l4 6q118 175 198 266h166l-159 -272h-209z" />
    <glyph glyph-name="ncommaaccent" unicode="&#x146;" horiz-adv-x="1184" vert-adv-y="1433" 
d="M131 0v1081h191l4 -176q55 97 131 150q92 63 234 63q179 0 277 -109q85 -96 85 -259v-750h-195v698q0 260 -227 260q-146 0 -230 -128q-75 -115 -75 -285v-545h-195zM343 -393l4 6q122 179 198 266h166l-159 -272h-209z" />
    <glyph glyph-name="Ncaron" unicode="&#x147;" horiz-adv-x="1511" vert-adv-y="1433" 
d="M152 0v1544h241l764 -1261v1261h203v-1544h-242l-764 1264v-1264h-202zM658 1659l-248 272h184l164 -160l164 160h184l-248 -272h-200z" />
    <glyph glyph-name="ncaron" unicode="&#x148;" horiz-adv-x="1184" vert-adv-y="1433" 
d="M131 0v1081h191l4 -176q55 97 131 150q92 63 234 63q179 0 277 -109q85 -96 85 -259v-750h-195v698q0 260 -227 260q-146 0 -230 -128q-75 -115 -75 -285v-545h-195zM492 1272l-248 272h184l164 -160l164 160h184l-248 -272h-200z" />
    <glyph glyph-name="Omacron" unicode="&#x14c;" horiz-adv-x="1636" vert-adv-y="1433" 
d="M817 1581q338 0 530 -213q193 -215 193 -596q0 -380 -193 -595q-193 -214 -525 -214q-306 0 -494 174q-232 216 -232 636q0 380 193 595q192 213 528 213zM817 1407q-240 0 -377 -182q-127 -170 -127 -453q0 -282 127 -453q137 -182 372 -182q222 0 356 150
q155 173 155 485q0 283 -128 453q-138 182 -378 182zM465 1710v146h692v-146h-692z" />
    <glyph glyph-name="omacron" unicode="&#x14d;" horiz-adv-x="1192" vert-adv-y="1433" 
d="M596 1118q252 0 390 -166q126 -152 126 -411q0 -258 -126 -411q-138 -167 -386 -167q-233 0 -369 138q-151 155 -151 440q0 259 125 411q138 166 391 166zM592 961q-154 0 -238 -121q-75 -110 -75 -299q0 -192 75 -300q84 -120 239 -120q151 0 236 108q84 106 84 318
q0 213 -101 325q-80 89 -220 89zM318 1327v146h555v-146h-555z" />
    <glyph glyph-name="Ohungarumlaut" unicode="&#x150;" horiz-adv-x="1636" vert-adv-y="1433" 
d="M817 1581q338 0 530 -213q193 -215 193 -596q0 -380 -193 -595q-193 -214 -525 -214q-306 0 -494 174q-232 216 -232 636q0 380 193 595q192 213 528 213zM817 1407q-240 0 -377 -182q-127 -170 -127 -453q0 -282 127 -453q137 -182 372 -182q222 0 356 150
q155 173 155 485q0 283 -128 453q-138 182 -378 182zM568 1659l113 272h178l-154 -272h-137zM865 1659l115 272h178l-154 -272h-139z" />
    <glyph glyph-name="ohungarumlaut" unicode="&#x151;" horiz-adv-x="1192" vert-adv-y="1433" 
d="M596 1118q252 0 390 -166q126 -152 126 -411q0 -258 -126 -411q-138 -167 -386 -167q-233 0 -369 138q-151 155 -151 440q0 259 125 411q138 166 391 166zM592 961q-154 0 -238 -121q-75 -110 -75 -299q0 -192 75 -300q84 -120 239 -120q151 0 236 108q84 106 84 318
q0 213 -101 325q-80 89 -220 89zM367 1272l113 272h178l-154 -272h-137zM664 1272l115 272h178l-154 -272h-139z" />
    <glyph glyph-name="Racute" unicode="&#x154;" horiz-adv-x="1434" vert-adv-y="1433" 
d="M152 0v1544h665q277 0 403 -149q50 -60 75 -153q20 -76 20 -149q0 -153 -81 -267q-73 -105 -202 -156l334 -670h-240l-301 635q-10 -2 -23 -2h-13h-13h-420v-633h-204zM356 805h420q150 0 231 66q91 73 91 221q0 280 -322 280h-420v-567zM529 1659l189 272h221l-234 -272
h-176z" />
    <glyph glyph-name="racute" unicode="&#x155;" horiz-adv-x="711" vert-adv-y="1433" 
d="M131 0v1081h188l7 -190q90 203 274 203q57 0 111 -13l-19 -166q-43 13 -96 13q-141 0 -209 -109q-61 -98 -61 -272v-547h-195zM192 1272l189 272h221l-234 -272h-176z" />
    <glyph glyph-name="Rcommaaccent" unicode="&#x156;" horiz-adv-x="1434" vert-adv-y="1433" 
d="M152 0v1544h665q277 0 403 -149q50 -60 75 -153q20 -76 20 -149q0 -153 -81 -267q-73 -105 -202 -156l334 -670h-240l-301 635q-10 -2 -23 -2h-13h-13h-420v-633h-204zM356 805h420q150 0 231 66q91 73 91 221q0 280 -322 280h-420v-567zM478 -393l4 6q118 175 198 266
h166l-159 -272h-209z" />
    <glyph glyph-name="rcommaaccent" unicode="&#x157;" horiz-adv-x="711" vert-adv-y="1433" 
d="M131 0v1081h188l7 -190q90 203 274 203q57 0 111 -13l-19 -166q-43 13 -96 13q-141 0 -209 -109q-61 -98 -61 -272v-547h-195zM-49 -393l4 6q122 179 198 266h166l-159 -272h-209z" />
    <glyph glyph-name="Rcaron" unicode="&#x158;" horiz-adv-x="1434" vert-adv-y="1433" 
d="M152 0v1544h665q277 0 403 -149q50 -60 75 -153q20 -76 20 -149q0 -153 -81 -267q-73 -105 -202 -156l334 -670h-240l-301 635q-10 -2 -23 -2h-13h-13h-420v-633h-204zM356 805h420q150 0 231 66q91 73 91 221q0 280 -322 280h-420v-567zM577 1659l-248 272h184l164 -160
l164 160h184l-248 -272h-200z" />
    <glyph glyph-name="rcaron" unicode="&#x159;" horiz-adv-x="711" vert-adv-y="1433" 
d="M131 0v1081h188l7 -190q90 203 274 203q57 0 111 -13l-19 -166q-43 13 -96 13q-141 0 -209 -109q-61 -98 -61 -272v-547h-195zM269 1272l-248 272h184l164 -160l164 160h184l-248 -272h-200z" />
    <glyph glyph-name="Sacute" unicode="&#x15a;" horiz-adv-x="1391" vert-adv-y="1433" 
d="M59 420l205 51q37 -144 102 -214q110 -118 333 -118q185 0 284 72q92 69 92 195q0 123 -76 183q-67 54 -206 79l-244 45q-449 83 -449 432q0 199 152 317q153 119 423 119q327 0 475 -163q82 -90 126 -236l-195 -64q-45 131 -116 196q-103 93 -296 93q-172 0 -264 -68
q-90 -66 -90 -184q0 -101 66 -162q69 -63 219 -90l279 -51q224 -41 325 -151q94 -104 94 -279q0 -210 -145 -329q-158 -130 -461 -130q-277 0 -433 119q-141 108 -200 338zM525 1659l189 272h221l-234 -272h-176z" />
    <glyph glyph-name="sacute" unicode="&#x15b;" horiz-adv-x="1053" vert-adv-y="1433" 
d="M45 287l182 49q22 -99 72 -149q73 -74 218 -74q121 0 187 45q64 44 64 126q0 72 -44 109q-47 41 -136 58l-176 34q-328 63 -328 315q0 155 129 242q113 76 302 76q349 0 443 -282l-174 -56q-35 101 -105 149q-62 42 -177 42q-122 0 -184 -55q-42 -38 -42 -108
q0 -65 43 -103q43 -37 146 -58l215 -43q289 -58 289 -315q0 -145 -111 -232q-120 -94 -334 -94q-215 0 -337 94q-101 77 -142 230zM346 1272l189 272h221l-234 -272h-176z" />
    <glyph glyph-name="Scedilla" unicode="&#x15e;" horiz-adv-x="1391" vert-adv-y="1433" 
d="M59 420l205 51q37 -144 102 -214q110 -118 333 -118q185 0 284 72q92 69 92 195q0 123 -76 183q-67 54 -206 79l-244 45q-449 83 -449 432q0 199 152 317q153 119 423 119q327 0 475 -163q82 -90 126 -236l-195 -64q-45 131 -116 196q-103 93 -296 93q-172 0 -264 -68
q-90 -66 -90 -184q0 -101 66 -162q69 -63 219 -90l279 -51q224 -41 325 -151q94 -104 94 -279q0 -210 -145 -329q-158 -130 -461 -130q-277 0 -433 119q-141 108 -200 338zM458 -393q120 178 202 272h166l-159 -272h-209z" />
    <glyph glyph-name="scedilla" unicode="&#x15f;" horiz-adv-x="1053" vert-adv-y="1433" 
d="M45 287l182 49q22 -99 72 -149q73 -74 218 -74q121 0 187 45q64 44 64 126q0 72 -44 109q-47 41 -136 58l-176 34q-328 63 -328 315q0 155 129 242q113 76 302 76q349 0 443 -282l-174 -56q-35 101 -105 149q-62 42 -177 42q-122 0 -184 -55q-42 -38 -42 -108
q0 -65 43 -103q43 -37 146 -58l215 -43q289 -58 289 -315q0 -145 -111 -232q-120 -94 -334 -94q-215 0 -337 94q-101 77 -142 230zM313 -393l4 6q123 181 198 266h166l-159 -272h-209z" />
    <glyph glyph-name="Scaron" unicode="&#x160;" horiz-adv-x="1391" vert-adv-y="1433" 
d="M59 420l205 51q37 -144 102 -214q110 -118 333 -118q185 0 284 72q92 69 92 195q0 123 -76 183q-67 54 -206 79l-244 45q-449 83 -449 432q0 199 152 317q153 119 423 119q327 0 475 -163q82 -90 126 -236l-195 -64q-45 131 -116 196q-103 93 -296 93q-172 0 -264 -68
q-90 -66 -90 -184q0 -101 66 -162q69 -63 219 -90l279 -51q224 -41 325 -151q94 -104 94 -279q0 -210 -145 -329q-158 -130 -461 -130q-277 0 -433 119q-141 108 -200 338zM593 1659l-248 272h184l164 -160l164 160h184l-248 -272h-200z" />
    <glyph glyph-name="scaron" unicode="&#x161;" horiz-adv-x="1053" vert-adv-y="1433" 
d="M45 287l182 49q22 -99 72 -149q73 -74 218 -74q121 0 187 45q64 44 64 126q0 72 -44 109q-47 41 -136 58l-176 34q-328 63 -328 315q0 155 129 242q113 76 302 76q349 0 443 -282l-174 -56q-35 101 -105 149q-62 42 -177 42q-122 0 -184 -55q-42 -38 -42 -108
q0 -65 43 -103q43 -37 146 -58l215 -43q289 -58 289 -315q0 -145 -111 -232q-120 -94 -334 -94q-215 0 -337 94q-101 77 -142 230zM419 1272l-248 272h184l164 -160l164 160h184l-248 -272h-200z" />
    <glyph glyph-name="Tcommaaccent" unicode="&#x162;" horiz-adv-x="1391" vert-adv-y="1433" 
d="M590 0v1360h-547v184h1303v-184h-547v-1360h-209zM411 -393l4 6q118 175 198 266h166l-159 -272h-209z" />
    <glyph glyph-name="tcommaaccent" unicode="&#x163;" horiz-adv-x="694" vert-adv-y="1433" 
d="M199 928h-144v153h144v308h194v-308h234v-153h-234v-639q0 -94 40 -125q25 -19 88 -19q37 0 114 9l14 -158q-91 -16 -203 -16q-247 0 -247 268v680zM96 -393l4 6q122 179 198 266h166l-159 -272h-209z" />
    <glyph glyph-name="Tcaron" unicode="&#x164;" horiz-adv-x="1391" vert-adv-y="1433" 
d="M590 0v1360h-547v184h1303v-184h-547v-1360h-209zM601 1659l-248 272h184l164 -160l164 160h184l-248 -272h-200z" />
    <glyph glyph-name="tcaron" unicode="&#x165;" horiz-adv-x="694" vert-adv-y="1433" 
d="M199 928h-144v153h144v308h194v-308h234v-153h-234v-639q0 -94 40 -125q25 -19 88 -19q37 0 114 9l14 -158q-91 -16 -203 -16q-247 0 -247 268v680zM532 1200v344h195l-45 -344h-150z" />
    <glyph glyph-name="Umacron" unicode="&#x16a;" horiz-adv-x="1485" vert-adv-y="1433" 
d="M139 1544h209v-956q0 -238 108 -348q96 -97 288 -97q207 0 303 119q88 109 88 326v956h208v-956q0 -286 -129 -441q-153 -184 -469 -184q-606 0 -606 625v956zM391 1710v146h692v-146h-692z" />
    <glyph glyph-name="umacron" unicode="&#x16b;" horiz-adv-x="1182" vert-adv-y="1433" 
d="M131 1081h195v-710q0 -246 225 -246q146 0 229 127q76 115 76 283v546h195v-1081h-189l-6 178q-56 -99 -127 -151q-88 -64 -231 -64q-146 0 -241 74q-126 98 -126 297v747zM313 1327v146h555v-146h-555z" />
    <glyph glyph-name="Uring" unicode="&#x16e;" horiz-adv-x="1485" vert-adv-y="1433" 
d="M139 1544h209v-956q0 -238 108 -348q96 -97 288 -97q207 0 303 119q88 109 88 326v956h208v-956q0 -286 -129 -441q-153 -184 -469 -184q-606 0 -606 625v956zM743 1942q132 0 198 -80q48 -58 48 -146q0 -96 -62 -157q-67 -65 -186 -65q-112 0 -178 54q-74 62 -74 172
q0 109 76 170q66 52 178 52zM737 1850q-76 0 -114 -48q-27 -33 -27 -84q0 -55 36 -91q38 -39 106 -39q66 0 105 36q39 35 39 97q0 61 -46 98q-38 31 -99 31z" />
    <glyph glyph-name="uring" unicode="&#x16f;" horiz-adv-x="1182" vert-adv-y="1433" 
d="M131 1081h195v-710q0 -246 225 -246q146 0 229 127q76 115 76 283v546h195v-1081h-189l-6 178q-56 -99 -127 -151q-88 -64 -231 -64q-146 0 -241 74q-126 98 -126 297v747zM593 1621q126 0 189 -76q45 -55 45 -137q0 -92 -59 -150q-63 -62 -177 -62q-106 0 -168 52
q-71 58 -71 162q0 103 73 161q62 50 168 50zM588 1529q-69 0 -105 -44q-24 -30 -24 -77q0 -50 32 -83q36 -35 97 -35t97 33q35 32 35 88t-42 90q-35 28 -90 28z" />
    <glyph glyph-name="Uhungarumlaut" unicode="&#x170;" horiz-adv-x="1485" vert-adv-y="1433" 
d="M139 1544h209v-956q0 -238 108 -348q96 -97 288 -97q207 0 303 119q88 109 88 326v956h208v-956q0 -286 -129 -441q-153 -184 -469 -184q-606 0 -606 625v956zM471 1659l113 272h178l-154 -272h-137zM768 1659l115 272h178l-154 -272h-139z" />
    <glyph glyph-name="uhungarumlaut" unicode="&#x171;" horiz-adv-x="1182" vert-adv-y="1433" 
d="M131 1081h195v-710q0 -246 225 -246q146 0 229 127q76 115 76 283v546h195v-1081h-189l-6 178q-56 -99 -127 -151q-88 -64 -231 -64q-146 0 -241 74q-126 98 -126 297v747zM334 1272l113 272h178l-154 -272h-137zM631 1272l115 272h178l-154 -272h-139z" />
    <glyph glyph-name="Uogonek" unicode="&#x172;" horiz-adv-x="1485" vert-adv-y="1433" 
d="M883 -28q-61 -59 -61 -128q0 -75 79 -75q45 0 101 43v-126q-65 -44 -136 -44q-87 0 -141 54q-41 42 -41 108q0 87 77 159h-7h-11q-604 0 -604 625v956h209v-956q0 -238 108 -348q96 -97 288 -97q207 0 303 119q88 109 88 326v956h208v-956q0 -541 -460 -616z" />
    <glyph glyph-name="uogonek" unicode="&#x173;" horiz-adv-x="1182" vert-adv-y="1433" 
d="M1009 0q-5 -4 -11 -9q-82 -65 -82 -147q0 -75 79 -75q44 0 101 43v-126q-65 -44 -136 -44q-87 0 -141 54q-41 42 -41 109q0 115 126 195h-42l-6 178q-56 -99 -127 -151q-88 -64 -231 -64q-146 0 -241 74q-126 98 -126 297v747h195v-710q0 -246 225 -246q146 0 229 127
q76 115 76 283v546h195v-1081h-42z" />
    <glyph glyph-name="Zacute" unicode="&#x179;" horiz-adv-x="1296" vert-adv-y="1433" 
d="M74 0v180l901 1180h-871v184h1108v-180l-901 -1180h918v-184h-1155zM496 1659l189 272h221l-234 -272h-176z" />
    <glyph glyph-name="zacute" unicode="&#x17a;" horiz-adv-x="975" vert-adv-y="1433" 
d="M59 0v145l611 783h-582v153h807v-145l-614 -782h637v-154h-859zM352 1272l189 272h221l-234 -272h-176z" />
    <glyph glyph-name="Zdotaccent" unicode="&#x17b;" horiz-adv-x="1296" vert-adv-y="1433" 
d="M74 0v180l901 1180h-871v184h1108v-180l-901 -1180h918v-184h-1155zM576 1675v235h182v-235h-182z" />
    <glyph glyph-name="zdotaccent" unicode="&#x17c;" horiz-adv-x="975" vert-adv-y="1433" 
d="M59 0v145l611 783h-582v153h807v-145l-614 -782h637v-154h-859zM405 1292v235h182v-235h-182z" />
    <glyph glyph-name="Zcaron" unicode="&#x17d;" horiz-adv-x="1296" vert-adv-y="1433" 
d="M74 0v180l901 1180h-871v184h1108v-180l-901 -1180h918v-184h-1155zM570 1659l-248 272h184l164 -160l164 160h184l-248 -272h-200z" />
    <glyph glyph-name="zcaron" unicode="&#x17e;" horiz-adv-x="975" vert-adv-y="1433" 
d="M59 0v145l611 783h-582v153h807v-145l-614 -782h637v-154h-859zM401 1272l-248 272h184l164 -160l164 160h184l-248 -272h-200z" />
    <glyph glyph-name="uni018F" unicode="&#x18f;" horiz-adv-x="1636" vert-adv-y="1433" 
d="M354 1070l-209 51q50 183 162 293q89 87 228 131q126 40 263 40q229 0 397 -95q171 -97 259 -287q86 -183 86 -431q0 -380 -193 -595q-193 -214 -529 -214q-302 0 -490 174q-112 105 -171 264q-61 162 -61 351q0 36 5 112h216h1002q-15 190 -101 328q-137 215 -401 215
q-229 0 -353 -132q-55 -58 -83 -129q-13 -32 -27 -76zM317 679q15 -190 100 -326q136 -216 398 -216q243 0 380 182q102 137 124 360h-1002z" />
    <glyph glyph-name="uni0259" unicode="&#x259;" horiz-adv-x="1159" vert-adv-y="1433" 
d="M80 585h800q-7 127 -40 205q-72 170 -279 170q-220 0 -287 -211l-172 64q104 305 468 305q225 0 358 -135q151 -153 151 -440q0 -259 -125 -413q-136 -167 -385 -167q-266 0 -392 174q-54 73 -79 187q-18 84 -18 165v96zM878 440h-602q16 -328 293 -328q162 0 244 125
q50 76 65 203z" />
    <glyph glyph-name="uni037E" unicode="&#x37e;" horiz-adv-x="520" vert-adv-y="1433" 
d="M180 -395l-82 82q70 73 99 123q47 78 47 163v27h-103v281h238v-267q0 -229 -199 -409zM141 801v280h238v-280h-238z" />
    <glyph glyph-name="tonos" unicode="&#x384;" horiz-adv-x="894" vert-adv-y="1433" 
d="M382 1020l-50 457v182h230v-182l-49 -457h-131z" />
    <glyph glyph-name="dieresistonos" unicode="&#x385;" horiz-adv-x="977" vert-adv-y="1433" 
d="M201 1271v229h183v-229h-183zM597 1271v229h182v-229h-182zM389 1819h204v-199l-58 -223h-88l-58 223v199z" />
    <glyph glyph-name="Alphatonos" unicode="&#x386;" horiz-adv-x="1427" vert-adv-y="1433" 
d="M0 0l582 1544h264l581 -1544h-221l-137 379h-731l-139 -379h-199zM406 557h598l-297 815zM109 905l-50 457v182h230v-182l-49 -457h-131z" />
    <glyph glyph-name="anoteleia" unicode="&#x387;" horiz-adv-x="520" vert-adv-y="1433" 
d="M141 590v280h238v-280h-238z" />
    <glyph glyph-name="Epsilontonos" unicode="&#x388;" horiz-adv-x="1512" vert-adv-y="1433" 
d="M327 0v1544h1073v-184h-865v-481h820v-185h-820v-510h900v-184h-1108zM38 905l-50 457v182h230v-182l-49 -457h-131z" />
    <glyph glyph-name="Etatonos" unicode="&#x389;" horiz-adv-x="1704" vert-adv-y="1433" 
d="M328 0v1544h208v-633h807v633h209v-1544h-209v723h-807v-723h-208zM38 905l-50 457v182h230v-182l-49 -457h-131z" />
    <glyph glyph-name="Iotatonos" unicode="&#x38a;" horiz-adv-x="687" vert-adv-y="1433" 
d="M327 0v1544h208v-1544h-208zM38 905l-50 457v182h230v-182l-49 -457h-131z" />
    <glyph glyph-name="Omicrontonos" unicode="&#x38c;" horiz-adv-x="1789" vert-adv-y="1433" 
d="M970 1581q338 0 530 -213q193 -215 193 -596q0 -380 -193 -595q-193 -214 -525 -214q-306 0 -494 174q-232 216 -232 636q0 380 193 595q192 213 528 213zM970 1407q-240 0 -377 -182q-127 -170 -127 -453q0 -282 127 -453q137 -182 372 -182q222 0 356 150
q155 173 155 485q0 283 -128 453q-138 182 -378 182zM38 905l-50 457v182h230v-182l-49 -457h-131z" />
    <glyph glyph-name="Upsilontonos" unicode="&#x38e;" horiz-adv-x="1618" vert-adv-y="1433" 
d="M867 0v602l-541 942h225l430 -758l422 758h215l-540 -942v-602h-211zM38 905l-50 457v182h230v-182l-49 -457h-131z" />
    <glyph glyph-name="Omegatonos" unicode="&#x38f;" horiz-adv-x="1786" vert-adv-y="1433" 
d="M217 0v185h401q-100 60 -150 104q-219 196 -219 554q0 339 193 530q112 112 272 166q123 42 256 42q225 0 411 -116q309 -193 309 -623q0 -273 -129 -452q-66 -92 -162 -156q-33 -22 -78 -49h401v-185h-626v175q170 103 247 211q130 181 130 454q0 252 -124 402
q-137 165 -379 165q-174 0 -301 -92q-203 -147 -203 -475q0 -274 130 -454q77 -108 247 -211v-175h-626zM38 905l-50 457v182h230v-182l-49 -457h-131z" />
    <glyph glyph-name="iotadieresistonos" unicode="&#x390;" horiz-adv-x="387" vert-adv-y="1433" 
d="M92 1907h204v-209l-58 -234h-88l-58 234v209zM96 0v1081h195v-1081h-195zM-96 1285v229h183v-229h-183zM300 1285v229h182v-229h-182z" />
    <glyph glyph-name="Alpha" unicode="&#x391;" horiz-adv-x="1427" vert-adv-y="1433" 
d="M0 0l582 1544h264l581 -1544h-221l-137 379h-731l-139 -379h-199zM406 557h598l-297 815z" />
    <glyph glyph-name="Beta" unicode="&#x392;" horiz-adv-x="1442" vert-adv-y="1433" 
d="M152 0v1544h645q258 0 380 -108q107 -96 107 -270q0 -227 -197 -332q117 -40 180 -107q91 -99 91 -274q0 -453 -588 -453h-618zM356 172h402q183 0 275 60q106 69 106 222q0 176 -131 241q-76 38 -228 38h-424v-561zM356 905h389q322 0 322 235q0 133 -91 188
q-74 44 -216 44h-404v-467z" />
    <glyph glyph-name="Gamma" unicode="&#x393;" horiz-adv-x="1229" vert-adv-y="1433" 
d="M152 1544h1038v-184h-830v-1360h-208v1544z" />
    <glyph glyph-name="uni0394" unicode="&#x394;" horiz-adv-x="1427" vert-adv-y="1433" 
d="M0 0l582 1544h264l581 -1544h-1427zM268 184h872l-433 1188z" />
    <glyph glyph-name="Epsilon" unicode="&#x395;" horiz-adv-x="1337" vert-adv-y="1433" 
d="M152 0v1544h1073v-184h-865v-481h820v-185h-820v-510h900v-184h-1108z" />
    <glyph glyph-name="Zeta" unicode="&#x396;" horiz-adv-x="1296" vert-adv-y="1433" 
d="M74 0v180l901 1180h-871v184h1108v-180l-901 -1180h918v-184h-1155z" />
    <glyph glyph-name="Eta" unicode="&#x397;" horiz-adv-x="1528" vert-adv-y="1433" 
d="M152 0v1544h208v-633h807v633h209v-1544h-209v723h-807v-723h-208z" />
    <glyph glyph-name="Theta" unicode="&#x398;" horiz-adv-x="1636" vert-adv-y="1433" 
d="M472 679v185h692v-185h-692zM817 1581q338 0 530 -213q193 -215 193 -596q0 -380 -193 -595q-193 -214 -525 -214q-306 0 -494 174q-232 216 -232 636q0 380 193 595q192 213 528 213zM817 1407q-240 0 -377 -182q-127 -170 -127 -453q0 -282 127 -453q137 -182 372 -182
q222 0 356 150q155 173 155 485q0 283 -128 453q-138 182 -378 182z" />
    <glyph glyph-name="Iota" unicode="&#x399;" horiz-adv-x="510" vert-adv-y="1433" 
d="M152 0v1544h208v-1544h-208z" />
    <glyph glyph-name="Kappa" unicode="&#x39a;" horiz-adv-x="1407" vert-adv-y="1433" 
d="M152 0v1544h208v-715l717 715h256l-594 -596l676 -948h-270l-553 799l-232 -232v-567h-208z" />
    <glyph glyph-name="Lambda" unicode="&#x39b;" horiz-adv-x="1427" vert-adv-y="1433" 
d="M707 1372l-508 -1372h-199l582 1544h264l581 -1544h-221z" />
    <glyph glyph-name="Mu" unicode="&#x39c;" horiz-adv-x="1855" vert-adv-y="1433" 
d="M152 0v1544h319l453 -1321l471 1321h309v-1544h-199v1341l-481 -1341h-213l-461 1341v-1341h-198z" />
    <glyph glyph-name="Nu" unicode="&#x39d;" horiz-adv-x="1511" vert-adv-y="1433" 
d="M152 0v1544h241l764 -1261v1261h203v-1544h-242l-764 1264v-1264h-202z" />
    <glyph glyph-name="Xi" unicode="&#x39e;" horiz-adv-x="1398" vert-adv-y="1433" 
d="M1180 879v-185h-962v185h962zM152 184h1094v-184h-1094v184zM152 1544h1094v-184h-1094v184z" />
    <glyph glyph-name="Omicron" unicode="&#x39f;" horiz-adv-x="1636" vert-adv-y="1433" 
d="M817 1581q338 0 530 -213q193 -215 193 -596q0 -380 -193 -595q-193 -214 -525 -214q-306 0 -494 174q-232 216 -232 636q0 380 193 595q192 213 528 213zM817 1407q-240 0 -377 -182q-127 -170 -127 -453q0 -282 127 -453q137 -182 372 -182q222 0 356 150
q155 173 155 485q0 283 -128 453q-138 182 -378 182z" />
    <glyph glyph-name="Pi" unicode="&#x3a0;" horiz-adv-x="1512" vert-adv-y="1433" 
d="M1360 1544v-1544h-208v1360h-792v-1360h-208v1544h1208z" />
    <glyph glyph-name="Rho" unicode="&#x3a1;" horiz-adv-x="1358" vert-adv-y="1433" 
d="M152 0v1544h657q262 0 390 -157q97 -119 97 -315q0 -215 -143 -343q-143 -127 -385 -127h-412v-602h-204zM356 774h414q138 0 222 76q93 83 93 226q0 159 -103 236q-79 60 -206 60h-420v-598z" />
    <glyph glyph-name="Sigma" unicode="&#x3a3;" horiz-adv-x="1337" vert-adv-y="1433" 
d="M152 0v184l493 605l-493 571v184h1073v-184h-865l529 -571l-529 -605h900v-184h-1108z" />
    <glyph glyph-name="Tau" unicode="&#x3a4;" horiz-adv-x="1391" vert-adv-y="1433" 
d="M590 0v1360h-547v184h1303v-184h-547v-1360h-209z" />
    <glyph glyph-name="Upsilon" unicode="&#x3a5;" horiz-adv-x="1292" vert-adv-y="1433" 
d="M541 0v602l-541 942h225l430 -758l422 758h215l-540 -942v-602h-211z" />
    <glyph glyph-name="Phi" unicode="&#x3a6;" horiz-adv-x="1651" vert-adv-y="1433" 
d="M721 188q-122 8 -209 35q-199 63 -310 215q-106 145 -106 334q0 227 149 388q137 146 374 186q27 5 95 12h7v186h208v-186q120 -8 230 -42q204 -64 304 -217q91 -137 91 -327q0 -268 -177 -425q-166 -146 -448 -159v-188h-208v188zM929 1185v-823q86 6 152 32
q256 101 256 378q0 193 -120 300q-111 101 -288 113zM721 362v823q-90 -6 -154 -31q-254 -98 -254 -382q0 -191 123 -297q116 -102 285 -113z" />
    <glyph glyph-name="Chi" unicode="&#x3a7;" horiz-adv-x="1300" vert-adv-y="1433" 
d="M0 0l537 795l-498 749h233l381 -581l387 581h217l-493 -737l536 -807h-237l-418 639l-422 -639h-223z" />
    <glyph glyph-name="Psi" unicode="&#x3a8;" horiz-adv-x="1653" vert-adv-y="1433" 
d="M723 467v1077h208v-1077q134 8 227 55q100 51 140 133q43 87 48 225q3 89 3 204v460h208v-460q0 -278 -40 -411q-65 -217 -293 -318q-127 -56 -293 -63v-292h-208v292q-167 7 -293 63q-251 111 -309 375q-25 117 -25 354v460h208v-460q0 -251 20 -342q57 -255 399 -275z
" />
    <glyph glyph-name="uni03A9" unicode="&#x3a9;" horiz-adv-x="1633" vert-adv-y="1433" 
d="M64 0v185h401q-100 60 -150 104q-219 196 -219 554q0 339 193 530q112 112 272 166q123 42 256 42q225 0 411 -116q309 -193 309 -623q0 -273 -129 -452q-66 -92 -162 -156q-33 -22 -78 -49h401v-185h-626v175q170 103 247 211q130 181 130 454q0 252 -124 402
q-137 165 -379 165q-174 0 -301 -92q-203 -147 -203 -475q0 -274 130 -454q77 -108 247 -211v-175h-626z" />
    <glyph glyph-name="Iotadieresis" unicode="&#x3aa;" horiz-adv-x="512" vert-adv-y="1433" 
d="M152 0v1544h208v-1544h-208zM-30 1678v229h183v-229h-183zM366 1678v229h182v-229h-182z" />
    <glyph glyph-name="Upsilondieresis" unicode="&#x3ab;" horiz-adv-x="1292" vert-adv-y="1433" 
d="M541 0v602l-541 942h225l430 -758l422 758h215l-540 -942v-602h-211zM365 1678v229h183v-229h-183zM761 1678v229h182v-229h-182z" />
    <glyph glyph-name="alphatonos" unicode="&#x3ac;" horiz-adv-x="1360" vert-adv-y="1433" 
d="M494 1678h204v-209l-58 -234h-88l-58 234v209zM1307 1081l-203 -514l224 -567h-195l-123 347q-56 -132 -114 -212q-126 -172 -336 -172q-219 0 -354 173q-126 162 -126 402q0 162 66 302q63 132 187 209q111 69 238 69q131 0 239 -74q107 -73 198 -267l107 304h192z
M925 567q-81 211 -147 292q-84 104 -196 104q-145 0 -233 -140q-70 -111 -70 -282q0 -212 103 -326q84 -95 192 -95q119 0 214 137q48 70 94 186q46 117 43 124z" />
    <glyph glyph-name="epsilontonos" unicode="&#x3ad;" horiz-adv-x="1036" vert-adv-y="1433" 
d="M427 1678h204v-209l-58 -234h-88l-58 234v209zM643 636v-145q-33 1 -43 1q-101 0 -173 -16q-148 -34 -148 -161q0 -96 81 -152q62 -43 159 -43q225 0 281 250l186 -49q-103 -361 -466 -361q-200 0 -322 103q-118 99 -118 243q0 111 77 192q46 49 124 75q-68 36 -106 81
q-66 79 -66 173q0 92 62 161q115 130 350 130q358 0 443 -338l-188 -49q-30 111 -82 164q-65 66 -179 66q-86 0 -148 -47q-59 -45 -59 -113q0 -48 31 -82q72 -83 260 -83h44z" />
    <glyph glyph-name="etatonos" unicode="&#x3ae;" horiz-adv-x="1114" vert-adv-y="1433" 
d="M532 1678h204v-209l-58 -234h-88l-58 234v209zM96 0v1081h191l4 -176q55 97 131 150q92 63 234 63q179 0 277 -109q85 -96 85 -259v-1143h-195v1091q0 260 -227 260q-146 0 -230 -128q-75 -115 -75 -285v-545h-195z" />
    <glyph glyph-name="iotatonos" unicode="&#x3af;" horiz-adv-x="477" vert-adv-y="1433" 
d="M137 1678h204v-209l-58 -234h-88l-58 234v209zM141 0v1081h195v-1081h-195z" />
    <glyph glyph-name="upsilondieresistonos" unicode="&#x3b0;" horiz-adv-x="1064" vert-adv-y="1433" 
d="M773 1081h195v-747q0 -208 -158 -305q-107 -66 -278 -66q-182 0 -291 74q-145 98 -145 297v747h195v-710q0 -250 241 -250t241 250v710zM241 1331v229h183v-229h-183zM637 1331v229h182v-229h-182zM429 1879h204v-199l-58 -223h-88l-58 223v199z" />
    <glyph glyph-name="alpha" unicode="&#x3b1;" horiz-adv-x="1360" vert-adv-y="1433" 
d="M1307 1081l-203 -514l224 -567h-195l-123 347q-56 -132 -114 -212q-126 -172 -336 -172q-219 0 -354 173q-126 162 -126 402q0 162 66 302q63 132 187 209q111 69 238 69q131 0 239 -74q107 -73 198 -267l107 304h192zM925 567q-81 211 -147 292q-84 104 -196 104
q-145 0 -233 -140q-70 -111 -70 -282q0 -212 103 -326q84 -95 192 -95q119 0 214 137q48 70 94 186q46 117 43 124z" />
    <glyph glyph-name="beta" unicode="&#x3b2;" horiz-adv-x="1214" vert-adv-y="1433" 
d="M797 868q338 -41 338 -413q0 -207 -122 -339q-125 -134 -334 -134q-125 0 -212 35q-71 28 -141 84v-494h-195v1456q0 291 148 404q127 98 331 98q208 0 333 -106q104 -89 104 -242q0 -248 -250 -349zM326 302q151 -155 315 -155q132 0 213 83q78 80 78 230
q0 167 -100 238q-96 70 -300 70h-22v168h22q181 0 264 100q54 64 54 169q0 113 -81 168q-64 42 -174 42q-269 0 -269 -352v-761z" />
    <glyph glyph-name="gamma" unicode="&#x3b3;" horiz-adv-x="1063" vert-adv-y="1433" 
d="M1063 1081l-408 -1081v-393h-195v393l-460 1081h209l344 -848l313 848h197z" />
    <glyph glyph-name="delta" unicode="&#x3b4;" horiz-adv-x="1192" vert-adv-y="1433" 
d="M569 1117l-29 10l-340 259v158h803v-164h-542l314 -236q122 -91 169 -138q17 -16 42 -55q64 -95 73 -119q53 -133 53 -291q0 -259 -126 -411q-138 -167 -389 -167q-230 0 -366 138q-151 154 -151 440q0 299 165 452q121 112 324 124zM592 961q-154 0 -238 -121
q-75 -110 -75 -299q0 -192 75 -300q84 -120 239 -120q151 0 236 108q84 106 84 318q0 213 -101 325q-80 89 -220 89z" />
    <glyph glyph-name="epsilon" unicode="&#x3b5;" horiz-adv-x="1036" vert-adv-y="1433" 
d="M643 636v-145q-33 1 -43 1q-101 0 -173 -16q-148 -34 -148 -161q0 -96 81 -152q62 -43 159 -43q225 0 281 250l186 -49q-103 -361 -466 -361q-200 0 -322 103q-118 99 -118 243q0 111 77 192q46 49 124 75q-68 36 -106 81q-66 79 -66 173q0 92 62 161q115 130 350 130
q358 0 443 -338l-188 -49q-30 111 -82 164q-65 66 -179 66q-86 0 -148 -47q-59 -45 -59 -113q0 -48 31 -82q72 -83 260 -83h44z" />
    <glyph glyph-name="zeta" unicode="&#x3b6;" horiz-adv-x="1000" vert-adv-y="1433" 
d="M164 1380v164h739v-164q-234 -131 -375 -296q-251 -293 -251 -575q0 -183 106 -238q62 -32 203 -46l98 -10q113 -11 174 -42q96 -51 96 -187q0 -100 -55 -252q-11 -29 -48 -127h-196q52 137 65 175q35 100 35 162q0 64 -38 85q-29 15 -107 22l-93 8q-150 13 -236 51
q-103 46 -151 147q-50 104 -50 236q0 356 279 675q112 129 240 212h-435z" />
    <glyph glyph-name="eta" unicode="&#x3b7;" horiz-adv-x="1183" vert-adv-y="1433" 
d="M131 0v1081h191l4 -176q55 97 131 150q92 63 234 63q179 0 277 -109q85 -96 85 -259v-1143h-195v1091q0 260 -227 260q-146 0 -230 -128q-75 -115 -75 -285v-545h-195z" />
    <glyph glyph-name="theta" unicode="&#x3b8;" horiz-adv-x="1259" vert-adv-y="1433" 
d="M628 1544q535 0 535 -791q0 -790 -533 -790q-534 0 -534 790q0 791 532 791zM956 842q-21 540 -328 540q-304 0 -325 -540h653zM302 674q4 -211 59 -348q79 -201 268 -201q160 0 244 147q66 115 83 395v7h-654z" />
    <glyph glyph-name="iota" unicode="&#x3b9;" horiz-adv-x="477" vert-adv-y="1433" 
d="M141 0v1081h195v-1081h-195z" />
    <glyph glyph-name="kappa" unicode="&#x3ba;" horiz-adv-x="1096" vert-adv-y="1433" 
d="M141 0v1081h195v-443l444 443h241l-424 -426l467 -655h-241l-360 520l-127 -127v-393h-195z" />
    <glyph glyph-name="lambda" unicode="&#x3bb;" horiz-adv-x="1063" vert-adv-y="1433" 
d="M0 0l408 1080l-191 464h189l657 -1544h-209l-344 847l-313 -847h-197z" />
    <glyph glyph-name="uni03BC" unicode="&#x3bc;" horiz-adv-x="1181" vert-adv-y="1433" 
d="M131 -393v1474h195v-710q0 -246 225 -246q146 0 229 127q76 115 76 283v546h195v-1081h-189l-6 178q-48 -93 -108 -143q-86 -72 -215 -72q-79 0 -145 33q-40 20 -62 51v-440h-195z" />
    <glyph glyph-name="nu" unicode="&#x3bd;" horiz-adv-x="1014" vert-adv-y="1433" 
d="M381 0l-381 1081h205l305 -917l307 917h197l-383 -1081h-250z" />
    <glyph glyph-name="xi" unicode="&#x3be;" horiz-adv-x="999" vert-adv-y="1433" 
d="M114 1380v164h787v-164h-191q-151 0 -227 -42q-54 -29 -88 -87q-29 -51 -29 -106q0 -88 69 -152q87 -82 309 -82h29v-154h-36q-188 0 -294 -44q-81 -33 -128 -111q-37 -60 -37 -133q0 -86 52 -152q42 -54 135 -74q48 -11 120 -18l98 -10q113 -11 174 -42q96 -51 96 -187
q0 -101 -55 -252q-11 -29 -48 -127h-196q52 138 64 175q35 100 35 162q0 64 -38 85q-29 15 -106 22l-93 8q-152 13 -236 51q-98 45 -151 147q-49 95 -49 204q0 184 128 284q73 57 199 93q-92 26 -142 71q-98 87 -98 220q0 161 148 251h-201z" />
    <glyph glyph-name="omicron" unicode="&#x3bf;" horiz-adv-x="1192" vert-adv-y="1433" 
d="M596 1118q252 0 390 -166q126 -152 126 -411q0 -258 -126 -411q-138 -167 -386 -167q-233 0 -369 138q-151 155 -151 440q0 259 125 411q138 166 391 166zM592 961q-154 0 -238 -121q-75 -110 -75 -299q0 -192 75 -300q84 -120 239 -120q151 0 236 108q84 106 84 318
q0 213 -101 325q-80 89 -220 89z" />
    <glyph glyph-name="rho" unicode="&#x3c1;" horiz-adv-x="1208" vert-adv-y="1433" 
d="M289 63v-456h-195l2 930q0 263 125 415q138 166 390 166t391 -166q126 -152 126 -411q0 -258 -126 -411q-138 -167 -389 -167q-194 0 -324 100zM608 961q-154 0 -238 -121q-75 -110 -75 -299q0 -192 75 -300q84 -120 239 -120q150 0 236 108q84 106 84 318
q0 213 -101 325q-80 89 -220 89z" />
    <glyph glyph-name="sigma1" unicode="&#x3c2;" horiz-adv-x="1085" vert-adv-y="1433" 
d="M718 -393q100 250 100 306q0 60 -89 90l-241 80q-127 42 -189 82q-104 68 -162 187q-57 119 -57 245q0 146 76 280q72 125 205 187q114 54 243 54q223 0 341 -145q61 -75 90 -193l-187 -49q-31 111 -82 164q-64 66 -180 66q-143 0 -231 -118q-76 -102 -76 -237
q0 -113 56 -206q50 -83 155 -131q46 -22 143 -55l96 -32q132 -45 164 -60t70 -49q53 -47 53 -124q0 -84 -102 -342h-196z" />
    <glyph glyph-name="sigma" unicode="&#x3c3;" horiz-adv-x="1192" vert-adv-y="1433" 
d="M990 947q122 -148 122 -406t-126 -411q-138 -167 -389 -167q-230 0 -366 138q-151 155 -151 440q0 258 125 410q138 167 395 167h597v-171h-207zM592 961q-154 0 -238 -122q-75 -109 -75 -298q0 -192 75 -300q84 -120 239 -120q151 0 236 108q84 106 84 318
q0 213 -101 325q-80 89 -220 89z" />
    <glyph glyph-name="tau" unicode="&#x3c4;" horiz-adv-x="976" vert-adv-y="1433" 
d="M390 0v910h-358v171h912v-171h-359v-910h-195z" />
    <glyph glyph-name="upsilon" unicode="&#x3c5;" horiz-adv-x="1064" vert-adv-y="1433" 
d="M773 1081h195v-747q0 -208 -158 -305q-107 -66 -278 -66q-182 0 -291 74q-145 98 -145 297v747h195v-710q0 -250 241 -250t241 250v710z" />
    <glyph glyph-name="phi" unicode="&#x3c6;" horiz-adv-x="1393" vert-adv-y="1433" 
d="M597 -393v353q-109 11 -177 34t-131 71q-103 78 -153 201q-56 135 -56 288q0 210 121 361q74 91 169 141q27 14 85 38v-171q-80 -44 -116 -110q-60 -110 -60 -268q0 -233 119 -346q67 -65 199 -80v997q46 2 78 2q187 0 319 -57q164 -71 247 -230q72 -137 72 -299
q0 -198 -99 -344q-110 -161 -299 -210q-45 -12 -123 -18v-353h-195zM792 117q141 14 212 94q110 126 110 353q0 221 -121 332q-77 71 -201 80v-859z" />
    <glyph glyph-name="chi" unicode="&#x3c7;" horiz-adv-x="992" vert-adv-y="1433" 
d="M12 -393l379 757l-354 717h215l247 -513l252 513h201l-352 -704l381 -770h-217l-273 564l-276 -564h-203z" />
    <glyph glyph-name="psi" unicode="&#x3c8;" horiz-adv-x="1353" vert-adv-y="1433" 
d="M774 1081v-955q86 8 130 27q111 47 143 159q15 53 15 178v591h195v-595q0 -171 -33 -244q-62 -139 -224 -216q-89 -43 -226 -58v-361h-195v361q-260 29 -389 179q-60 68 -79 146q-15 58 -15 193v595h195v-591q0 -149 26 -209q45 -104 161 -138q34 -11 101 -17v955h195z
" />
    <glyph glyph-name="omega" unicode="&#x3c9;" horiz-adv-x="1457" vert-adv-y="1433" 
d="M631 822h195v-409q0 -130 21 -189q17 -46 54 -74q38 -29 89 -29q55 0 89 32q48 44 70 117q29 97 29 206q0 352 -249 605h220q69 -71 119 -160q109 -197 109 -436q0 -266 -128 -414q-93 -108 -241 -108q-175 0 -280 156q-41 -58 -79 -88q-84 -68 -202 -68q-148 0 -241 108
q-126 149 -126 414q0 239 109 436q50 90 118 160h221q-249 -255 -249 -606q0 -238 101 -326q33 -28 84 -28q72 0 117 55q37 44 46 123q4 35 4 114v409z" />
    <glyph glyph-name="iotadieresis" unicode="&#x3ca;" horiz-adv-x="477" vert-adv-y="1433" 
d="M141 0v1081h195v-1081h-195zM-51 1295v229h183v-229h-183zM345 1295v229h182v-229h-182z" />
    <glyph glyph-name="upsilondieresis" unicode="&#x3cb;" horiz-adv-x="1064" vert-adv-y="1433" 
d="M773 1081h195v-747q0 -208 -158 -305q-107 -66 -278 -66q-182 0 -291 74q-145 98 -145 297v747h195v-710q0 -250 241 -250t241 250v710zM245 1295v229h183v-229h-183zM641 1295v229h182v-229h-182z" />
    <glyph glyph-name="omicrontonos" unicode="&#x3cc;" horiz-adv-x="1192" vert-adv-y="1433" 
d="M490 1678h204v-209l-58 -234h-88l-58 234v209zM596 1118q252 0 390 -166q126 -152 126 -411q0 -258 -126 -411q-138 -167 -386 -167q-233 0 -369 138q-151 155 -151 440q0 259 125 411q138 166 391 166zM592 961q-154 0 -238 -121q-75 -110 -75 -299q0 -192 75 -300
q84 -120 239 -120q151 0 236 108q84 106 84 318q0 213 -101 325q-80 89 -220 89z" />
    <glyph glyph-name="upsilontonos" unicode="&#x3cd;" horiz-adv-x="1064" vert-adv-y="1433" 
d="M430 1678h204v-209l-58 -234h-88l-58 234v209zM773 1081h195v-747q0 -208 -158 -305q-107 -66 -278 -66q-182 0 -291 74q-145 98 -145 297v747h195v-710q0 -250 241 -250t241 250v710z" />
    <glyph glyph-name="omegatonos" unicode="&#x3ce;" horiz-adv-x="1457" vert-adv-y="1433" 
d="M627 1678h204v-209l-58 -234h-88l-58 234v209zM631 822h195v-409q0 -130 21 -189q17 -46 54 -74q38 -29 89 -29q55 0 89 32q48 44 70 117q29 97 29 206q0 352 -249 605h220q69 -71 119 -160q109 -197 109 -436q0 -266 -128 -414q-93 -108 -241 -108q-175 0 -280 156
q-41 -58 -79 -88q-84 -68 -202 -68q-148 0 -241 108q-126 149 -126 414q0 239 109 436q50 90 118 160h221q-249 -255 -249 -606q0 -238 101 -326q33 -28 84 -28q72 0 117 55q37 44 46 123q4 35 4 114v409z" />
    <glyph glyph-name="theta1" unicode="&#x3d1;" horiz-adv-x="1121" vert-adv-y="1433" 
d="M7 643h269l1 -14q7 -225 33 -303q60 -178 232 -178q207 0 262 251q21 93 22 299q-281 0 -454 112q-216 139 -216 377q0 185 129 293q102 85 250 85q158 0 276 -93q117 -91 167 -241q39 -115 47 -360q33 1 92 7v-170q-53 -6 -92 -7q-1 -294 -63 -448q-117 -290 -424 -290
q-269 0 -379 229q-58 122 -64 285h-88v166zM827 868v25v22q0 177 -39 277q-44 115 -130 163q-58 32 -124 32q-72 0 -122 -45q-62 -57 -62 -153q0 -168 177 -259q120 -62 300 -62z" />
    <glyph glyph-name="phi1" unicode="&#x3d5;" horiz-adv-x="1410" vert-adv-y="1433" 
d="M608 -393v352q-169 11 -280 78q-122 73 -183 202q-65 138 -65 298q0 237 124 391q112 139 299 175q38 7 105 12v254h195v-254q168 -11 278 -78q123 -74 184 -202q65 -137 65 -298q0 -237 -124 -391q-112 -139 -299 -175q-38 -7 -104 -12v-352h-195zM607 957
q-108 -10 -176 -58q-153 -111 -153 -363q0 -249 153 -361q68 -48 176 -58v840zM802 957v-840q108 10 176 58q153 112 153 361q0 251 -154 363q-67 48 -175 58z" />
    <glyph glyph-name="afii10023" unicode="&#x401;" horiz-adv-x="1337" vert-adv-y="1433" 
d="M152 0v1544h1073v-184h-865v-481h820v-185h-820v-510h900v-184h-1108zM402 1678v229h183v-229h-183zM798 1678v229h182v-229h-182z" />
    <glyph glyph-name="afii10051" unicode="&#x402;" horiz-adv-x="1442" vert-adv-y="1433" 
d="M336 0v1360h-330v184h891v-184h-353v-485q131 166 336 166q185 0 311 -123q99 -96 99 -237v-352q0 -138 -105 -237q-97 -92 -216 -92h-306v174h304q52 0 85 40q30 37 30 100v358q0 73 -36 118q-64 78 -196 78q-145 0 -241 -93q-65 -62 -65 -159v-616h-208z" />
    <glyph glyph-name="afii10052" unicode="&#x403;" horiz-adv-x="1337" vert-adv-y="1433" 
d="M152 1544h1073v-184h-865v-1360h-208v1544zM407 1659l189 272h221l-234 -272h-176z" />
    <glyph glyph-name="afii10053" unicode="&#x404;" horiz-adv-x="1529" vert-adv-y="1433" 
d="M323 879h606v-185h-611q13 -218 98 -352q127 -201 383 -201q169 0 287 93q122 95 159 315l217 -31q-53 -238 -172 -366q-176 -189 -496 -189q-287 0 -466 163q-232 210 -232 632q0 387 188 605q189 218 524 218q510 0 630 -471l-212 -51q-40 137 -101 210
q-112 134 -323 134q-243 0 -371 -189q-86 -126 -108 -335z" />
    <glyph glyph-name="afii10054" unicode="&#x405;" horiz-adv-x="1391" vert-adv-y="1433" 
d="M59 420l205 51q37 -144 102 -214q110 -118 333 -118q185 0 284 72q92 69 92 195q0 123 -76 183q-67 54 -206 79l-244 45q-449 83 -449 432q0 199 152 317q153 119 423 119q327 0 475 -163q82 -90 126 -236l-195 -64q-45 131 -116 196q-103 93 -296 93q-172 0 -264 -68
q-90 -66 -90 -184q0 -101 66 -162q69 -63 219 -90l279 -51q224 -41 325 -151q94 -104 94 -279q0 -210 -145 -329q-158 -130 -461 -130q-277 0 -433 119q-141 108 -200 338z" />
    <glyph glyph-name="afii10055" unicode="&#x406;" horiz-adv-x="510" vert-adv-y="1433" 
d="M152 0v1544h208v-1544h-208z" />
    <glyph glyph-name="afii10056" unicode="&#x407;" horiz-adv-x="510" vert-adv-y="1433" 
d="M152 0v1544h208v-1544h-208zM-34 1678v229h183v-229h-183zM362 1678v229h182v-229h-182z" />
    <glyph glyph-name="afii10057" unicode="&#x408;" horiz-adv-x="1178" vert-adv-y="1433" 
d="M55 444l201 23q34 -332 284 -332q154 0 223 93q66 89 66 261v1055h209v-1050q0 -531 -488 -531q-450 0 -495 481z" />
    <glyph glyph-name="afii10058" unicode="&#x409;" horiz-adv-x="2486" vert-adv-y="1433" 
d="M586 1360v-507q0 -303 -81 -513q-72 -190 -190 -277q-64 -48 -150 -57q-48 -5 -96 -6v174q94 12 151 69q96 97 130 265q28 135 28 340v696h1022v-639h389q191 0 255 -15q173 -41 277 -172q81 -103 81 -266q0 -452 -588 -452h-622v1360h-606zM1400 172h402q183 0 274 60
q107 69 107 222q0 176 -131 241q-76 38 -228 38h-424v-561z" />
    <glyph glyph-name="afii10059" unicode="&#x40a;" horiz-adv-x="2462" vert-adv-y="1433" 
d="M1167 1544h209v-639h389q191 0 255 -15q173 -41 277 -172q81 -103 81 -265q0 -453 -588 -453h-623v733h-807v-733h-208v1544h208v-639h807v639zM1376 172h402q183 0 275 60q106 69 106 222q0 176 -131 241q-76 38 -228 38h-424v-561z" />
    <glyph glyph-name="afii10060" unicode="&#x40b;" horiz-adv-x="1442" vert-adv-y="1433" 
d="M336 0v1360h-330v184h891v-184h-353v-485q129 166 337 166q184 0 310 -123q99 -96 99 -238v-680h-208v672q0 73 -36 118q-64 78 -196 78q-145 0 -241 -93q-65 -62 -65 -159v-616h-208z" />
    <glyph glyph-name="afii10061" unicode="&#x40c;" horiz-adv-x="1343" vert-adv-y="1433" 
d="M152 0v1544h208v-639h246l397 639h229l-452 -730l556 -814h-226l-497 731h-253v-731h-208zM517 1659l189 272h221l-234 -272h-176z" />
    <glyph glyph-name="afii10062" unicode="&#x40e;" horiz-adv-x="1092" vert-adv-y="1433" 
d="M76 28l33 162q67 -23 130 -23q74 0 116 35q40 34 66 102l50 130l-471 1110h215l353 -871l322 871h202l-490 -1299q-41 -109 -95 -162q-84 -85 -230 -85h-11q-85 0 -190 30zM217 1911h154q49 -109 183 -109q143 0 179 109h154q-44 -240 -336 -240q-150 0 -238 68
q-80 63 -96 172z" />
    <glyph glyph-name="afii10145" unicode="&#x40f;" horiz-adv-x="1519" vert-adv-y="1433" 
d="M655 0h-503v1544h208v-1360h798v1360h208v-1544h-503v-352h-208v352z" />
    <glyph glyph-name="afii10017" unicode="&#x410;" horiz-adv-x="1427" vert-adv-y="1433" 
d="M0 0l582 1544h264l581 -1544h-221l-137 379h-731l-139 -379h-199zM406 557h598l-297 815z" />
    <glyph glyph-name="afii10018" unicode="&#x411;" horiz-adv-x="1442" vert-adv-y="1433" 
d="M356 1360v-455h389q191 0 255 -15q173 -41 277 -172q81 -103 81 -265q0 -453 -588 -453h-618v1544l2 -1v1h1067v-184h-865zM356 172h402q183 0 275 60q106 69 106 222q0 176 -131 241q-76 38 -228 38h-424v-561z" />
    <glyph glyph-name="afii10019" unicode="&#x412;" horiz-adv-x="1442" vert-adv-y="1433" 
d="M152 0v1544h645q258 0 380 -108q107 -96 107 -270q0 -227 -197 -332q117 -40 180 -107q91 -99 91 -274q0 -453 -588 -453h-618zM356 172h402q183 0 275 60q106 69 106 222q0 176 -131 241q-76 38 -228 38h-424v-561zM356 905h389q322 0 322 235q0 133 -91 188
q-74 44 -216 44h-404v-467z" />
    <glyph glyph-name="afii10020" unicode="&#x413;" horiz-adv-x="1273" vert-adv-y="1433" 
d="M152 0v1544h1009v-184h-801v-1360h-208z" />
    <glyph glyph-name="afii10021" unicode="&#x414;" horiz-adv-x="1565" vert-adv-y="1433" 
d="M1311 0h-1056v-352h-208v526q112 17 180 100q116 143 157 384q34 197 34 494v392h988v-1370h113v-526h-208v352zM1198 184v1176h-572v-203q0 -391 -69 -653q-56 -211 -148 -320h789z" />
    <glyph glyph-name="afii10022" unicode="&#x415;" horiz-adv-x="1337" vert-adv-y="1433" 
d="M152 0v1544h1073v-184h-865v-481h820v-185h-820v-510h900v-184h-1108z" />
    <glyph glyph-name="afii10024" unicode="&#x416;" horiz-adv-x="2170" vert-adv-y="1433" 
d="M979 0v731h-245l-494 -731h-233l555 814l-457 730h232l398 -639h244v639h208v-639h246l397 639h229l-452 -730l557 -814h-227l-497 731h-253v-731h-208z" />
    <glyph glyph-name="afii10025" unicode="&#x417;" horiz-adv-x="1271" vert-adv-y="1433" 
d="M59 416l204 22q15 -143 92 -219q83 -82 256 -82q155 0 245 61q105 71 105 206q0 177 -158 240q-93 38 -257 39v178q176 6 280 71q109 69 109 204q0 101 -61 158q-79 76 -247 76q-282 0 -333 -262l-201 27q80 409 545 409q266 0 401 -123q114 -104 114 -271
q0 -266 -286 -374q313 -48 313 -365q0 -193 -131 -315q-143 -133 -437 -133q-276 0 -418 135q-124 118 -135 318z" />
    <glyph glyph-name="afii10026" unicode="&#x418;" horiz-adv-x="1511" vert-adv-y="1433" 
d="M1360 0h-202v1264l-764 -1264h-242v1544h203v-1261l764 1261h241v-1544z" />
    <glyph glyph-name="afii10027" unicode="&#x419;" horiz-adv-x="1511" vert-adv-y="1433" 
d="M1360 0h-202v1264l-764 -1264h-242v1544h203v-1261l764 1261h241v-1544zM423 1911h154q49 -109 183 -109q143 0 179 109h154q-44 -240 -336 -240q-150 0 -238 68q-80 63 -96 172z" />
    <glyph glyph-name="afii10028" unicode="&#x41a;" horiz-adv-x="1343" vert-adv-y="1433" 
d="M152 0v1544h208v-639h246l397 639h229l-452 -730l556 -814h-226l-497 731h-253v-731h-208z" />
    <glyph glyph-name="afii10029" unicode="&#x41b;" horiz-adv-x="1586" vert-adv-y="1433" 
d="M1192 1360h-606v-507q0 -303 -81 -513q-72 -190 -190 -277q-64 -48 -150 -57q-48 -5 -96 -6v174q94 12 151 69q96 97 130 265q28 135 28 340v696h1022v-1544h-208v1360z" />
    <glyph glyph-name="afii10030" unicode="&#x41c;" horiz-adv-x="1855" vert-adv-y="1433" 
d="M152 0v1544h319l453 -1321l471 1321h309v-1544h-199v1341l-481 -1341h-213l-461 1341v-1341h-198z" />
    <glyph glyph-name="afii10031" unicode="&#x41d;" horiz-adv-x="1528" vert-adv-y="1433" 
d="M152 0v1544h208v-633h807v633h209v-1544h-209v723h-807v-723h-208z" />
    <glyph glyph-name="afii10032" unicode="&#x41e;" horiz-adv-x="1636" vert-adv-y="1433" 
d="M817 1581q338 0 530 -213q193 -215 193 -596q0 -380 -193 -595q-193 -214 -525 -214q-306 0 -494 174q-232 216 -232 636q0 380 193 595q192 213 528 213zM817 1407q-240 0 -377 -182q-127 -170 -127 -453q0 -282 127 -453q137 -182 372 -182q222 0 356 150
q155 173 155 485q0 283 -128 453q-138 182 -378 182z" />
    <glyph glyph-name="afii10033" unicode="&#x41f;" horiz-adv-x="1518" vert-adv-y="1433" 
d="M152 0v1544h1214v-1544h-208v1360h-798v-1360h-208z" />
    <glyph glyph-name="afii10034" unicode="&#x420;" horiz-adv-x="1358" vert-adv-y="1433" 
d="M152 0v1544h657q262 0 390 -157q97 -119 97 -315q0 -215 -143 -343q-143 -127 -385 -127h-412v-602h-204zM356 774h414q138 0 222 76q93 83 93 226q0 159 -103 236q-79 60 -206 60h-420v-598z" />
    <glyph glyph-name="afii10035" unicode="&#x421;" horiz-adv-x="1505" vert-adv-y="1433" 
d="M1415 1110l-209 -51q-39 137 -99 210q-110 134 -317 134q-239 0 -365 -189q-112 -168 -112 -462q0 -282 119 -442q126 -169 355 -169q166 0 282 93q121 96 156 315l213 -31q-52 -238 -168 -366q-173 -189 -488 -189q-282 0 -458 163q-228 210 -228 632q0 387 185 605
t515 218q501 0 619 -471z" />
    <glyph glyph-name="afii10036" unicode="&#x422;" horiz-adv-x="1391" vert-adv-y="1433" 
d="M590 0v1360h-547v184h1303v-184h-547v-1360h-209z" />
    <glyph glyph-name="afii10037" unicode="&#x423;" horiz-adv-x="1092" vert-adv-y="1433" 
d="M76 28l33 162q67 -23 130 -23q74 0 116 35q40 34 66 102l50 130l-471 1110h215l353 -871l322 871h202l-490 -1299q-41 -109 -95 -162q-84 -85 -230 -85h-11q-85 0 -190 30z" />
    <glyph glyph-name="afii10038" unicode="&#x424;" horiz-adv-x="1619" vert-adv-y="1433" 
d="M705 0v188q-186 11 -322 76q-166 79 -253 231q-71 125 -71 277q0 229 155 388q175 179 491 196v188h208v-188q205 -10 352 -85q156 -79 234 -228q60 -116 60 -271q0 -229 -136 -379q-171 -188 -510 -205v-188h-208zM705 1188q-134 -10 -225 -60q-203 -112 -203 -356
q0 -171 95 -270q124 -129 333 -145v831zM913 1188v-831q131 10 222 61q116 65 166 159q41 79 41 195q0 244 -204 356q-91 50 -225 60z" />
    <glyph glyph-name="afii10039" unicode="&#x425;" horiz-adv-x="1300" vert-adv-y="1433" 
d="M0 0l537 795l-498 749h233l381 -581l387 581h217l-493 -737l536 -807h-237l-418 639l-422 -639h-223z" />
    <glyph glyph-name="afii10040" unicode="&#x426;" horiz-adv-x="1519" vert-adv-y="1433" 
d="M1366 173v1h113v-526h-208v352h-1119v1544h208v-1360h798v1360h208v-1371z" />
    <glyph glyph-name="afii10041" unicode="&#x427;" horiz-adv-x="1421" vert-adv-y="1433" 
d="M1061 0v581q-222 -53 -422 -53q-288 0 -435 136q-108 99 -108 255v625h208v-615q0 -227 375 -227q169 0 382 66v776h208v-1544h-208z" />
    <glyph glyph-name="afii10042" unicode="&#x428;" horiz-adv-x="2297" vert-adv-y="1433" 
d="M152 0v1544h208v-1360h685v1360h208v-1360h685v1360h208v-1544h-1994z" />
    <glyph glyph-name="afii10043" unicode="&#x429;" horiz-adv-x="2302" vert-adv-y="1433" 
d="M2146 174h115v-526h-208v352h-1901v1544h208v-1360h685v1360h208v-1360h685v1360h208v-1370z" />
    <glyph glyph-name="afii10044" unicode="&#x42a;" horiz-adv-x="1821" vert-adv-y="1433" 
d="M735 1544v-639h389q191 0 255 -15q173 -41 277 -172q81 -103 81 -265q0 -453 -588 -453h-618v1360h-531v184l532 -1v1h203zM735 172h402q183 0 274 60q107 69 107 222q0 176 -131 241q-76 38 -228 38h-424v-561z" />
    <glyph glyph-name="afii10045" unicode="&#x42b;" horiz-adv-x="1854" vert-adv-y="1433" 
d="M359 1544v-639h389q191 0 255 -15q173 -41 277 -172q81 -103 81 -265q0 -453 -588 -453h-621v1544h207zM359 172h402q183 0 275 60q106 69 106 222q0 176 -131 241q-76 38 -228 38h-424v-561zM1494 0v1544h208v-1544h-208z" />
    <glyph glyph-name="afii10046" unicode="&#x42c;" horiz-adv-x="1442" vert-adv-y="1433" 
d="M356 1544v-639h389q191 0 255 -15q173 -41 277 -172q81 -103 81 -265q0 -453 -588 -453h-618v1544h204zM356 172h402q183 0 275 60q106 69 106 222q0 176 -131 241q-76 38 -228 38h-424v-561z" />
    <glyph glyph-name="afii10047" unicode="&#x42d;" horiz-adv-x="1529" vert-adv-y="1433" 
d="M1205 879q-21 209 -107 335q-128 189 -372 189q-210 0 -323 -134q-60 -73 -100 -210l-213 51q121 471 631 471q335 0 523 -218q189 -218 189 -605q0 -441 -252 -650q-176 -145 -446 -145q-345 0 -522 218q-98 122 -146 337l217 31q24 -147 83 -234q55 -83 154 -130
q91 -44 209 -44q267 0 393 217q75 131 87 336h-610v185h605z" />
    <glyph glyph-name="afii10048" unicode="&#x42e;" horiz-adv-x="2276" vert-adv-y="1433" 
d="M741 879q21 270 155 448q192 254 562 254q338 0 529 -213q194 -215 194 -596q0 -380 -194 -595q-192 -214 -529 -214q-336 0 -528 214q-172 191 -191 517h-379v-694h-208v1544h208v-665h381zM1458 1407q-240 0 -376 -182q-128 -170 -128 -453q0 -282 128 -453
q136 -182 371 -182q222 0 356 150q155 173 155 485q0 283 -128 453q-138 182 -378 182z" />
    <glyph glyph-name="afii10049" unicode="&#x42f;" horiz-adv-x="1434" vert-adv-y="1433" 
d="M1366 0h-204v633h-420h-13h-13q-13 0 -23 2l-301 -635h-240l334 670q-135 54 -210 166q-73 111 -73 257q0 111 41 213q44 110 158 172q120 66 299 66h665v-1544zM1162 805v567h-420q-322 0 -322 -280q0 -148 91 -221q81 -66 231 -66h420z" />
    <glyph glyph-name="afii10065" unicode="&#x430;" horiz-adv-x="1077" vert-adv-y="1433" 
d="M778 690v74q0 205 -237 205q-141 0 -207 -82q-31 -39 -53 -103l-172 45q31 110 105 178q121 111 336 111q419 0 419 -350v-567q0 -95 35 -201h-185q-21 62 -22 139q-75 -94 -160 -135q-83 -41 -214 -41q-153 0 -248 78q-103 85 -103 239q0 183 123 275q83 61 251 86z
M778 549l-291 -45q-129 -20 -184 -84q-41 -47 -41 -134q0 -85 55 -131q51 -44 140 -44q114 0 201 56q120 79 120 222v160z" />
    <glyph glyph-name="afii10066" unicode="&#x431;" horiz-adv-x="1192" vert-adv-y="1433" 
d="M274 907q4 6 14 22q32 52 47 68q113 121 291 121q237 0 375 -167q126 -151 126 -410q0 -258 -126 -411q-138 -167 -389 -167q-230 0 -365 138q-75 77 -114 191q-38 113 -38 294q0 380 150 583q75 101 189 144q58 21 170 38q117 17 152 29q65 22 75 60q7 27 9 104h206
q-1 -90 -11.5 -133.5t-41.5 -82.5q-56 -71 -172 -104q-59 -17 -188 -35q-119 -17 -174 -46q-110 -58 -156 -161q-13 -30 -29 -75zM607 961q-154 0 -238 -121q-75 -110 -75 -299q0 -192 75 -300q84 -120 239 -120q150 0 236 108q84 106 84 318q0 213 -101 325q-80 89 -220 89
z" />
    <glyph glyph-name="afii10067" unicode="&#x432;" horiz-adv-x="1107" vert-adv-y="1433" 
d="M131 0v1081h504q341 0 341 -265q0 -158 -138 -232q82 -28 125 -75q64 -69 64 -192q0 -317 -411 -317h-485zM326 145h281q221 0 221 175q0 114 -75 156q-43 25 -130 25h-297v-356zM326 646h272q179 0 179 150q0 80 -50 114q-39 26 -118 26h-283v-290z" />
    <glyph glyph-name="afii10068" unicode="&#x433;" horiz-adv-x="888" vert-adv-y="1433" 
d="M131 1081h751v-145h-556v-936h-195v1081z" />
    <glyph glyph-name="afii10069" unicode="&#x434;" horiz-adv-x="1148" vert-adv-y="1433" 
d="M935 0h-722v-352h-195v474q153 71 212 207q49 113 49 403v349h785v-959h66v-474h-195v352zM869 145v791h-395v-201q0 -445 -142 -590h537z" />
    <glyph glyph-name="afii10070" unicode="&#x435;" horiz-adv-x="1151" vert-adv-y="1433" 
d="M1079 496h-800q7 -127 40 -205q73 -170 279 -170q219 0 287 211l172 -64q-104 -305 -468 -305q-225 0 -358 135q-151 153 -151 440q0 259 125 413q136 167 385 167q266 0 392 -174q54 -73 79 -187q18 -84 18 -165v-96zM281 641h602q-16 328 -293 328q-161 0 -244 -125
q-50 -76 -65 -203z" />
    <glyph glyph-name="afii10072" unicode="&#x436;" horiz-adv-x="1559" vert-adv-y="1433" 
d="M682 1081h195v-422h105l314 422h213l-370 -492l420 -589h-219l-349 514h-114v-514h-195v514h-114l-349 -514h-219l420 589l-370 492h213l314 -422h105v422z" />
    <glyph glyph-name="afii10073" unicode="&#x437;" horiz-adv-x="1036" vert-adv-y="1433" 
d="M393 636h44q187 0 260 83q31 34 31 82q0 77 -75 124q-59 36 -133 36q-122 0 -187 -75q-45 -52 -73 -155l-188 49q85 338 443 338q235 0 350 -130q62 -69 62 -161q0 -94 -67 -173q-38 -45 -105 -81q78 -26 124 -75q77 -81 77 -192q0 -170 -157 -272q-114 -74 -283 -74
q-363 0 -466 361l186 49q56 -250 280 -250q112 0 177 57q64 56 64 138q0 127 -149 161q-71 16 -172 16q-10 0 -43 -1v145z" />
    <glyph glyph-name="afii10074" unicode="&#x438;" horiz-adv-x="1114" vert-adv-y="1433" 
d="M983 0h-195v822l-444 -822h-213v1081h195v-820l444 820h213v-1081z" />
    <glyph glyph-name="afii10075" unicode="&#x439;" horiz-adv-x="1114" vert-adv-y="1433" 
d="M983 0h-195v822l-444 -822h-213v1081h195v-820l444 820h213v-1081zM223 1528h154q45 -109 183 -109q143 0 179 109h154q-44 -240 -336 -240q-149 0 -237 68q-81 63 -97 172z" />
    <glyph glyph-name="afii10076" unicode="&#x43a;" horiz-adv-x="1008" vert-adv-y="1433" 
d="M131 1081h195v-422h105l314 422h213l-370 -492l420 -589h-219l-349 514h-114v-514h-195v1081z" />
    <glyph glyph-name="afii10077" unicode="&#x43b;" horiz-adv-x="1208" vert-adv-y="1433" 
d="M32 0v151q87 5 142 53q79 70 103 212q16 95 16 224v441h785v-1081h-195v936h-395v-292q0 -322 -109 -482q-104 -151 -268 -160q-29 -2 -79 -2z" />
    <glyph glyph-name="afii10078" unicode="&#x43c;" horiz-adv-x="1360" vert-adv-y="1433" 
d="M131 0v1081h268l279 -869l290 869h261v-1081h-195v843l-283 -843h-155l-270 839v-839h-195z" />
    <glyph glyph-name="afii10079" unicode="&#x43d;" horiz-adv-x="1119" vert-adv-y="1433" 
d="M131 0v1081h195v-437h467v437h195v-1081h-195v499h-467v-499h-195z" />
    <glyph glyph-name="afii10080" unicode="&#x43e;" horiz-adv-x="1192" vert-adv-y="1433" 
d="M596 1118q252 0 390 -166q126 -152 126 -411q0 -258 -126 -411q-138 -167 -386 -167q-233 0 -369 138q-151 155 -151 440q0 259 125 411q138 166 391 166zM592 961q-154 0 -238 -121q-75 -110 -75 -299q0 -192 75 -300q84 -120 239 -120q151 0 236 108q84 106 84 318
q0 213 -101 325q-80 89 -220 89z" />
    <glyph glyph-name="afii10081" unicode="&#x43f;" horiz-adv-x="1112" vert-adv-y="1433" 
d="M786 0v936h-460v-936h-195v1081h850v-1081h-195z" />
    <glyph glyph-name="afii10082" unicode="&#x440;" horiz-adv-x="1214" vert-adv-y="1433" 
d="M131 -393v1474h186l5 -161q124 198 367 198q149 0 260 -84q186 -141 186 -480q0 -258 -111 -413q-127 -178 -360 -178q-214 0 -338 178v-534h-195zM630 961q-152 0 -236 -129q-75 -115 -75 -300q0 -179 73 -289q81 -122 229 -122q118 0 195 69q116 103 116 356
q0 415 -302 415z" />
    <glyph glyph-name="afii10083" unicode="&#x441;" horiz-adv-x="1094" vert-adv-y="1433" 
d="M1032 780l-188 -49q-30 112 -82 164q-64 66 -184 66q-145 0 -225 -119q-74 -109 -74 -302q0 -192 71 -298q78 -119 230 -119q222 0 278 250l186 -49q-103 -361 -462 -361q-230 0 -360 137q-142 149 -142 438q0 257 122 410q134 170 383 170q362 0 447 -338z" />
    <glyph glyph-name="afii10084" unicode="&#x442;" horiz-adv-x="923" vert-adv-y="1433" 
d="M365 0v936h-359v145h912v-145h-358v-936h-195z" />
    <glyph glyph-name="afii10085" unicode="&#x443;" horiz-adv-x="1063" vert-adv-y="1433" 
d="M74 -395l32 157q66 -22 128 -22q71 0 112 34q38 33 64 99l49 127l-459 1081h209l344 -848l313 848h197l-477 -1265q-40 -106 -92 -158q-82 -82 -224 -82h-11q-85 0 -185 29z" />
    <glyph glyph-name="afii10086" unicode="&#x444;" horiz-adv-x="1466" vert-adv-y="1433" 
d="M830 962v-843q114 11 189 59q167 109 167 362q0 254 -167 363q-75 49 -189 59zM635 962q-115 -10 -190 -59q-167 -109 -167 -363q0 -253 167 -362q75 -48 190 -59v843zM635 -393v356q-177 11 -292 77q-128 73 -194 203q-69 136 -69 298q0 238 132 392q117 137 315 174
q39 7 108 12v242h195v-242q177 -13 292 -78q128 -72 194 -202q69 -136 69 -298q0 -238 -132 -393q-118 -138 -315 -174q-39 -7 -108 -11v-356h-195z" />
    <glyph glyph-name="afii10087" unicode="&#x445;" horiz-adv-x="969" vert-adv-y="1433" 
d="M0 0l379 555l-354 526h215l247 -376l252 376h201l-352 -516l381 -565h-217l-273 414l-276 -414h-203z" />
    <glyph glyph-name="afii10088" unicode="&#x446;" horiz-adv-x="1112" vert-adv-y="1433" 
d="M786 145v936h195v-961h109v-472h-195v352h-764v1081h195v-936h460z" />
    <glyph glyph-name="afii10089" unicode="&#x447;" horiz-adv-x="1032" vert-adv-y="1433" 
d="M901 0h-195v390q-164 -39 -255 -39q-204 0 -294 96q-42 45 -64 119q-13 45 -13 77v438h195v-431q0 -125 202 -125q90 0 229 30v526h195v-1081z" />
    <glyph glyph-name="afii10090" unicode="&#x448;" horiz-adv-x="1787" vert-adv-y="1433" 
d="M1656 0h-1525v1081h195v-947h461v947h195v-947h479v947h195v-1081z" />
    <glyph glyph-name="afii10091" unicode="&#x449;" horiz-adv-x="1787" vert-adv-y="1433" 
d="M1656 122h110v-474h-195v352h-1440v1081h195v-947h461v947h195v-947h479v947h195v-959z" />
    <glyph glyph-name="afii10092" unicode="&#x44a;" horiz-adv-x="1328" vert-adv-y="1433" 
d="M547 1081v-435h272q149 0 205 -16q93 -26 155 -104q69 -86 69 -200q0 -106 -65 -188q-69 -87 -171 -116q-75 -22 -175 -22h-485v936h-346v145h541zM547 145h281q221 0 221 179q0 112 -75 153q-43 24 -130 24h-297v-356z" />
    <glyph glyph-name="afii10093" unicode="&#x44b;" horiz-adv-x="1458" vert-adv-y="1433" 
d="M326 1081v-435h272q149 0 205 -16q93 -26 155 -104q69 -86 69 -200q0 -106 -65 -188q-69 -87 -171 -116q-75 -22 -175 -22h-485v1081h195zM326 145h281q221 0 221 179q0 112 -75 153q-43 24 -130 24h-297v-356zM1132 0v1081h195v-1081h-195z" />
    <glyph glyph-name="afii10094" unicode="&#x44c;" horiz-adv-x="1107" vert-adv-y="1433" 
d="M326 1081v-435h272q149 0 205 -16q93 -26 155 -104q69 -86 69 -200q0 -106 -65 -188q-69 -87 -171 -116q-75 -22 -175 -22h-485v1081h195zM326 145h281q221 0 221 179q0 112 -75 153q-43 24 -130 24h-297v-356z" />
    <glyph glyph-name="afii10095" unicode="&#x44d;" horiz-adv-x="1107" vert-adv-y="1433" 
d="M428 496v145h398q-16 134 -72 213q-82 115 -233 115q-130 0 -195 -75q-45 -53 -73 -155l-188 49q34 133 108 213q117 125 319 125q133 0 251 -53q137 -61 211 -202q73 -138 73 -333q0 -300 -165 -453q-131 -122 -344 -122q-364 0 -468 305l172 64q68 -211 287 -211
q214 0 284 183q28 75 35 192h-400z" />
    <glyph glyph-name="afii10096" unicode="&#x44e;" horiz-adv-x="1681" vert-adv-y="1433" 
d="M575 641q20 169 97 280q136 197 413 197q252 0 390 -166q126 -152 126 -411q0 -258 -126 -411q-138 -167 -389 -167q-254 0 -391 167q-111 135 -125 366h-244v-496h-195v1081h195v-440h249zM1081 961q-154 0 -238 -121q-75 -110 -75 -299q0 -192 75 -300
q84 -120 239 -120q151 0 236 108q84 106 84 318q0 213 -101 325q-80 89 -220 89z" />
    <glyph glyph-name="afii10097" unicode="&#x44f;" horiz-adv-x="1064" vert-adv-y="1433" 
d="M739 588v348h-242q-225 0 -225 -172q0 -176 225 -176h242zM934 0h-195v443h-269h-9h-9q-8 0 -16 2l-211 -445h-193l234 469q-91 37 -142 116q-50 77 -50 181q0 132 65 211q87 104 277 104h518v-1081z" />
    <glyph glyph-name="afii10071" unicode="&#x451;" horiz-adv-x="1151" vert-adv-y="1433" 
d="M1079 496h-800q7 -127 40 -205q73 -170 279 -170q219 0 287 211l172 -64q-104 -305 -468 -305q-225 0 -358 135q-151 153 -151 440q0 259 125 413q136 167 385 167q266 0 392 -174q54 -73 79 -187q18 -84 18 -165v-96zM281 641h602q-16 328 -293 328q-161 0 -244 -125
q-50 -76 -65 -203zM298 1295v229h183v-229h-183zM694 1295v229h182v-229h-182z" />
    <glyph glyph-name="afii10099" unicode="&#x452;" horiz-adv-x="1192" vert-adv-y="1433" 
d="M336 0h-195v1246h-173v146h173v152h195v-150h174v-146h-174v-330q123 200 365 200q177 0 275 -109q85 -96 85 -259v-816q0 -104 -51 -180q-55 -82 -139 -123q-53 -26 -112 -26h-292v174h290q50 0 80 40q29 40 29 100v779q0 260 -227 260q-146 0 -229 -128
q-74 -115 -74 -285v-545z" />
    <glyph glyph-name="afii10100" unicode="&#x453;" horiz-adv-x="888" vert-adv-y="1433" 
d="M131 1081h751v-145h-556v-936h-195v1081zM306 1272l189 272h221l-234 -272h-176z" />
    <glyph glyph-name="afii10101" unicode="&#x454;" horiz-adv-x="1107" vert-adv-y="1433" 
d="M679 496h-400q7 -127 40 -205q72 -170 279 -170q219 0 287 211l172 -64q-105 -305 -468 -305q-225 0 -358 135q-151 153 -151 440q0 259 125 413q66 81 158 122q118 53 252 53q218 0 336 -145q61 -75 91 -193l-188 -49q-31 112 -82 164q-65 66 -186 66q-158 0 -240 -125
q-50 -76 -65 -203h398v-145z" />
    <glyph glyph-name="afii10102" unicode="&#x455;" horiz-adv-x="1053" vert-adv-y="1433" 
d="M45 287l182 49q22 -99 72 -149q73 -74 218 -74q121 0 187 45q64 44 64 126q0 72 -44 109q-47 41 -136 58l-176 34q-328 63 -328 315q0 155 129 242q113 76 302 76q349 0 443 -282l-174 -56q-35 101 -105 149q-62 42 -177 42q-122 0 -184 -55q-42 -38 -42 -108
q0 -65 43 -103q43 -37 146 -58l215 -43q289 -58 289 -315q0 -145 -111 -232q-120 -94 -334 -94q-215 0 -337 94q-101 77 -142 230z" />
    <glyph glyph-name="afii10103" unicode="&#x456;" horiz-adv-x="477" vert-adv-y="1433" 
d="M141 0v1081h195v-1081h-195zM141 1315v229h195v-229h-195z" />
    <glyph glyph-name="afii10104" unicode="&#x457;" horiz-adv-x="477" vert-adv-y="1433" 
d="M141 0v1081h195v-1081h-195zM-51 1295v229h183v-229h-183zM345 1295v229h182v-229h-182z" />
    <glyph glyph-name="afii10105" unicode="&#x458;" horiz-adv-x="489" vert-adv-y="1433" 
d="M-121 -401l21 159q56 -14 118 -14q78 0 108 38q28 35 28 107v1192h194v-1231q0 -274 -264 -274h-16q-101 0 -189 23zM154 1317v227h194v-227h-194z" />
    <glyph glyph-name="afii10106" unicode="&#x459;" horiz-adv-x="1859" vert-adv-y="1433" 
d="M293 1081h785v-435h272q149 0 205 -16q93 -26 155 -104q69 -86 69 -200q0 -165 -142 -261q-96 -65 -269 -65h-485v936h-395v-390q0 -255 -120 -399q-113 -136 -254 -145q-28 -2 -82 -2v151q154 45 212 133q49 74 49 258v539zM1078 145h281q221 0 221 179q0 112 -75 153
q-44 24 -130 24h-297v-356z" />
    <glyph glyph-name="afii10107" unicode="&#x45a;" horiz-adv-x="1769" vert-adv-y="1433" 
d="M793 646v435h195v-435h273q149 0 204 -16q94 -26 156 -104q69 -86 69 -200q0 -106 -65 -188q-69 -87 -171 -116q-76 -22 -176 -22h-485v501h-467v-501h-195v1081h195v-435h467zM989 145h281q222 0 222 179q0 112 -75 153q-44 24 -131 24h-297v-356z" />
    <glyph glyph-name="afii10108" unicode="&#x45b;" horiz-adv-x="1192" vert-adv-y="1433" 
d="M866 0v698q0 260 -227 260q-146 0 -229 -128q-74 -115 -74 -285v-545h-195v1246h-173v146h173v152h195v-150h174v-146h-174v-330q125 200 365 200q177 0 275 -109q85 -96 85 -259v-750h-195z" />
    <glyph glyph-name="afii10109" unicode="&#x45c;" horiz-adv-x="1008" vert-adv-y="1433" 
d="M131 1081h195v-422h105l314 422h213l-370 -492l420 -589h-219l-349 514h-114v-514h-195v1081zM340 1272l189 272h221l-234 -272h-176z" />
    <glyph glyph-name="afii10110" unicode="&#x45e;" horiz-adv-x="1063" vert-adv-y="1433" 
d="M74 -395l32 157q66 -22 128 -22q71 0 112 34q38 33 64 99l49 127l-459 1081h209l344 -848l313 848h197l-477 -1265q-40 -106 -92 -158q-82 -82 -224 -82h-11q-85 0 -185 29zM204 1528h154q45 -109 183 -109q143 0 179 109h154q-44 -240 -336 -240q-149 0 -237 68
q-81 63 -97 172z" />
    <glyph glyph-name="afii10193" unicode="&#x45f;" horiz-adv-x="1112" vert-adv-y="1433" 
d="M458 0h-327v1081h195v-936h460v936h195v-1081h-328v-352h-195v352z" />
    <glyph glyph-name="afii10050" unicode="&#x490;" horiz-adv-x="1337" vert-adv-y="1433" 
d="M1173 1544h52v-184h-865v-1360h-208v1544h845l189 272h221z" />
    <glyph glyph-name="afii10098" unicode="&#x491;" horiz-adv-x="958" vert-adv-y="1433" 
d="M842 1081h40v-145h-556v-936h-195v1081h535l188 270h221z" />
    <glyph glyph-name="uni0492" unicode="&#x492;" horiz-adv-x="1337" vert-adv-y="1433" 
d="M360 879h576v-185h-576v-694h-208v694h-104v185h104v665h1073v-184h-865v-481z" />
    <glyph glyph-name="uni0493" unicode="&#x493;" horiz-adv-x="888" vert-adv-y="1433" 
d="M131 496h-75v145h75v440h751v-145h-556v-295h334v-145h-334v-496h-195v496z" />
    <glyph glyph-name="uni0496" unicode="&#x496;" horiz-adv-x="2172" vert-adv-y="1433" 
d="M2046 174h163v-526h-208v352h-63l-497 731h-253v-731h-208v731h-245l-494 -731h-233l555 814l-457 730h232l398 -639h244v639h208v-639h246l397 639h230l-453 -730z" />
    <glyph glyph-name="uni0497" unicode="&#x497;" horiz-adv-x="1645" vert-adv-y="1433" 
d="M1450 0h-109l-350 514h-114v-514h-195v514h-114l-349 -514h-219l420 589l-370 492h213l314 -422h105v422h195v-422h105l314 422h214l-371 -492l343 -467h163v-474h-195v352z" />
    <glyph glyph-name="uni049A" unicode="&#x49a;" horiz-adv-x="1344" vert-adv-y="1433" 
d="M1218 174h163v-526h-208v352h-63l-497 731h-253v-731h-208v1544h208v-639h246l397 639h230l-453 -730z" />
    <glyph glyph-name="uni049B" unicode="&#x49b;" horiz-adv-x="1094" vert-adv-y="1433" 
d="M899 0h-110l-349 514h-114v-514h-195v1081h195v-422h105l314 422h213l-370 -492l342 -467h164v-474h-195v352z" />
    <glyph glyph-name="uni049C" unicode="&#x49c;" horiz-adv-x="1343" vert-adv-y="1433" 
d="M468 905v389h127v-389h11l397 639h229l-452 -730l556 -814h-227l-497 731h-17v-388h-127v388h-108v-731h-208v1544h208v-639h108z" />
    <glyph glyph-name="uni049D" unicode="&#x49d;" horiz-adv-x="1066" vert-adv-y="1433" 
d="M381 514h-55v-514h-195v1081h195v-422h55v320h114v-312l307 414h213l-370 -492l420 -589h-219l-349 514h-2v-234h-114v234z" />
    <glyph glyph-name="uni04A2" unicode="&#x4a2;" horiz-adv-x="1528" vert-adv-y="1433" 
d="M1280 0h-113v723h-807v-723h-208v1544h208v-633h807v633h209v-1370h112v-526h-208v352z" />
    <glyph glyph-name="uni04A3" unicode="&#x4a3;" horiz-adv-x="1119" vert-adv-y="1433" 
d="M902 0h-109v499h-467v-499h-195v1081h195v-437h467v437h195v-959h109v-474h-195v352z" />
    <glyph glyph-name="uni04AE" unicode="&#x4ae;" horiz-adv-x="1292" vert-adv-y="1433" 
d="M541 0v602l-541 942h225l430 -758l422 758h215l-540 -942v-602h-211z" />
    <glyph glyph-name="uni04AF" unicode="&#x4af;" horiz-adv-x="1063" vert-adv-y="1433" 
d="M655 0v-393h-196v393l-459 1081h209l344 -848l313 848h197z" />
    <glyph glyph-name="uni04B0" unicode="&#x4b0;" horiz-adv-x="1292" vert-adv-y="1433" 
d="M752 301v-301h-211v301h-280v184h280v117l-541 942h225l430 -758l422 758h215l-540 -942v-117h280v-184h-280z" />
    <glyph glyph-name="uni04B1" unicode="&#x4b1;" horiz-adv-x="1063" vert-adv-y="1433" 
d="M459 -6v6l-459 1081h209l344 -848l313 848h197l-408 -1081v-6h180v-146h-180v-241h-196v241h-180v146h180z" />
    <glyph glyph-name="uni04B2" unicode="&#x4b2;" horiz-adv-x="1377" vert-adv-y="1433" 
d="M1163 0h-100l-418 639l-422 -639h-223l537 795l-498 749h233l381 -581l387 581h217l-493 -737l421 -633h186v-526h-208v352z" />
    <glyph glyph-name="uni04B3" unicode="&#x4b3;" horiz-adv-x="1050" vert-adv-y="1433" 
d="M855 0h-103l-273 414l-276 -414h-203l379 555l-354 526h215l247 -376l252 376h201l-352 -516l299 -443h163v-474h-195v352z" />
    <glyph glyph-name="uni04B8" unicode="&#x4b8;" horiz-adv-x="1421" vert-adv-y="1433" 
d="M753 532v-294h-127v289q-210 4 -344 80q-186 105 -186 312v625h208v-615q0 -144 153 -197q65 -23 169 -29v477h127v-476q141 11 308 64v776h208v-1544h-208v581q-152 -37 -308 -49z" />
    <glyph glyph-name="uni04B9" unicode="&#x4b9;" horiz-adv-x="1032" vert-adv-y="1433" 
d="M549 358v-213h-114v206q-132 5 -216 48q-84 44 -120 147q-19 56 -19 97v438h195v-431q0 -112 160 -124v233h114v-231q53 4 157 26v527h195v-1081h-195v390q-97 -24 -157 -32z" />
    <glyph glyph-name="uni04BA" unicode="&#x4ba;" horiz-adv-x="1421" vert-adv-y="1433" 
d="M304 1544v-581q224 53 422 53q288 0 435 -136q108 -99 108 -255v-625h-208v615q0 227 -375 227q-170 0 -382 -66v-776h-208v1544h208z" />
    <glyph glyph-name="uni04BB" unicode="&#x4bb;" horiz-adv-x="1181" vert-adv-y="1433" 
d="M856 0v698q0 260 -228 260q-145 0 -228 -128q-74 -115 -74 -285v-545h-195v1544h195v-626q123 200 364 200q178 0 276 -109q85 -96 85 -259v-750h-195z" />
    <glyph glyph-name="uni04C0" unicode="&#x4c0;" horiz-adv-x="510" vert-adv-y="1433" 
d="M152 0v1544h208v-1544h-208z" />
    <glyph glyph-name="uni04D8" unicode="&#x4d8;" horiz-adv-x="1636" vert-adv-y="1433" 
d="M354 1070l-209 51q50 183 162 293q89 87 228 131q126 40 263 40q229 0 397 -95q171 -97 259 -287q86 -183 86 -431q0 -380 -193 -595q-193 -214 -529 -214q-302 0 -490 174q-112 105 -171 264q-61 162 -61 351q0 36 5 112h216h1002q-15 190 -101 328q-137 215 -401 215
q-229 0 -353 -132q-55 -58 -83 -129q-13 -32 -27 -76zM317 679q15 -190 100 -326q136 -216 398 -216q243 0 380 182q102 137 124 360h-1002z" />
    <glyph glyph-name="afii10846" unicode="&#x4d9;" horiz-adv-x="1159" vert-adv-y="1433" 
d="M80 585h800q-7 127 -40 205q-72 170 -279 170q-220 0 -287 -211l-172 64q104 305 468 305q225 0 358 -135q151 -153 151 -440q0 -259 -125 -413q-136 -167 -385 -167q-266 0 -392 174q-54 73 -79 187q-18 84 -18 165v96zM878 440h-602q16 -328 293 -328q162 0 244 125
q50 76 65 203z" />
    <glyph glyph-name="uni04E8" unicode="&#x4e8;" horiz-adv-x="1636" vert-adv-y="1433" 
d="M817 1581q338 0 530 -213q193 -215 193 -596q0 -380 -193 -595q-193 -214 -525 -214q-306 0 -494 174q-232 216 -232 636q0 380 193 595q192 213 528 213zM317 679q15 -190 100 -326q136 -216 398 -216q243 0 380 182q102 137 124 360h-1002zM1319 864q-15 190 -101 328
q-137 215 -401 215q-275 0 -410 -233q-71 -123 -90 -310h1002z" />
    <glyph glyph-name="uni04E9" unicode="&#x4e9;" horiz-adv-x="1192" vert-adv-y="1433" 
d="M596 1118q252 0 390 -166q126 -152 126 -411q0 -258 -126 -411q-138 -167 -386 -167q-234 0 -369 138q-151 155 -151 440q0 259 125 411q138 166 391 166zM910 614q-11 134 -70 223q-82 124 -248 124q-176 0 -258 -155q-40 -77 -52 -192h628zM282 469q13 -127 58 -206
q82 -142 256 -142q172 0 255 140q45 76 58 208h-627z" />
    <glyph glyph-name="uni060C" unicode="&#x60c;" vert-adv-y="1433" 
 />
    <glyph glyph-name="uni061B" unicode="&#x61b;" vert-adv-y="1433" 
 />
    <glyph glyph-name="uni061F" unicode="&#x61f;" vert-adv-y="1433" 
 />
    <glyph glyph-name="uni0621" unicode="&#x621;" vert-adv-y="1433" 
 />
    <glyph glyph-name="uni0622" unicode="&#x622;" vert-adv-y="1433" 
 />
    <glyph glyph-name="uni0623" unicode="&#x623;" vert-adv-y="1433" 
 />
    <glyph glyph-name="uni0624" unicode="&#x624;" vert-adv-y="1433" 
 />
    <glyph glyph-name="uni0625" unicode="&#x625;" vert-adv-y="1433" 
 />
    <glyph glyph-name="uni0626" unicode="&#x626;" vert-adv-y="1433" 
 />
    <glyph glyph-name="uni0627" unicode="&#x627;" vert-adv-y="1433" 
 />
    <glyph glyph-name="uni0628" unicode="&#x628;" vert-adv-y="1433" 
 />
    <glyph glyph-name="uni0629" unicode="&#x629;" vert-adv-y="1433" 
 />
    <glyph glyph-name="uni062A" unicode="&#x62a;" vert-adv-y="1433" 
 />
    <glyph glyph-name="uni062B" unicode="&#x62b;" vert-adv-y="1433" 
 />
    <glyph glyph-name="uni062C" unicode="&#x62c;" vert-adv-y="1433" 
 />
    <glyph glyph-name="uni062D" unicode="&#x62d;" vert-adv-y="1433" 
 />
    <glyph glyph-name="uni062E" unicode="&#x62e;" vert-adv-y="1433" 
 />
    <glyph glyph-name="uni062F" unicode="&#x62f;" vert-adv-y="1433" 
 />
    <glyph glyph-name="uni0630" unicode="&#x630;" vert-adv-y="1433" 
 />
    <glyph glyph-name="uni0631" unicode="&#x631;" vert-adv-y="1433" 
 />
    <glyph glyph-name="uni0632" unicode="&#x632;" vert-adv-y="1433" 
 />
    <glyph glyph-name="uni0633" unicode="&#x633;" vert-adv-y="1433" 
 />
    <glyph glyph-name="uni0634" unicode="&#x634;" vert-adv-y="1433" 
 />
    <glyph glyph-name="uni0635" unicode="&#x635;" vert-adv-y="1433" 
 />
    <glyph glyph-name="uni0636" unicode="&#x636;" vert-adv-y="1433" 
 />
    <glyph glyph-name="uni0637" unicode="&#x637;" vert-adv-y="1433" 
 />
    <glyph glyph-name="uni0638" unicode="&#x638;" vert-adv-y="1433" 
 />
    <glyph glyph-name="uni0639" unicode="&#x639;" vert-adv-y="1433" 
 />
    <glyph glyph-name="uni063A" unicode="&#x63a;" vert-adv-y="1433" 
 />
    <glyph glyph-name="uni0640" unicode="&#x640;" vert-adv-y="1433" 
 />
    <glyph glyph-name="uni0641" unicode="&#x641;" vert-adv-y="1433" 
 />
    <glyph glyph-name="uni0642" unicode="&#x642;" vert-adv-y="1433" 
 />
    <glyph glyph-name="uni0643" unicode="&#x643;" vert-adv-y="1433" 
 />
    <glyph glyph-name="uni0644" unicode="&#x644;" vert-adv-y="1433" 
 />
    <glyph glyph-name="uni0645" unicode="&#x645;" vert-adv-y="1433" 
 />
    <glyph glyph-name="uni0646" unicode="&#x646;" vert-adv-y="1433" 
 />
    <glyph glyph-name="uni0647" unicode="&#x647;" vert-adv-y="1433" 
 />
    <glyph glyph-name="uni0648" unicode="&#x648;" vert-adv-y="1433" 
 />
    <glyph glyph-name="uni0649" unicode="&#x649;" vert-adv-y="1433" 
 />
    <glyph glyph-name="uni064A" unicode="&#x64a;" vert-adv-y="1433" 
 />
    <glyph glyph-name="uni064B" unicode="&#x64b;" vert-adv-y="1433" 
 />
    <glyph glyph-name="uni064C" unicode="&#x64c;" vert-adv-y="1433" 
 />
    <glyph glyph-name="uni064D" unicode="&#x64d;" vert-adv-y="1433" 
 />
    <glyph glyph-name="uni064E" unicode="&#x64e;" vert-adv-y="1433" 
 />
    <glyph glyph-name="uni064F" unicode="&#x64f;" vert-adv-y="1433" 
 />
    <glyph glyph-name="uni0650" unicode="&#x650;" vert-adv-y="1433" 
 />
    <glyph glyph-name="uni0651" unicode="&#x651;" vert-adv-y="1433" 
 />
    <glyph glyph-name="uni0652" unicode="&#x652;" vert-adv-y="1433" 
 />
    <glyph glyph-name="uni0653" unicode="&#x653;" vert-adv-y="1433" 
 />
    <glyph glyph-name="uni0654" unicode="&#x654;" vert-adv-y="1433" 
 />
    <glyph glyph-name="uni0655" unicode="&#x655;" vert-adv-y="1433" 
 />
    <glyph glyph-name="uni0660" unicode="&#x660;" vert-adv-y="1433" 
 />
    <glyph glyph-name="uni0661" unicode="&#x661;" vert-adv-y="1433" 
 />
    <glyph glyph-name="uni0662" unicode="&#x662;" vert-adv-y="1433" 
 />
    <glyph glyph-name="uni0663" unicode="&#x663;" vert-adv-y="1433" 
 />
    <glyph glyph-name="uni0664" unicode="&#x664;" vert-adv-y="1433" 
 />
    <glyph glyph-name="uni0665" unicode="&#x665;" vert-adv-y="1433" 
 />
    <glyph glyph-name="uni0666" unicode="&#x666;" vert-adv-y="1433" 
 />
    <glyph glyph-name="uni0667" unicode="&#x667;" vert-adv-y="1433" 
 />
    <glyph glyph-name="uni0668" unicode="&#x668;" vert-adv-y="1433" 
 />
    <glyph glyph-name="uni0669" unicode="&#x669;" vert-adv-y="1433" 
 />
    <glyph glyph-name="uni066A" unicode="&#x66a;" vert-adv-y="1433" 
 />
    <glyph glyph-name="uni066B" unicode="&#x66b;" vert-adv-y="1433" 
 />
    <glyph glyph-name="uni066C" unicode="&#x66c;" vert-adv-y="1433" 
 />
    <glyph glyph-name="uni066D" unicode="&#x66d;" vert-adv-y="1433" 
 />
    <glyph glyph-name="uni0670" unicode="&#x670;" vert-adv-y="1433" 
 />
    <glyph glyph-name="uni0671" unicode="&#x671;" vert-adv-y="1433" 
 />
    <glyph glyph-name="uni0672" unicode="&#x672;" vert-adv-y="1433" 
 />
    <glyph glyph-name="uni0673" unicode="&#x673;" vert-adv-y="1433" 
 />
    <glyph glyph-name="uni0674" unicode="&#x674;" vert-adv-y="1433" 
 />
    <glyph glyph-name="uni0675" unicode="&#x675;" vert-adv-y="1433" 
 />
    <glyph glyph-name="uni0676" unicode="&#x676;" vert-adv-y="1433" 
 />
    <glyph glyph-name="uni0677" unicode="&#x677;" vert-adv-y="1433" 
 />
    <glyph glyph-name="uni0678" unicode="&#x678;" vert-adv-y="1433" 
 />
    <glyph glyph-name="uni0679" unicode="&#x679;" vert-adv-y="1433" 
 />
    <glyph glyph-name="uni067A" unicode="&#x67a;" vert-adv-y="1433" 
 />
    <glyph glyph-name="uni067B" unicode="&#x67b;" vert-adv-y="1433" 
 />
    <glyph glyph-name="uni067C" unicode="&#x67c;" vert-adv-y="1433" 
 />
    <glyph glyph-name="uni067D" unicode="&#x67d;" vert-adv-y="1433" 
 />
    <glyph glyph-name="uni067E" unicode="&#x67e;" vert-adv-y="1433" 
 />
    <glyph glyph-name="uni067F" unicode="&#x67f;" vert-adv-y="1433" 
 />
    <glyph glyph-name="uni0680" unicode="&#x680;" vert-adv-y="1433" 
 />
    <glyph glyph-name="uni0681" unicode="&#x681;" vert-adv-y="1433" 
 />
    <glyph glyph-name="uni0682" unicode="&#x682;" vert-adv-y="1433" 
 />
    <glyph glyph-name="uni0683" unicode="&#x683;" vert-adv-y="1433" 
 />
    <glyph glyph-name="uni0684" unicode="&#x684;" vert-adv-y="1433" 
 />
    <glyph glyph-name="uni0685" unicode="&#x685;" vert-adv-y="1433" 
 />
    <glyph glyph-name="uni0686" unicode="&#x686;" vert-adv-y="1433" 
 />
    <glyph glyph-name="uni0687" unicode="&#x687;" vert-adv-y="1433" 
 />
    <glyph glyph-name="uni0688" unicode="&#x688;" vert-adv-y="1433" 
 />
    <glyph glyph-name="uni0689" unicode="&#x689;" vert-adv-y="1433" 
 />
    <glyph glyph-name="uni068A" unicode="&#x68a;" vert-adv-y="1433" 
 />
    <glyph glyph-name="uni068B" unicode="&#x68b;" vert-adv-y="1433" 
 />
    <glyph glyph-name="uni068C" unicode="&#x68c;" vert-adv-y="1433" 
 />
    <glyph glyph-name="uni068D" unicode="&#x68d;" vert-adv-y="1433" 
 />
    <glyph glyph-name="uni068E" unicode="&#x68e;" vert-adv-y="1433" 
 />
    <glyph glyph-name="uni068F" unicode="&#x68f;" vert-adv-y="1433" 
 />
    <glyph glyph-name="uni0690" unicode="&#x690;" vert-adv-y="1433" 
 />
    <glyph glyph-name="uni0691" unicode="&#x691;" vert-adv-y="1433" 
 />
    <glyph glyph-name="uni0692" unicode="&#x692;" vert-adv-y="1433" 
 />
    <glyph glyph-name="uni0693" unicode="&#x693;" vert-adv-y="1433" 
 />
    <glyph glyph-name="uni0694" unicode="&#x694;" vert-adv-y="1433" 
 />
    <glyph glyph-name="uni0695" unicode="&#x695;" vert-adv-y="1433" 
 />
    <glyph glyph-name="uni0696" unicode="&#x696;" vert-adv-y="1433" 
 />
    <glyph glyph-name="uni0697" unicode="&#x697;" vert-adv-y="1433" 
 />
    <glyph glyph-name="uni0698" unicode="&#x698;" vert-adv-y="1433" 
 />
    <glyph glyph-name="uni0699" unicode="&#x699;" vert-adv-y="1433" 
 />
    <glyph glyph-name="uni069A" unicode="&#x69a;" vert-adv-y="1433" 
 />
    <glyph glyph-name="uni069B" unicode="&#x69b;" vert-adv-y="1433" 
 />
    <glyph glyph-name="uni069C" unicode="&#x69c;" vert-adv-y="1433" 
 />
    <glyph glyph-name="uni069D" unicode="&#x69d;" vert-adv-y="1433" 
 />
    <glyph glyph-name="uni069E" unicode="&#x69e;" vert-adv-y="1433" 
 />
    <glyph glyph-name="uni069F" unicode="&#x69f;" vert-adv-y="1433" 
 />
    <glyph glyph-name="uni06A0" unicode="&#x6a0;" vert-adv-y="1433" 
 />
    <glyph glyph-name="uni06A1" unicode="&#x6a1;" vert-adv-y="1433" 
 />
    <glyph glyph-name="uni06A2" unicode="&#x6a2;" vert-adv-y="1433" 
 />
    <glyph glyph-name="uni06A3" unicode="&#x6a3;" vert-adv-y="1433" 
 />
    <glyph glyph-name="uni06A4" unicode="&#x6a4;" vert-adv-y="1433" 
 />
    <glyph glyph-name="uni06A5" unicode="&#x6a5;" vert-adv-y="1433" 
 />
    <glyph glyph-name="uni06A6" unicode="&#x6a6;" vert-adv-y="1433" 
 />
    <glyph glyph-name="uni06A7" unicode="&#x6a7;" vert-adv-y="1433" 
 />
    <glyph glyph-name="uni06A8" unicode="&#x6a8;" vert-adv-y="1433" 
 />
    <glyph glyph-name="uni06A9" unicode="&#x6a9;" vert-adv-y="1433" 
 />
    <glyph glyph-name="uni06AA" unicode="&#x6aa;" vert-adv-y="1433" 
 />
    <glyph glyph-name="uni06AB" unicode="&#x6ab;" vert-adv-y="1433" 
 />
    <glyph glyph-name="uni06AC" unicode="&#x6ac;" vert-adv-y="1433" 
 />
    <glyph glyph-name="uni06AD" unicode="&#x6ad;" vert-adv-y="1433" 
 />
    <glyph glyph-name="uni06AE" unicode="&#x6ae;" vert-adv-y="1433" 
 />
    <glyph glyph-name="uni06AF" unicode="&#x6af;" vert-adv-y="1433" 
 />
    <glyph glyph-name="uni06B0" unicode="&#x6b0;" vert-adv-y="1433" 
 />
    <glyph glyph-name="uni06B1" unicode="&#x6b1;" vert-adv-y="1433" 
 />
    <glyph glyph-name="uni06B2" unicode="&#x6b2;" vert-adv-y="1433" 
 />
    <glyph glyph-name="uni06B3" unicode="&#x6b3;" vert-adv-y="1433" 
 />
    <glyph glyph-name="uni06B4" unicode="&#x6b4;" vert-adv-y="1433" 
 />
    <glyph glyph-name="uni06B5" unicode="&#x6b5;" vert-adv-y="1433" 
 />
    <glyph glyph-name="uni06B6" unicode="&#x6b6;" vert-adv-y="1433" 
 />
    <glyph glyph-name="uni06B7" unicode="&#x6b7;" vert-adv-y="1433" 
 />
    <glyph glyph-name="uni06B8" unicode="&#x6b8;" vert-adv-y="1433" 
 />
    <glyph glyph-name="uni06B9" unicode="&#x6b9;" vert-adv-y="1433" 
 />
    <glyph glyph-name="uni06BA" unicode="&#x6ba;" vert-adv-y="1433" 
 />
    <glyph glyph-name="uni06BB" unicode="&#x6bb;" vert-adv-y="1433" 
 />
    <glyph glyph-name="uni06BC" unicode="&#x6bc;" vert-adv-y="1433" 
 />
    <glyph glyph-name="uni06BD" unicode="&#x6bd;" vert-adv-y="1433" 
 />
    <glyph glyph-name="uni06BE" unicode="&#x6be;" vert-adv-y="1433" 
 />
    <glyph glyph-name="uni06BF" unicode="&#x6bf;" vert-adv-y="1433" 
 />
    <glyph glyph-name="uni06C0" unicode="&#x6c0;" vert-adv-y="1433" 
 />
    <glyph glyph-name="uni06C1" unicode="&#x6c1;" vert-adv-y="1433" 
 />
    <glyph glyph-name="uni06C2" unicode="&#x6c2;" vert-adv-y="1433" 
 />
    <glyph glyph-name="uni06C3" unicode="&#x6c3;" vert-adv-y="1433" 
 />
    <glyph glyph-name="uni06C4" unicode="&#x6c4;" vert-adv-y="1433" 
 />
    <glyph glyph-name="uni06C5" unicode="&#x6c5;" vert-adv-y="1433" 
 />
    <glyph glyph-name="uni06C6" unicode="&#x6c6;" vert-adv-y="1433" 
 />
    <glyph glyph-name="uni06C7" unicode="&#x6c7;" vert-adv-y="1433" 
 />
    <glyph glyph-name="uni06C8" unicode="&#x6c8;" vert-adv-y="1433" 
 />
    <glyph glyph-name="uni06C9" unicode="&#x6c9;" vert-adv-y="1433" 
 />
    <glyph glyph-name="uni06CA" unicode="&#x6ca;" vert-adv-y="1433" 
 />
    <glyph glyph-name="uni06CB" unicode="&#x6cb;" vert-adv-y="1433" 
 />
    <glyph glyph-name="uni06CC" unicode="&#x6cc;" vert-adv-y="1433" 
 />
    <glyph glyph-name="uni06CD" unicode="&#x6cd;" vert-adv-y="1433" 
 />
    <glyph glyph-name="uni06CE" unicode="&#x6ce;" vert-adv-y="1433" 
 />
    <glyph glyph-name="uni06CF" unicode="&#x6cf;" vert-adv-y="1433" 
 />
    <glyph glyph-name="uni06D0" unicode="&#x6d0;" vert-adv-y="1433" 
 />
    <glyph glyph-name="uni06D1" unicode="&#x6d1;" vert-adv-y="1433" 
 />
    <glyph glyph-name="uni06D2" unicode="&#x6d2;" vert-adv-y="1433" 
 />
    <glyph glyph-name="uni06D3" unicode="&#x6d3;" vert-adv-y="1433" 
 />
    <glyph glyph-name="uni06D4" unicode="&#x6d4;" vert-adv-y="1433" 
 />
    <glyph glyph-name="uni06D5" unicode="&#x6d5;" vert-adv-y="1433" 
 />
    <glyph glyph-name="uni06D6" unicode="&#x6d6;" vert-adv-y="1433" 
 />
    <glyph glyph-name="uni06D7" unicode="&#x6d7;" vert-adv-y="1433" 
 />
    <glyph glyph-name="uni06D8" unicode="&#x6d8;" vert-adv-y="1433" 
 />
    <glyph glyph-name="uni06D9" unicode="&#x6d9;" vert-adv-y="1433" 
 />
    <glyph glyph-name="uni06DA" unicode="&#x6da;" vert-adv-y="1433" 
 />
    <glyph glyph-name="uni06DB" unicode="&#x6db;" vert-adv-y="1433" 
 />
    <glyph glyph-name="uni06DC" unicode="&#x6dc;" vert-adv-y="1433" 
 />
    <glyph glyph-name="uni06DD" unicode="&#x6dd;" vert-adv-y="1433" 
 />
    <glyph glyph-name="uni06DE" unicode="&#x6de;" vert-adv-y="1433" 
 />
    <glyph glyph-name="uni06DF" unicode="&#x6df;" vert-adv-y="1433" 
 />
    <glyph glyph-name="uni06E0" unicode="&#x6e0;" vert-adv-y="1433" 
 />
    <glyph glyph-name="uni06E1" unicode="&#x6e1;" vert-adv-y="1433" 
 />
    <glyph glyph-name="uni06E2" unicode="&#x6e2;" vert-adv-y="1433" 
 />
    <glyph glyph-name="uni06E3" unicode="&#x6e3;" vert-adv-y="1433" 
 />
    <glyph glyph-name="uni06E4" unicode="&#x6e4;" vert-adv-y="1433" 
 />
    <glyph glyph-name="uni06E5" unicode="&#x6e5;" vert-adv-y="1433" 
 />
    <glyph glyph-name="uni06E6" unicode="&#x6e6;" vert-adv-y="1433" 
 />
    <glyph glyph-name="uni06E7" unicode="&#x6e7;" vert-adv-y="1433" 
 />
    <glyph glyph-name="uni06E8" unicode="&#x6e8;" vert-adv-y="1433" 
 />
    <glyph glyph-name="uni06E9" unicode="&#x6e9;" vert-adv-y="1433" 
 />
    <glyph glyph-name="uni06EA" unicode="&#x6ea;" vert-adv-y="1433" 
 />
    <glyph glyph-name="uni06EB" unicode="&#x6eb;" vert-adv-y="1433" 
 />
    <glyph glyph-name="uni06EC" unicode="&#x6ec;" vert-adv-y="1433" 
 />
    <glyph glyph-name="uni06ED" unicode="&#x6ed;" vert-adv-y="1433" 
 />
    <glyph glyph-name="uni06EE" unicode="&#x6ee;" vert-adv-y="1433" 
 />
    <glyph glyph-name="uni06EF" unicode="&#x6ef;" vert-adv-y="1433" 
 />
    <glyph glyph-name="uni06F0" unicode="&#x6f0;" vert-adv-y="1433" 
 />
    <glyph glyph-name="uni06F1" unicode="&#x6f1;" vert-adv-y="1433" 
 />
    <glyph glyph-name="uni06F2" unicode="&#x6f2;" vert-adv-y="1433" 
 />
    <glyph glyph-name="uni06F3" unicode="&#x6f3;" vert-adv-y="1433" 
 />
    <glyph glyph-name="uni06F4" unicode="&#x6f4;" vert-adv-y="1433" 
 />
    <glyph glyph-name="uni06F5" unicode="&#x6f5;" vert-adv-y="1433" 
 />
    <glyph glyph-name="uni06F6" unicode="&#x6f6;" vert-adv-y="1433" 
 />
    <glyph glyph-name="uni06F7" unicode="&#x6f7;" vert-adv-y="1433" 
 />
    <glyph glyph-name="uni06F8" unicode="&#x6f8;" vert-adv-y="1433" 
 />
    <glyph glyph-name="uni06F9" unicode="&#x6f9;" vert-adv-y="1433" 
 />
    <glyph glyph-name="uni06FA" unicode="&#x6fa;" vert-adv-y="1433" 
 />
    <glyph glyph-name="uni06FB" unicode="&#x6fb;" vert-adv-y="1433" 
 />
    <glyph glyph-name="uni06FC" unicode="&#x6fc;" vert-adv-y="1433" 
 />
    <glyph glyph-name="uni06FD" unicode="&#x6fd;" vert-adv-y="1433" 
 />
    <glyph glyph-name="uni06FE" unicode="&#x6fe;" vert-adv-y="1433" 
 />
    <glyph glyph-name="uni2010" unicode="&#x2010;" horiz-adv-x="838" vert-adv-y="1433" 
d="M115 440v203h606v-203h-606z" />
    <glyph glyph-name="uni2011" unicode="&#x2011;" horiz-adv-x="838" vert-adv-y="1433" 
d="M115 440v203h606v-203h-606z" />
    <glyph glyph-name="figuredash" unicode="&#x2012;" horiz-adv-x="1024" vert-adv-y="1433" 
d="M0 500v166h1024v-166h-1024z" />
    <glyph glyph-name="afii00208" unicode="&#x2015;" horiz-adv-x="2048" vert-adv-y="1433" 
d="M0 500v166h2048v-166h-2048z" />
    <glyph glyph-name="uni203E" unicode="&#x203e;" horiz-adv-x="856" vert-adv-y="1433" 
d="M82 1335v146h692v-146h-692z" />
    <glyph glyph-name="afii61352" unicode="&#x2116;" horiz-adv-x="2549" vert-adv-y="1433" 
d="M2024 1298q154 0 264 -109q109 -110 109 -265t-109 -263q-111 -108 -263 -108q-140 0 -245 89q-130 110 -130 282q0 155 109 265q108 109 265 109zM2020 1137q-93 0 -153 -79q-44 -57 -44 -136q0 -85 60 -149q58 -61 139 -61q80 0 139 57q64 62 64 158q0 98 -76 162
q-56 48 -129 48zM1650 184v184h747v-184h-747zM152 0v1544h241l764 -1261v1261h203v-1544h-242l-764 1264v-1264h-202z" />
    <glyph glyph-name="minus" unicode="&#x2212;" horiz-adv-x="1227" vert-adv-y="1433" 
d="M66 647v168h1095v-168h-1095z" />
    <glyph glyph-name="uni2215" unicode="&#x2215;" horiz-adv-x="268" vert-adv-y="1433" 
d="M-324 -37l750 1534h164l-750 -1534h-164z" />
    <glyph glyph-name="uni2219" unicode="&#x2219;" horiz-adv-x="520" vert-adv-y="1433" 
d="M141 590v280h238v-280h-238z" />
    <glyph glyph-name="dotmath" unicode="&#x22c5;" horiz-adv-x="520" vert-adv-y="1433" 
d="M141 590v280h238v-280h-238z" />
    <glyph glyph-name="uniEA3E" unicode="&#xea3e;" horiz-adv-x="1107" vert-adv-y="1433" 
d="M679 496h-400q7 -127 40 -205q72 -170 279 -170q219 0 287 211l172 -64q-105 -305 -468 -305q-225 0 -358 135q-151 153 -151 440q0 259 125 413q66 81 158 122q118 53 252 53q218 0 336 -145q61 -75 91 -193l-188 -49q-31 112 -82 164q-65 66 -186 66q-158 0 -240 -125
q-50 -76 -65 -203h398v-145z" />
    <glyph glyph-name="uniEA3F" unicode="&#xea3f;" horiz-adv-x="477" vert-adv-y="1433" 
d="M483 1200v344h195l-45 -344h-150z" />
    <glyph glyph-name="uniEA4F" unicode="&#xea4f;" horiz-adv-x="1214" vert-adv-y="1433" 
d="M553 1272q107 164 202 272h166l-159 -272h-209z" />
    <glyph glyph-name="uniEA66" unicode="&#xea66;" horiz-adv-x="1391" vert-adv-y="1433" 
d="M406 -393l4 6q118 175 198 266h166l-159 -272h-209z" />
    <glyph glyph-name="uniEA67" unicode="&#xea67;" horiz-adv-x="1229" vert-adv-y="1433" 
d="M579 1200v344h195l-45 -344h-150z" />
    <glyph glyph-name="uniEA68" unicode="&#xea68;" horiz-adv-x="510" vert-adv-y="1433" 
d="M-31 1682v229h183v-229h-183zM365 1682v229h182v-229h-182z" />
    <glyph glyph-name="uniEA69" unicode="&#xea69;" horiz-adv-x="1094" vert-adv-y="1433" 
d="M318 -393l4 6q122 179 198 266h166l-159 -272h-209z" />
    <glyph glyph-name="uniEA6A" unicode="&#xea6a;" horiz-adv-x="477" vert-adv-y="1433" 
d="M-47 1295v229h183v-229h-183zM349 1295v229h182v-229h-182z" />
    <glyph glyph-name="Dotaccent" unicode="&#xefed;" horiz-adv-x="1337" vert-adv-y="1433" 
d="M641 1676v235h182v-235h-182z" />
    <glyph glyph-name="Breve" unicode="&#xefee;" horiz-adv-x="1427" vert-adv-y="1433" 
d="M381 1911h154q49 -109 183 -109q143 0 179 109h154q-44 -240 -336 -240q-150 0 -238 68q-80 63 -96 172z" />
    <glyph glyph-name="Ogonek" unicode="&#xeff1;" horiz-adv-x="856" vert-adv-y="1433" 
d="M704 0h106q-94 -74 -94 -156q0 -75 79 -75q44 0 101 43v-126q-65 -44 -135 -44q-88 0 -142 54q-41 42 -41 109q0 114 126 195z" />
    <glyph glyph-name="Cedilla" unicode="&#xeff2;" horiz-adv-x="1505" vert-adv-y="1433" 
d="M492 -393q120 178 202 272h166l-159 -272h-209z" />
    <glyph glyph-name="Ring" unicode="&#xeff3;" horiz-adv-x="1485" vert-adv-y="1433" 
d="M743 1942q132 0 198 -80q48 -58 48 -146q0 -96 -62 -157q-67 -65 -186 -65q-112 0 -178 54q-74 62 -74 172q0 109 76 170q66 52 178 52zM737 1850q-76 0 -114 -48q-27 -33 -27 -84q0 -55 36 -91q38 -39 106 -39q66 0 105 36q39 35 39 97q0 61 -46 98q-38 31 -99 31z" />
    <glyph glyph-name="Tilde" unicode="&#xeff5;" horiz-adv-x="1427" vert-adv-y="1433" 
d="M446 1683l-127 31q46 207 214 207q70 0 165 -49l68 -35q60 -31 98 -31q64 0 90 101l129 -31q-22 -94 -71 -148q-57 -61 -140 -61h-7q-43 0 -85 14q-25 8 -84 39l-59 31q-59 31 -95 31q-66 0 -96 -99z" />
    <glyph glyph-name="Circumflex" unicode="&#xeff7;" horiz-adv-x="1427" vert-adv-y="1433" 
d="M363 1659l248 272h200l248 -272h-184l-164 160l-164 -160h-184z" />
    <glyph glyph-name="uniF080" unicode="&#xf080;" horiz-adv-x="1661" vert-adv-y="1433" 
d="M1620 879v-176h-1577v176h1577z" />
    <glyph glyph-name="uniF081" unicode="&#xf081;" horiz-adv-x="1024" vert-adv-y="1433" 
d="M291 0l299 1542h150l-295 -1542h-154z" />
    <glyph glyph-name="uniF082" unicode="&#xf082;" horiz-adv-x="3488" vert-adv-y="1433" 
d="M6 6l442 1544h213l445 -1544h-193l-106 383h-529l-108 -383h-164zM313 545h453l-221 823zM2158 1120l-188 -30q-28 138 -77 216q-74 117 -211 117q-176 0 -263 -193q-67 -148 -67 -470q0 -308 73 -457q83 -170 251 -170q184 0 261 191q32 79 49 208l187 -20
q-39 -257 -145 -387q-126 -152 -352 -152q-517 0 -517 789q0 418 137 619q137 200 393 200q393 0 469 -461zM3348 1120l-186 -30q-30 138 -77 216q-73 117 -211 117q-332 0 -332 -665q0 -625 327 -625q181 0 259 191q33 82 50 208l187 -20q-82 -539 -499 -539
q-216 0 -345 147q-172 197 -172 641q0 412 139 620q134 200 392 200q254 0 370 -178q69 -105 98 -283z" />
    <glyph glyph-name="uniF083" unicode="&#xf083;" horiz-adv-x="3578" vert-adv-y="1433" 
d="M84 0v1546h200l562 -1214v1214h180v-1546h-203l-559 1210v-1210h-180zM2243 1116l-189 -35q-28 140 -77 219q-74 119 -213 119q-182 0 -266 -193q-70 -159 -70 -472q0 -625 331 -625q186 0 262 190q32 79 50 211l190 -18q-44 -265 -148 -391q-125 -152 -355 -152
q-525 0 -525 788q0 407 141 618q135 202 396 202q404 0 473 -461zM2947 1577q268 0 409 -199q146 -207 146 -606q0 -397 -146 -604q-141 -199 -411 -199q-237 0 -375 160q-176 206 -176 643q0 399 147 606q140 199 406 199zM2947 1419q-180 0 -273 -175q-90 -169 -90 -473
q0 -303 90 -470q93 -172 272 -172q162 0 253 138q108 165 108 504q0 308 -88 473q-94 175 -272 175z" />
    <glyph glyph-name="uniF084" unicode="&#xf084;" horiz-adv-x="2132" vert-adv-y="1433" 
d="M615 -965l-240 222l512 585l-432 154l1366 768l-416 -1518l-264 389z" />
    <glyph glyph-name="uniF085" unicode="&#xf085;" horiz-adv-x="45" vert-adv-y="1433" 
d="M139 35v1339h4078v-1339h-4078z" />
    <glyph glyph-name="uniF086" unicode="&#xf086;" horiz-adv-x="4352" vert-adv-y="1433" 
d="M4139 1335h-4004v-1261h4004v1261zM4212 1409v-1409h-4151v1409h4151z" />
    <glyph glyph-name="uniF087" unicode="&#xf087;" horiz-adv-x="1096" vert-adv-y="1433" 
d="M59 414l180 37q18 -133 64 -206q76 -120 241 -120q158 0 229 90q50 65 50 178q0 219 -227 289l-160 49q-182 56 -263 157q-83 103 -83 268q0 141 65 245q110 178 379 178q216 0 329 -119q92 -98 128 -268l-170 -49q-63 282 -293 282q-258 0 -258 -267q0 -196 231 -265
l179 -53q132 -40 206 -105q125 -110 125 -328q0 -207 -111 -317q-121 -121 -353 -121q-228 0 -347 120q-98 99 -141 325z" />
    <glyph glyph-name="uniF088" unicode="&#xf088;" horiz-adv-x="4164" vert-adv-y="1433" 
d="M59 418l180 35q17 -129 63 -204q74 -120 240 -120q279 0 279 267q0 223 -227 290l-160 47q-176 52 -262 156q-82 98 -82 266q0 142 65 247q107 175 377 175q216 0 330 -119q89 -92 125 -268l-168 -45q-27 115 -74 178q-75 100 -218 100q-147 0 -213 -91q-44 -61 -44 -172
q0 -100 57 -167q51 -58 172 -96l178 -55q131 -41 205 -106q127 -114 127 -325q0 -207 -112 -318q-120 -120 -352 -120q-224 0 -347 120q-96 94 -139 325zM1138 -387v1472h172l2 -137q37 77 88 114q70 52 179 52q176 0 259 -155q78 -148 78 -404q0 -270 -85 -417
q-95 -165 -273 -165q-159 0 -242 152v-512h-178zM1526 973q-216 0 -216 -437q0 -197 48 -302q54 -118 162 -118q94 0 149 87q61 96 61 346q0 208 -47 315q-48 109 -157 109zM2434 1114q200 0 304 -153q98 -144 98 -417q0 -268 -98 -416q-103 -155 -305 -155q-178 0 -279 126
q-119 150 -119 445q0 272 97 417q102 153 302 153zM2431 967q-218 0 -218 -422t222 -422q221 0 221 430q0 414 -225 414zM2967 4v1081h172l2 -170q14 48 55 97q70 83 165 83q40 0 81 -10l-16 -157q-34 6 -76 6q-67 0 -113 -43q-96 -90 -96 -340v-547h-174zM3690 935h-115
v150h115v306h174v-306h178v-150h-178v-671q0 -71 24 -101q22 -30 78 -30q48 0 88 14l13 -145q-66 -18 -156 -18q-221 0 -221 253v698z" />
    </font>
</defs>
</svg>
